<svg xmlns="http://www.w3.org/2000/svg" width="44" height="29" viewBox="0 0 44 29">
    <rect width="44" height="29" fill="none"/>
    <g transform="translate(-200 -8288.536)">
        <path d="M40.7,88.276H3.3a3.3,3.3,0,0,0-3.3,3.3v6.314H44V91.571A3.3,3.3,0,0,0,40.7,88.276Z"
              transform="translate(200 8200.26)" fill="#73af00"/>
        <path d="M0,318.223a3.3,3.3,0,0,0,3.3,3.3H40.7a3.3,3.3,0,0,0,3.3-3.3v-6.314H0Z"
              transform="translate(200 7995.845)" fill="#ff4b55"/>
        <g transform="translate(200 8296.384)">
            <rect width="44" height="9.609" transform="translate(0 1.761)" fill="#eef0f6"/>
            <path d="M.119,180.855H.126a.119.119,0,0,0,.119-.119v-.258a.119.119,0,0,1,.119-.119h.5a.119.119,0,0,1,.119.119v.258a.119.119,0,0,0,.119.119h.988a.119.119,0,0,0,.119-.119v-.51a.119.119,0,0,0-.119-.119H1.6a.119.119,0,0,0-.119.119v.013a.119.119,0,0,0,.119.119h.252a.119.119,0,0,1,.119.119v.013a.119.119,0,0,1-.119.119h-.5a.119.119,0,0,1-.119-.119v-.265a.119.119,0,0,0-.119-.119H.119a.119.119,0,0,0-.119.119v.51A.119.119,0,0,0,.119,180.855Zm.494,0H.62a.119.119,0,0,0,.119-.119v-.007a.119.119,0,0,0-.119-.119H.613a.119.119,0,0,0-.119.119v.007A.119.119,0,0,0,.613,180.855Zm-.494-1H3.078a.119.119,0,0,0,.119-.119v-.013a.119.119,0,0,0-.119-.119H.119a.119.119,0,0,0-.119.119v.013A.119.119,0,0,0,.119,179.855Zm2.958,1h-.5a.119.119,0,0,1-.119-.119v-.51a.119.119,0,0,1,.119-.119h.743a.119.119,0,0,0,.119-.119v-.265a.119.119,0,0,1,.119-.119h.007a.119.119,0,0,1,.119.119v.768a.119.119,0,0,0,.119.119h.007a.119.119,0,0,0,.119-.119v-.768a.119.119,0,0,1,.119-.119h.007a.119.119,0,0,1,.119.119v.768a.119.119,0,0,0,.119.119h.01a.119.119,0,0,0,.119-.119v-.768a.119.119,0,0,1,.119-.119h0a.119.119,0,0,1,.119.119v1.014a.119.119,0,0,1-.119.119H3.562a.119.119,0,0,1-.119-.119v-.259a.119.119,0,0,0-.119-.119h-.5a.119.119,0,0,0-.119.119v.013a.119.119,0,0,0,.119.119h.252a.119.119,0,0,1,.119.119v.007A.12.12,0,0,1,3.078,180.855Z"
                  transform="translate(0 -179.603)" fill="#eef0f6"/>
            <path d="M57.349,180.855h.01a.119.119,0,0,0,.119-.119v-.258a.119.119,0,0,1,.119-.119h.494a.119.119,0,0,1,.119.119v.258a.119.119,0,0,0,.119.119h.988a.119.119,0,0,0,.119-.119v-.51a.119.119,0,0,0-.119-.119h-.5a.119.119,0,0,0-.119.119v.013a.119.119,0,0,0,.119.119h.252a.119.119,0,0,1,.119.119v.013a.119.119,0,0,1-.119.119h-.5a.119.119,0,0,1-.119-.119v-.265a.119.119,0,0,0-.119-.119h-.988a.119.119,0,0,0-.119.119v.51A.119.119,0,0,0,57.349,180.855Zm.491,0h.007a.119.119,0,0,0,.119-.119v-.007a.119.119,0,0,0-.119-.119H57.84a.119.119,0,0,0-.119.119v.007A.119.119,0,0,0,57.84,180.855Zm-.491-1H60.3a.119.119,0,0,0,.119-.119v-.013a.119.119,0,0,0-.119-.119H57.349a.119.119,0,0,0-.119.119v.013A.119.119,0,0,0,57.349,179.855Zm2.955,1h-.5a.119.119,0,0,1-.119-.119v-.51a.119.119,0,0,1,.119-.119h.743a.119.119,0,0,0,.119-.119v-.265a.119.119,0,0,1,.119-.119h.01a.119.119,0,0,1,.119.119v.768a.119.119,0,0,0,.119.119h.01a.119.119,0,0,0,.119-.119v-.768a.119.119,0,0,1,.119-.119h0a.119.119,0,0,1,.119.119v.768a.119.119,0,0,0,.119.119h.01a.119.119,0,0,0,.119-.119v-.768a.119.119,0,0,1,.119-.119h.007a.119.119,0,0,1,.119.119v1.014a.119.119,0,0,1-.119.119h-.995a.119.119,0,0,1-.119-.119v-.259a.119.119,0,0,0-.119-.119h-.494a.119.119,0,0,0-.119.119v.013a.119.119,0,0,0,.119.119H60.3a.119.119,0,0,1,.119.119v.007A.12.12,0,0,1,60.3,180.855Z"
                  transform="translate(-52.312 -179.603)" fill="#eef0f6"/>
            <path d="M114.545,180.855h.007a.119.119,0,0,0,.119-.119v-.258a.119.119,0,0,1,.119-.119h.5a.119.119,0,0,1,.119.119v.258a.119.119,0,0,0,.119.119h.992a.119.119,0,0,0,.119-.119v-.51a.119.119,0,0,0-.119-.119h-.5a.119.119,0,0,0-.119.119v.013a.119.119,0,0,0,.119.119h.252a.119.119,0,0,1,.119.119v.013a.119.119,0,0,1-.119.119h-.5a.119.119,0,0,1-.119-.119v-.265a.119.119,0,0,0-.119-.119h-.988a.119.119,0,0,0-.119.119v.51A.119.119,0,0,0,114.545,180.855Zm.491,0h.007a.119.119,0,0,0,.119-.119v-.007a.119.119,0,0,0-.119-.119h-.007a.119.119,0,0,0-.119.119v.007A.119.119,0,0,0,115.036,180.855Zm-.491-1H117.5a.119.119,0,0,0,.119-.119v-.013a.119.119,0,0,0-.119-.119h-2.958a.119.119,0,0,0-.119.119v.013A.119.119,0,0,0,114.545,179.855Zm2.958,1H117a.119.119,0,0,1-.119-.119v-.51a.119.119,0,0,1,.119-.119h.743a.119.119,0,0,0,.119-.119v-.265a.119.119,0,0,1,.119-.119h.007a.119.119,0,0,1,.119.119v.768a.119.119,0,0,0,.119.119h.01a.119.119,0,0,0,.119-.119v-.768a.119.119,0,0,1,.119-.119h.01a.119.119,0,0,1,.119.119v.768a.119.119,0,0,0,.119.119h0a.119.119,0,0,0,.119-.119v-.768a.119.119,0,0,1,.119-.119h.007a.119.119,0,0,1,.119.119v1.014a.119.119,0,0,1-.119.119h-.992a.119.119,0,0,1-.119-.119v-.259a.119.119,0,0,0-.119-.119h-.5a.119.119,0,0,0-.119.119v.013a.119.119,0,0,0,.119.119h.256a.119.119,0,0,1,.119.119v.007A.119.119,0,0,1,117.5,180.855Z"
                  transform="translate(-104.593 -179.603)" fill="#eef0f6"/>
            <path d="M171.737,180.855h.007a.119.119,0,0,0,.119-.119v-.258a.119.119,0,0,1,.119-.119h.5a.119.119,0,0,1,.119.119v.258a.119.119,0,0,0,.119.119h.992a.119.119,0,0,0,.119-.119v-.51a.119.119,0,0,0-.119-.119h-.5a.119.119,0,0,0-.119.119v.013a.119.119,0,0,0,.119.119h.252a.119.119,0,0,1,.119.119v.013a.119.119,0,0,1-.119.119h-.5a.119.119,0,0,1-.119-.119v-.265a.119.119,0,0,0-.119-.119h-.988a.119.119,0,0,0-.119.119v.51A.12.12,0,0,0,171.737,180.855Zm.491,0h.007a.119.119,0,0,0,.119-.119v-.007a.119.119,0,0,0-.119-.119h-.007a.119.119,0,0,0-.119.119v.007A.119.119,0,0,0,172.228,180.855Zm-.491-1h2.955a.119.119,0,0,0,.119-.119v-.013a.119.119,0,0,0-.119-.119h-2.955a.119.119,0,0,0-.119.119v.013A.119.119,0,0,0,171.737,179.855Zm2.955,1h-.5a.119.119,0,0,1-.119-.119v-.51a.119.119,0,0,1,.119-.119h.749a.119.119,0,0,0,.119-.119v-.265a.119.119,0,0,1,.119-.119h.007a.119.119,0,0,1,.119.119v.768a.119.119,0,0,0,.119.119h0a.119.119,0,0,0,.119-.119v-.768a.119.119,0,0,1,.119-.119h.01a.119.119,0,0,1,.119.119v.768a.119.119,0,0,0,.119.119h.007a.119.119,0,0,0,.119-.119v-.768a.119.119,0,0,1,.119-.119h.007a.119.119,0,0,1,.119.119v1.014a.119.119,0,0,1-.119.119h-.988a.119.119,0,0,1-.119-.119v-.259a.119.119,0,0,0-.119-.119h-.5a.119.119,0,0,0-.119.119v.013a.119.119,0,0,0,.119.119h.252a.119.119,0,0,1,.119.119v.007A.119.119,0,0,1,174.693,180.855Z"
                  transform="translate(-156.87 -179.603)" fill="#eef0f6"/>
            <path d="M228.929,180.855h.007a.119.119,0,0,0,.119-.119v-.258a.119.119,0,0,1,.119-.119h.5a.119.119,0,0,1,.119.119v.258a.119.119,0,0,0,.119.119h.992a.119.119,0,0,0,.119-.119v-.51a.119.119,0,0,0-.119-.119h-.5a.119.119,0,0,0-.119.119v.013a.119.119,0,0,0,.119.119h.255a.119.119,0,0,1,.119.119v.013a.119.119,0,0,1-.119.119h-.5a.119.119,0,0,1-.119-.119v-.265a.119.119,0,0,0-.119-.119h-.992a.119.119,0,0,0-.119.119v.51A.12.12,0,0,0,228.929,180.855Zm.494,0h0a.119.119,0,0,0,.119-.119v-.007a.119.119,0,0,0-.119-.119h0a.119.119,0,0,0-.119.119v.007A.119.119,0,0,0,229.423,180.855Zm-.494-1h2.958a.119.119,0,0,0,.119-.119v-.013a.119.119,0,0,0-.119-.119h-2.958a.119.119,0,0,0-.119.119v.013A.119.119,0,0,0,228.929,179.855Zm2.958,1h-.5a.119.119,0,0,1-.119-.119v-.51a.119.119,0,0,1,.119-.119h.746a.119.119,0,0,0,.119-.119v-.265a.119.119,0,0,1,.119-.119h.007a.119.119,0,0,1,.119.119v.768a.119.119,0,0,0,.119.119h.007a.119.119,0,0,0,.119-.119v-.768a.119.119,0,0,1,.119-.119h.007a.119.119,0,0,1,.119.119v.768a.119.119,0,0,0,.119.119h.007a.119.119,0,0,0,.119-.119v-.768a.119.119,0,0,1,.119-.119h.007a.119.119,0,0,1,.119.119v1.014a.119.119,0,0,1-.119.119h-.988a.119.119,0,0,1-.119-.119v-.259a.119.119,0,0,0-.119-.119h-.5a.119.119,0,0,0-.119.119v.013a.119.119,0,0,0,.119.119h.255a.119.119,0,0,1,.119.119v.007A.119.119,0,0,1,231.887,180.855Z"
                  transform="translate(-209.146 -179.603)" fill="#eef0f6"/>
            <path d="M286.125,180.855h.007a.119.119,0,0,0,.119-.119v-.258a.119.119,0,0,1,.119-.119h.5a.119.119,0,0,1,.119.119v.258a.119.119,0,0,0,.119.119h.992a.119.119,0,0,0,.119-.119v-.51a.119.119,0,0,0-.119-.119h-.5a.119.119,0,0,0-.119.119v.013a.119.119,0,0,0,.119.119h.249a.119.119,0,0,1,.119.119v.013a.119.119,0,0,1-.119.119h-.494a.119.119,0,0,1-.119-.119v-.265a.119.119,0,0,0-.119-.119h-.992a.119.119,0,0,0-.119.119v.51A.119.119,0,0,0,286.125,180.855Zm.494,0h0a.119.119,0,0,0,.119-.119v-.007a.119.119,0,0,0-.119-.119h0a.119.119,0,0,0-.119.119v.007A.119.119,0,0,0,286.619,180.855Zm-.494-1h2.958a.119.119,0,0,0,.119-.119v-.013a.119.119,0,0,0-.119-.119h-2.958a.119.119,0,0,0-.119.119v.013A.119.119,0,0,0,286.125,179.855Zm2.958,1h-.5a.119.119,0,0,1-.119-.119v-.51a.119.119,0,0,1,.119-.119h.743a.119.119,0,0,0,.119-.119v-.265a.119.119,0,0,1,.119-.119h.007a.119.119,0,0,1,.119.119v.768a.119.119,0,0,0,.119.119h.007a.119.119,0,0,0,.119-.119v-.768a.119.119,0,0,1,.119-.119h.007a.119.119,0,0,1,.119.119v.768a.119.119,0,0,0,.119.119h.007a.119.119,0,0,0,.119-.119v-.768a.119.119,0,0,1,.119-.119h.007a.119.119,0,0,1,.119.119v1.014a.119.119,0,0,1-.119.119h-.989a.119.119,0,0,1-.119-.119v-.259a.119.119,0,0,0-.119-.119h-.5a.119.119,0,0,0-.119.119v.013a.119.119,0,0,0,.119.119h.255a.119.119,0,0,1,.119.119v.007A.119.119,0,0,1,289.084,180.855Z"
                  transform="translate(-261.427 -179.603)" fill="#eef0f6"/>
            <path d="M343.319,180.855h.007a.119.119,0,0,0,.119-.119v-.258a.119.119,0,0,1,.119-.119h.5a.119.119,0,0,1,.119.119v.258a.119.119,0,0,0,.119.119h.989a.119.119,0,0,0,.119-.119v-.51a.119.119,0,0,0-.119-.119h-.5a.119.119,0,0,0-.119.119v.013a.119.119,0,0,0,.119.119h.256a.119.119,0,0,1,.119.119v.013a.119.119,0,0,1-.119.119h-.5a.119.119,0,0,1-.119-.119v-.265a.119.119,0,0,0-.119-.119h-.988a.119.119,0,0,0-.119.119v.51A.119.119,0,0,0,343.319,180.855Zm.491,0h.01a.119.119,0,0,0,.119-.119v-.007a.119.119,0,0,0-.119-.119h-.01a.119.119,0,0,0-.119.119v.007A.119.119,0,0,0,343.81,180.855Zm-.491-1h2.958a.119.119,0,0,0,.119-.119v-.013a.119.119,0,0,0-.119-.119h-2.958a.119.119,0,0,0-.119.119v.013A.119.119,0,0,0,343.319,179.855Zm2.958,1h-.5a.119.119,0,0,1-.119-.119v-.51a.119.119,0,0,1,.119-.119h.743a.119.119,0,0,0,.119-.119v-.265a.119.119,0,0,1,.119-.119h.007a.119.119,0,0,1,.119.119v.768a.119.119,0,0,0,.119.119h.007a.119.119,0,0,0,.119-.119v-.768a.119.119,0,0,1,.119-.119h.007a.119.119,0,0,1,.119.119v.768a.119.119,0,0,0,.119.119h.01a.119.119,0,0,0,.119-.119v-.768a.119.119,0,0,1,.119-.119h0a.119.119,0,0,1,.119.119v1.014a.119.119,0,0,1-.119.119h-.988a.119.119,0,0,1-.119-.119v-.259a.119.119,0,0,0-.119-.119h-.494a.119.119,0,0,0-.119.119v.013a.119.119,0,0,0,.119.119h.249a.119.119,0,0,1,.119.119v.007A.119.119,0,0,1,346.278,180.855Z"
                  transform="translate(-313.706 -179.603)" fill="#eef0f6"/>
            <path d="M400.55,180.855h0a.119.119,0,0,0,.119-.119v-.258a.119.119,0,0,1,.119-.119h.5a.119.119,0,0,1,.119.119v.258a.119.119,0,0,0,.119.119h.992a.119.119,0,0,0,.119-.119v-.51a.119.119,0,0,0-.119-.119h-.494a.119.119,0,0,0-.119.119v.013a.119.119,0,0,0,.119.119h.252a.119.119,0,0,1,.119.119v.013a.119.119,0,0,1-.119.119h-.5a.119.119,0,0,1-.119-.119v-.265a.119.119,0,0,0-.119-.119h-.989a.119.119,0,0,0-.119.119v.51A.119.119,0,0,0,400.55,180.855Zm.491,0h.007a.119.119,0,0,0,.119-.119v-.007a.119.119,0,0,0-.119-.119h-.007a.119.119,0,0,0-.119.119v.007A.119.119,0,0,0,401.041,180.855Zm-.491-1h2.962a.119.119,0,0,0,.119-.119v-.013a.119.119,0,0,0-.119-.119H400.55a.119.119,0,0,0-.119.119v.013A.119.119,0,0,0,400.55,179.855Zm2.961,1h-.5a.119.119,0,0,1-.119-.119v-.51a.119.119,0,0,1,.119-.119h.743a.119.119,0,0,0,.119-.119v-.265a.119.119,0,0,1,.119-.119H404a.119.119,0,0,1,.119.119v.768a.119.119,0,0,0,.119.119h.007a.119.119,0,0,0,.119-.119v-.768a.119.119,0,0,1,.119-.119h0a.119.119,0,0,1,.119.119v.768a.119.119,0,0,0,.119.119h.01a.119.119,0,0,0,.119-.119v-.768a.119.119,0,0,1,.119-.119h.007a.119.119,0,0,1,.119.119v1.014a.119.119,0,0,1-.119.119h-.992a.119.119,0,0,1-.119-.119v-.259a.119.119,0,0,0-.119-.119h-.5a.119.119,0,0,0-.119.119v.013a.119.119,0,0,0,.119.119h.258a.119.119,0,0,1,.119.119v.007A.119.119,0,0,1,403.512,180.855Z"
                  transform="translate(-366.019 -179.603)" fill="#eef0f6"/>
            <path d="M457.743,180.855h.007a.119.119,0,0,0,.119-.119v-.258a.119.119,0,0,1,.119-.119h.5a.119.119,0,0,1,.119.119v.258a.119.119,0,0,0,.119.119h.992a.119.119,0,0,0,.119-.119v-.51a.119.119,0,0,0-.119-.119h-.495a.119.119,0,0,0-.119.119v.013a.119.119,0,0,0,.119.119h.252a.119.119,0,0,1,.119.119v.013a.119.119,0,0,1-.119.119h-.5a.119.119,0,0,1-.119-.119v-.265a.119.119,0,0,0-.119-.119h-.988a.119.119,0,0,0-.119.119v.51A.119.119,0,0,0,457.743,180.855Zm.491,0h.007a.119.119,0,0,0,.119-.119v-.007a.119.119,0,0,0-.119-.119h-.007a.119.119,0,0,0-.119.119v.007A.119.119,0,0,0,458.234,180.855Zm-.491-1H460.7a.119.119,0,0,0,.119-.119v-.013a.119.119,0,0,0-.119-.119h-2.955a.119.119,0,0,0-.119.119v.013A.119.119,0,0,0,457.743,179.855Zm2.955,1h-.5a.119.119,0,0,1-.119-.119v-.51a.119.119,0,0,1,.119-.119h.749a.119.119,0,0,0,.119-.119v-.265a.119.119,0,0,1,.119-.119h0a.119.119,0,0,1,.119.119v.768a.119.119,0,0,0,.119.119h.013a.119.119,0,0,0,.119-.119v-.768a.119.119,0,0,1,.119-.119h0a.119.119,0,0,1,.119.119v.768a.119.119,0,0,0,.119.119h.007a.119.119,0,0,0,.119-.119v-.768a.119.119,0,0,1,.119-.119h.013a.119.119,0,0,1,.119.119v1.014a.119.119,0,0,1-.119.119h-.988a.119.119,0,0,1-.119-.119v-.259a.119.119,0,0,0-.119-.119h-.5a.119.119,0,0,0-.119.119v.013a.119.119,0,0,0,.119.119h.252a.119.119,0,0,1,.119.119v.007A.119.119,0,0,1,460.7,180.855Z"
                  transform="translate(-418.297 -179.603)" fill="#eef0f6"/>
            <path d="M.119,197.681H2.093a.119.119,0,0,0,.119-.119V197.3a.119.119,0,0,0-.119-.119H.119A.119.119,0,0,0,0,197.3v.265A.119.119,0,0,0,.119,197.681Zm2.461,0H4.55a.119.119,0,0,0,.119-.119V197.3a.119.119,0,0,0-.119-.119H2.58a.119.119,0,0,0-.119.119v.265A.119.119,0,0,0,2.58,197.681Z"
                  transform="translate(0 -195.668)" fill="#eef0f6"/>
            <path d="M57.349,197.681h1.97a.119.119,0,0,0,.119-.119V197.3a.119.119,0,0,0-.119-.119h-1.97a.119.119,0,0,0-.119.119v.265A.119.119,0,0,0,57.349,197.681Zm2.454,0H61.78a.119.119,0,0,0,.119-.119V197.3a.119.119,0,0,0-.119-.119H59.8a.119.119,0,0,0-.119.119v.265A.119.119,0,0,0,59.8,197.681Z"
                  transform="translate(-52.312 -195.668)" fill="#eef0f6"/>
            <path d="M114.545,197.681h1.973a.119.119,0,0,0,.119-.119V197.3a.119.119,0,0,0-.119-.119h-1.973a.119.119,0,0,0-.119.119v.265A.119.119,0,0,0,114.545,197.681Zm2.457,0h1.973a.119.119,0,0,0,.119-.119V197.3a.119.119,0,0,0-.119-.119H117a.119.119,0,0,0-.119.119v.265A.119.119,0,0,0,117,197.681Z"
                  transform="translate(-104.593 -195.668)" fill="#eef0f6"/>
            <path d="M171.737,197.681h1.973a.119.119,0,0,0,.119-.119V197.3a.119.119,0,0,0-.119-.119h-1.973a.119.119,0,0,0-.119.119v.265A.119.119,0,0,0,171.737,197.681Zm2.454,0h1.977a.119.119,0,0,0,.119-.119V197.3a.119.119,0,0,0-.119-.119h-1.977a.119.119,0,0,0-.119.119v.265A.119.119,0,0,0,174.192,197.681Z"
                  transform="translate(-156.87 -195.668)" fill="#eef0f6"/>
            <path d="M228.93,197.681H230.9a.119.119,0,0,0,.119-.119V197.3a.119.119,0,0,0-.119-.119H228.93a.119.119,0,0,0-.119.119v.265A.119.119,0,0,0,228.93,197.681Zm2.458,0h1.974a.119.119,0,0,0,.119-.119V197.3a.119.119,0,0,0-.119-.119h-1.974a.119.119,0,0,0-.119.119v.265A.119.119,0,0,0,231.388,197.681Z"
                  transform="translate(-209.148 -195.668)" fill="#eef0f6"/>
            <path d="M286.125,197.681H288.1a.119.119,0,0,0,.119-.119V197.3a.119.119,0,0,0-.119-.119h-1.974a.119.119,0,0,0-.119.119v.265A.119.119,0,0,0,286.125,197.681Zm2.461,0h1.97a.119.119,0,0,0,.119-.119V197.3a.119.119,0,0,0-.119-.119h-1.97a.119.119,0,0,0-.119.119v.265A.119.119,0,0,0,288.586,197.681Z"
                  transform="translate(-261.427 -195.668)" fill="#eef0f6"/>
            <path d="M343.319,197.681h1.974a.119.119,0,0,0,.119-.119V197.3a.119.119,0,0,0-.119-.119h-1.974a.119.119,0,0,0-.119.119v.265A.119.119,0,0,0,343.319,197.681Zm2.461,0h1.97a.119.119,0,0,0,.119-.119V197.3a.119.119,0,0,0-.119-.119h-1.97a.119.119,0,0,0-.119.119v.265A.119.119,0,0,0,345.78,197.681Z"
                  transform="translate(-313.706 -195.668)" fill="#eef0f6"/>
            <path d="M400.55,197.681h1.97a.119.119,0,0,0,.119-.119V197.3a.119.119,0,0,0-.119-.119h-1.97a.119.119,0,0,0-.119.119v.265A.119.119,0,0,0,400.55,197.681Zm2.458,0h1.974a.119.119,0,0,0,.119-.119V197.3a.119.119,0,0,0-.119-.119h-1.974a.119.119,0,0,0-.119.119v.265A.119.119,0,0,0,403.008,197.681Z"
                  transform="translate(-366.019 -195.668)" fill="#eef0f6"/>
            <path d="M457.743,197.681h1.974a.119.119,0,0,0,.119-.119V197.3a.119.119,0,0,0-.119-.119h-1.974a.119.119,0,0,0-.119.119v.265A.119.119,0,0,0,457.743,197.681Zm2.458,0h1.977a.119.119,0,0,0,.119-.119V197.3a.119.119,0,0,0-.119-.119H460.2a.119.119,0,0,0-.119.119v.265A.119.119,0,0,0,460.2,197.681Z"
                  transform="translate(-418.297 -195.668)" fill="#eef0f6"/>
            <path d="M462.216,317.826h-.007a.119.119,0,0,0-.119.119v.258a.119.119,0,0,1-.119.119h-.5a.119.119,0,0,1-.119-.119v-.258a.119.119,0,0,0-.119-.119h-.988a.119.119,0,0,0-.119.119v.51a.119.119,0,0,0,.119.119h.5a.119.119,0,0,0,.119-.119v-.013a.119.119,0,0,0-.119-.119h-.252a.119.119,0,0,1-.119-.119v-.013a.119.119,0,0,1,.119-.119h.5a.119.119,0,0,1,.119.119v.265a.119.119,0,0,0,.119.119h.992a.119.119,0,0,0,.119-.119v-.51A.12.12,0,0,0,462.216,317.826Zm-.494,0h-.007a.119.119,0,0,0-.119.119v.007a.119.119,0,0,0,.119.119h.007a.119.119,0,0,0,.119-.119v-.007A.119.119,0,0,0,461.722,317.826Zm.494,1h-2.958a.119.119,0,0,0-.119.119v.013a.119.119,0,0,0,.119.119h2.958a.119.119,0,0,0,.119-.119v-.013A.119.119,0,0,0,462.216,318.827Zm-2.958-1h.5a.119.119,0,0,1,.119.119v.51a.119.119,0,0,1-.119.119h-.743a.119.119,0,0,0-.119.119v.265a.119.119,0,0,1-.119.119h-.007a.119.119,0,0,1-.119-.119v-.768a.119.119,0,0,0-.119-.119h-.007a.119.119,0,0,0-.119.119v.768a.119.119,0,0,1-.119.119h-.007a.119.119,0,0,1-.119-.119v-.768a.119.119,0,0,0-.119-.119h-.01a.119.119,0,0,0-.119.119v.768a.119.119,0,0,1-.119.119h0a.119.119,0,0,1-.119-.119v-1.014a.119.119,0,0,1,.119-.119h.988a.119.119,0,0,1,.119.119v.258a.119.119,0,0,0,.119.119h.5a.119.119,0,0,0,.119-.119v-.013a.119.119,0,0,0-.119-.119h-.252a.119.119,0,0,1-.119-.119v-.007A.119.119,0,0,1,459.258,317.826Z"
                  transform="translate(-418.335 -305.947)" fill="#eef0f6"/>
            <path d="M404.984,317.826h-.01a.119.119,0,0,0-.119.119v.258a.119.119,0,0,1-.119.119h-.494a.119.119,0,0,1-.119-.119v-.258a.119.119,0,0,0-.119-.119h-.988a.119.119,0,0,0-.119.119v.51a.119.119,0,0,0,.119.119h.5a.119.119,0,0,0,.119-.119v-.013a.119.119,0,0,0-.119-.119h-.252a.119.119,0,0,1-.119-.119v-.013a.119.119,0,0,1,.119-.119h.5a.119.119,0,0,1,.119.119v.265a.119.119,0,0,0,.119.119h.988a.119.119,0,0,0,.119-.119v-.51A.12.12,0,0,0,404.984,317.826Zm-.491,0h-.007a.119.119,0,0,0-.119.119v.007a.119.119,0,0,0,.119.119h.007a.119.119,0,0,0,.119-.119v-.007A.119.119,0,0,0,404.493,317.826Zm.491,1h-2.955a.119.119,0,0,0-.119.119v.013a.119.119,0,0,0,.119.119h2.955a.119.119,0,0,0,.119-.119v-.013A.119.119,0,0,0,404.984,318.827Zm-2.955-1h.5a.119.119,0,0,1,.119.119v.51a.119.119,0,0,1-.119.119h-.743a.119.119,0,0,0-.119.119v.265a.119.119,0,0,1-.119.119h-.01a.119.119,0,0,1-.119-.119v-.768a.119.119,0,0,0-.119-.119h-.01a.119.119,0,0,0-.119.119v.768a.119.119,0,0,1-.119.119h0a.119.119,0,0,1-.119-.119v-.768a.119.119,0,0,0-.119-.119h-.01a.119.119,0,0,0-.119.119v.768a.119.119,0,0,1-.119.119h-.007a.119.119,0,0,1-.119-.119v-1.014a.119.119,0,0,1,.119-.119h.995a.119.119,0,0,1,.119.119v.258a.119.119,0,0,0,.119.119h.494a.119.119,0,0,0,.119-.119v-.013a.119.119,0,0,0-.119-.119h-.252a.119.119,0,0,1-.119-.119v-.007A.119.119,0,0,1,402.029,317.826Z"
                  transform="translate(-366.022 -305.947)" fill="#eef0f6"/>
            <path d="M347.79,317.826h-.007a.119.119,0,0,0-.119.119v.258a.119.119,0,0,1-.119.119h-.5a.119.119,0,0,1-.119-.119v-.258a.119.119,0,0,0-.119-.119h-.992a.119.119,0,0,0-.119.119v.51a.119.119,0,0,0,.119.119h.5a.119.119,0,0,0,.119-.119v-.013a.119.119,0,0,0-.119-.119h-.252a.119.119,0,0,1-.119-.119v-.013a.119.119,0,0,1,.119-.119h.5a.119.119,0,0,1,.119.119v.265a.119.119,0,0,0,.119.119h.988a.119.119,0,0,0,.119-.119v-.51A.119.119,0,0,0,347.79,317.826Zm-.491,0h-.007a.119.119,0,0,0-.119.119v.007a.119.119,0,0,0,.119.119h.007a.119.119,0,0,0,.119-.119v-.007A.119.119,0,0,0,347.3,317.826Zm.491,1h-2.958a.119.119,0,0,0-.119.119v.013a.119.119,0,0,0,.119.119h2.958a.119.119,0,0,0,.119-.119v-.013A.119.119,0,0,0,347.79,318.827Zm-2.958-1h.5a.119.119,0,0,1,.119.119v.51a.119.119,0,0,1-.119.119h-.743a.119.119,0,0,0-.119.119v.265a.119.119,0,0,1-.119.119h-.007a.119.119,0,0,1-.119-.119v-.768a.119.119,0,0,0-.119-.119h-.01a.119.119,0,0,0-.119.119v.768a.119.119,0,0,1-.119.119h-.01a.119.119,0,0,1-.119-.119v-.768a.119.119,0,0,0-.119-.119h0a.119.119,0,0,0-.119.119v.768a.119.119,0,0,1-.119.119h-.007a.119.119,0,0,1-.119-.119v-1.014a.119.119,0,0,1,.119-.119h.992a.119.119,0,0,1,.119.119v.258a.119.119,0,0,0,.119.119h.5a.119.119,0,0,0,.119-.119v-.013a.119.119,0,0,0-.119-.119h-.256a.119.119,0,0,1-.119-.119v-.007A.119.119,0,0,1,344.832,317.826Z"
                  transform="translate(-313.743 -305.947)" fill="#eef0f6"/>
            <path d="M290.6,317.826h-.007a.119.119,0,0,0-.119.119v.258a.119.119,0,0,1-.119.119h-.5a.119.119,0,0,1-.119-.119v-.258a.119.119,0,0,0-.119-.119h-.992a.119.119,0,0,0-.119.119v.51a.119.119,0,0,0,.119.119h.5a.119.119,0,0,0,.119-.119v-.013a.119.119,0,0,0-.119-.119h-.252a.119.119,0,0,1-.119-.119v-.013a.119.119,0,0,1,.119-.119h.5a.119.119,0,0,1,.119.119v.265a.119.119,0,0,0,.119.119h.988a.119.119,0,0,0,.119-.119v-.51A.119.119,0,0,0,290.6,317.826Zm-.491,0H290.1a.119.119,0,0,0-.119.119v.007a.119.119,0,0,0,.119.119h.007a.119.119,0,0,0,.119-.119v-.007A.119.119,0,0,0,290.1,317.826Zm.491,1H287.64a.119.119,0,0,0-.119.119v.013a.119.119,0,0,0,.119.119H290.6a.119.119,0,0,0,.119-.119v-.013A.119.119,0,0,0,290.6,318.827Zm-2.955-1h.5a.119.119,0,0,1,.119.119v.51a.119.119,0,0,1-.119.119h-.749a.119.119,0,0,0-.119.119v.265a.119.119,0,0,1-.119.119h-.007a.119.119,0,0,1-.119-.119v-.768a.119.119,0,0,0-.119-.119h0a.119.119,0,0,0-.119.119v.768a.119.119,0,0,1-.119.119h-.01a.119.119,0,0,1-.119-.119v-.768a.119.119,0,0,0-.119-.119h-.007a.119.119,0,0,0-.119.119v.768a.119.119,0,0,1-.119.119h-.007a.119.119,0,0,1-.119-.119v-1.014a.119.119,0,0,1,.119-.119h.988a.119.119,0,0,1,.119.119v.258a.119.119,0,0,0,.119.119h.5a.119.119,0,0,0,.119-.119v-.013a.119.119,0,0,0-.119-.119h-.252a.119.119,0,0,1-.119-.119v-.007A.119.119,0,0,1,287.64,317.826Z"
                  transform="translate(-261.463 -305.947)" fill="#eef0f6"/>
            <path d="M233.4,317.826H233.4a.119.119,0,0,0-.119.119v.258a.119.119,0,0,1-.119.119h-.5a.119.119,0,0,1-.119-.119v-.258a.119.119,0,0,0-.119-.119h-.992a.119.119,0,0,0-.119.119v.51a.119.119,0,0,0,.119.119h.5a.119.119,0,0,0,.119-.119v-.013a.119.119,0,0,0-.119-.119h-.255a.119.119,0,0,1-.119-.119v-.013a.119.119,0,0,1,.119-.119h.5a.119.119,0,0,1,.119.119v.265a.119.119,0,0,0,.119.119h.992a.119.119,0,0,0,.119-.119v-.51A.12.12,0,0,0,233.4,317.826Zm-.494,0h0a.119.119,0,0,0-.119.119v.007a.119.119,0,0,0,.119.119h0a.119.119,0,0,0,.119-.119v-.007A.119.119,0,0,0,232.91,317.826Zm.494,1h-2.958a.119.119,0,0,0-.119.119v.013a.119.119,0,0,0,.119.119H233.4a.119.119,0,0,0,.119-.119v-.013A.119.119,0,0,0,233.4,318.827Zm-2.958-1h.5a.119.119,0,0,1,.119.119v.51a.119.119,0,0,1-.119.119H230.2a.119.119,0,0,0-.119.119v.265a.119.119,0,0,1-.119.119h-.007a.119.119,0,0,1-.119-.119v-.768a.119.119,0,0,0-.119-.119h-.007a.119.119,0,0,0-.119.119v.768a.119.119,0,0,1-.119.119h-.007a.119.119,0,0,1-.119-.119v-.768a.119.119,0,0,0-.119-.119h-.007a.119.119,0,0,0-.119.119v.768a.119.119,0,0,1-.119.119h-.007a.119.119,0,0,1-.119-.119v-1.014a.119.119,0,0,1,.119-.119h.988a.119.119,0,0,1,.119.119v.258a.119.119,0,0,0,.119.119h.5a.119.119,0,0,0,.119-.119v-.013a.119.119,0,0,0-.119-.119h-.255a.119.119,0,0,1-.119-.119v-.007A.119.119,0,0,1,230.446,317.826Z"
                  transform="translate(-209.187 -305.947)" fill="#eef0f6"/>
            <path d="M176.209,317.826H176.2a.119.119,0,0,0-.119.119v.258a.119.119,0,0,1-.119.119h-.5a.119.119,0,0,1-.119-.119v-.258a.119.119,0,0,0-.119-.119h-.992a.119.119,0,0,0-.119.119v.51a.119.119,0,0,0,.119.119h.5a.119.119,0,0,0,.119-.119v-.013a.119.119,0,0,0-.119-.119h-.249a.119.119,0,0,1-.119-.119v-.013a.119.119,0,0,1,.119-.119h.494a.119.119,0,0,1,.119.119v.265a.119.119,0,0,0,.119.119h.992a.119.119,0,0,0,.119-.119v-.51A.12.12,0,0,0,176.209,317.826Zm-.494,0h0a.119.119,0,0,0-.119.119v.007a.119.119,0,0,0,.119.119h0a.119.119,0,0,0,.119-.119v-.007A.119.119,0,0,0,175.715,317.826Zm.494,1h-2.958a.119.119,0,0,0-.119.119v.013a.119.119,0,0,0,.119.119h2.958a.119.119,0,0,0,.119-.119v-.013A.119.119,0,0,0,176.209,318.827Zm-2.958-1h.5a.119.119,0,0,1,.119.119v.51a.119.119,0,0,1-.119.119h-.743a.119.119,0,0,0-.119.119v.265a.119.119,0,0,1-.119.119h-.007a.119.119,0,0,1-.119-.119v-.768a.119.119,0,0,0-.119-.119h-.007a.119.119,0,0,0-.119.119v.768a.119.119,0,0,1-.119.119h-.007a.119.119,0,0,1-.119-.119v-.768a.119.119,0,0,0-.119-.119h-.007a.119.119,0,0,0-.119.119v.768a.119.119,0,0,1-.119.119h-.007a.119.119,0,0,1-.119-.119v-1.014a.119.119,0,0,1,.119-.119h.989a.119.119,0,0,1,.119.119v.258a.119.119,0,0,0,.119.119h.5a.119.119,0,0,0,.119-.119v-.013a.119.119,0,0,0-.119-.119h-.255a.119.119,0,0,1-.119-.119v-.007A.119.119,0,0,1,173.251,317.826Z"
                  transform="translate(-156.907 -305.947)" fill="#eef0f6"/>
            <path d="M119.014,317.826h-.007a.119.119,0,0,0-.119.119v.258a.119.119,0,0,1-.119.119h-.5a.119.119,0,0,1-.119-.119v-.258a.119.119,0,0,0-.119-.119h-.989a.119.119,0,0,0-.119.119v.51a.119.119,0,0,0,.119.119h.5a.119.119,0,0,0,.119-.119v-.013a.119.119,0,0,0-.119-.119h-.255a.119.119,0,0,1-.119-.119v-.013a.119.119,0,0,1,.119-.119h.5a.119.119,0,0,1,.119.119v.265a.119.119,0,0,0,.119.119h.988a.119.119,0,0,0,.119-.119v-.51A.119.119,0,0,0,119.014,317.826Zm-.491,0h-.01a.119.119,0,0,0-.119.119v.007a.119.119,0,0,0,.119.119h.01a.119.119,0,0,0,.119-.119v-.007A.119.119,0,0,0,118.523,317.826Zm.491,1h-2.958a.119.119,0,0,0-.119.119v.013a.119.119,0,0,0,.119.119h2.958a.119.119,0,0,0,.119-.119v-.013A.119.119,0,0,0,119.014,318.827Zm-2.958-1h.5a.119.119,0,0,1,.119.119v.51a.119.119,0,0,1-.119.119h-.743a.119.119,0,0,0-.119.119v.265a.119.119,0,0,1-.119.119h-.007a.119.119,0,0,1-.119-.119v-.768a.119.119,0,0,0-.119-.119h-.007a.119.119,0,0,0-.119.119v.768a.119.119,0,0,1-.119.119h-.007a.119.119,0,0,1-.119-.119v-.768a.119.119,0,0,0-.119-.119h-.01a.119.119,0,0,0-.119.119v.768a.119.119,0,0,1-.119.119h0a.119.119,0,0,1-.119-.119v-1.014a.119.119,0,0,1,.119-.119h.988a.119.119,0,0,1,.119.119v.258a.119.119,0,0,0,.119.119h.494a.119.119,0,0,0,.119-.119v-.013a.119.119,0,0,0-.119-.119h-.249a.119.119,0,0,1-.119-.119v-.007A.119.119,0,0,1,116.056,317.826Z"
                  transform="translate(-104.627 -305.947)" fill="#eef0f6"/>
            <path d="M61.784,317.826h0a.119.119,0,0,0-.119.119v.258a.119.119,0,0,1-.119.119h-.5a.119.119,0,0,1-.119-.119v-.258a.119.119,0,0,0-.119-.119h-.992a.119.119,0,0,0-.119.119v.51a.119.119,0,0,0,.119.119h.494a.119.119,0,0,0,.119-.119v-.013a.119.119,0,0,0-.119-.119h-.252a.119.119,0,0,1-.119-.119v-.013a.119.119,0,0,1,.119-.119h.5a.119.119,0,0,1,.119.119v.265a.119.119,0,0,0,.119.119h.989a.119.119,0,0,0,.119-.119v-.51A.12.12,0,0,0,61.784,317.826Zm-.491,0h-.007a.119.119,0,0,0-.119.119v.007a.119.119,0,0,0,.119.119h.007a.119.119,0,0,0,.119-.119v-.007A.119.119,0,0,0,61.293,317.826Zm.491,1H58.823a.119.119,0,0,0-.119.119v.013a.119.119,0,0,0,.119.119h2.962a.119.119,0,0,0,.119-.119v-.013A.119.119,0,0,0,61.784,318.827Zm-2.961-1h.5a.119.119,0,0,1,.119.119v.51a.119.119,0,0,1-.119.119h-.743a.119.119,0,0,0-.119.119v.265a.119.119,0,0,1-.119.119h-.01a.119.119,0,0,1-.119-.119v-.768a.119.119,0,0,0-.119-.119H58.09a.119.119,0,0,0-.119.119v.768a.119.119,0,0,1-.119.119h0a.119.119,0,0,1-.119-.119v-.768a.119.119,0,0,0-.119-.119H57.6a.119.119,0,0,0-.119.119v.768a.119.119,0,0,1-.119.119h-.007a.119.119,0,0,1-.119-.119v-1.014a.119.119,0,0,1,.119-.119h.992a.119.119,0,0,1,.119.119v.258a.119.119,0,0,0,.119.119h.5a.119.119,0,0,0,.119-.119v-.013a.119.119,0,0,0-.119-.119h-.259a.119.119,0,0,1-.119-.119v-.007A.119.119,0,0,1,58.823,317.826Z"
                  transform="translate(-52.315 -305.947)" fill="#eef0f6"/>
            <path d="M4.553,317.826H4.547a.119.119,0,0,0-.119.119v.258a.119.119,0,0,1-.119.119h-.5a.119.119,0,0,1-.119-.119v-.258a.119.119,0,0,0-.119-.119H2.58a.119.119,0,0,0-.119.119v.51a.119.119,0,0,0,.119.119h.494a.119.119,0,0,0,.119-.119v-.013a.119.119,0,0,0-.119-.119H2.822A.119.119,0,0,1,2.7,318.2v-.013a.119.119,0,0,1,.119-.119h.5a.119.119,0,0,1,.119.119v.265a.119.119,0,0,0,.119.119h.988a.119.119,0,0,0,.119-.119v-.51A.119.119,0,0,0,4.553,317.826Zm-.491,0H4.056a.119.119,0,0,0-.119.119v.007a.119.119,0,0,0,.119.119h.007a.119.119,0,0,0,.119-.119v-.007A.119.119,0,0,0,4.063,317.826Zm.491,1H1.6a.119.119,0,0,0-.119.119v.013a.119.119,0,0,0,.119.119H4.553a.119.119,0,0,0,.119-.119v-.013A.119.119,0,0,0,4.553,318.827Zm-2.955-1h.5a.119.119,0,0,1,.119.119v.51a.119.119,0,0,1-.119.119H1.347a.119.119,0,0,0-.119.119v.265a.119.119,0,0,1-.119.119h0a.119.119,0,0,1-.119-.119v-.768a.119.119,0,0,0-.119-.119H.856a.119.119,0,0,0-.119.119v.768a.119.119,0,0,1-.119.119h0a.119.119,0,0,1-.119-.119v-.768a.119.119,0,0,0-.119-.119H.371a.119.119,0,0,0-.119.119v.768a.119.119,0,0,1-.119.119H.119A.119.119,0,0,1,0,318.959v-1.014a.119.119,0,0,1,.119-.119h.988a.119.119,0,0,1,.119.119v.258a.119.119,0,0,0,.119.119h.5a.119.119,0,0,0,.119-.119v-.013a.119.119,0,0,0-.119-.119H1.6a.119.119,0,0,1-.119-.119v-.007A.119.119,0,0,1,1.6,317.826Z"
                  transform="translate(0 -305.947)" fill="#eef0f6"/>
            <path d="M462.213,308.966H460.24a.119.119,0,0,0-.119.119v.265a.119.119,0,0,0,.119.119h1.973a.119.119,0,0,0,.119-.119v-.265A.119.119,0,0,0,462.213,308.966Zm-2.461,0h-1.97a.119.119,0,0,0-.119.119v.265a.119.119,0,0,0,.119.119h1.97a.119.119,0,0,0,.119-.119v-.265A.119.119,0,0,0,459.753,308.966Z"
                  transform="translate(-418.333 -297.849)" fill="#eef0f6"/>
            <path d="M404.983,308.966h-1.97a.119.119,0,0,0-.119.119v.265a.119.119,0,0,0,.119.119h1.97a.119.119,0,0,0,.119-.119v-.265A.119.119,0,0,0,404.983,308.966Zm-2.454,0h-1.977a.119.119,0,0,0-.119.119v.265a.119.119,0,0,0,.119.119h1.977a.119.119,0,0,0,.119-.119v-.265A.119.119,0,0,0,402.529,308.966Z"
                  transform="translate(-366.021 -297.849)" fill="#eef0f6"/>
            <path d="M347.789,308.966h-1.973a.119.119,0,0,0-.119.119v.265a.119.119,0,0,0,.119.119h1.973a.119.119,0,0,0,.119-.119v-.265A.119.119,0,0,0,347.789,308.966Zm-2.457,0h-1.973a.119.119,0,0,0-.119.119v.265a.119.119,0,0,0,.119.119h1.973a.119.119,0,0,0,.119-.119v-.265A.119.119,0,0,0,345.332,308.966Z"
                  transform="translate(-313.742 -297.849)" fill="#eef0f6"/>
            <path d="M290.593,308.966H288.62a.119.119,0,0,0-.119.119v.265a.119.119,0,0,0,.119.119h1.973a.119.119,0,0,0,.119-.119v-.265A.12.12,0,0,0,290.593,308.966Zm-2.454,0h-1.977a.119.119,0,0,0-.119.119v.265a.119.119,0,0,0,.119.119h1.977a.119.119,0,0,0,.119-.119v-.265A.119.119,0,0,0,288.139,308.966Z"
                  transform="translate(-261.461 -297.849)" fill="#eef0f6"/>
            <path d="M233.4,308.966h-1.974a.119.119,0,0,0-.119.119v.265a.119.119,0,0,0,.119.119H233.4a.119.119,0,0,0,.119-.119v-.265A.119.119,0,0,0,233.4,308.966Zm-2.458,0h-1.974a.119.119,0,0,0-.119.119v.265a.119.119,0,0,0,.119.119h1.974a.119.119,0,0,0,.119-.119v-.265A.119.119,0,0,0,230.942,308.966Z"
                  transform="translate(-209.182 -297.849)" fill="#eef0f6"/>
            <path d="M176.2,308.966h-1.974a.119.119,0,0,0-.119.119v.265a.119.119,0,0,0,.119.119H176.2a.119.119,0,0,0,.119-.119v-.265A.119.119,0,0,0,176.2,308.966Zm-2.461,0h-1.97a.119.119,0,0,0-.119.119v.265a.119.119,0,0,0,.119.119h1.97a.119.119,0,0,0,.119-.119v-.265A.119.119,0,0,0,173.744,308.966Z"
                  transform="translate(-156.902 -297.849)" fill="#eef0f6"/>
            <path d="M119.012,308.966h-1.974a.119.119,0,0,0-.119.119v.265a.119.119,0,0,0,.119.119h1.974a.119.119,0,0,0,.119-.119v-.265A.119.119,0,0,0,119.012,308.966Zm-2.461,0h-1.97a.119.119,0,0,0-.119.119v.265a.119.119,0,0,0,.119.119h1.97a.119.119,0,0,0,.119-.119v-.265A.119.119,0,0,0,116.551,308.966Z"
                  transform="translate(-104.625 -297.849)" fill="#eef0f6"/>
            <path d="M61.78,308.966H59.81a.119.119,0,0,0-.119.119v.265a.119.119,0,0,0,.119.119h1.97a.119.119,0,0,0,.119-.119v-.265A.119.119,0,0,0,61.78,308.966Zm-2.458,0H57.349a.119.119,0,0,0-.119.119v.265a.119.119,0,0,0,.119.119h1.974a.119.119,0,0,0,.119-.119v-.265A.119.119,0,0,0,59.323,308.966Z"
                  transform="translate(-52.312 -297.849)" fill="#eef0f6"/>
            <path d="M4.553,308.966H2.58a.119.119,0,0,0-.119.119v.265a.119.119,0,0,0,.119.119H4.554a.119.119,0,0,0,.119-.119v-.265A.119.119,0,0,0,4.553,308.966Zm-2.458,0H.119a.119.119,0,0,0-.119.119v.265a.119.119,0,0,0,.119.119H2.1a.119.119,0,0,0,.119-.119v-.265A.119.119,0,0,0,2.1,308.966Z"
                  transform="translate(0 -297.849)" fill="#eef0f6"/>
        </g>
    </g>
    <g transform="translate(19.069 10.65)">
        <path d="M243.416,205.663a2.133,2.133,0,0,1,1.184-.124.5.5,0,0,0,.136-.483.573.573,0,0,1-.793.188c-.014-.009-.032-.018-.044-.028a.583.583,0,0,1-.809-.115.511.511,0,0,0-.03-.046A.5.5,0,0,0,243.416,205.663Z"
              transform="translate(-240.467 -205.056)" fill="#ff4b55"/>
        <path d="M224.9,222.511a3.133,3.133,0,0,0,.673-5.029.037.037,0,0,0-.057.048,3.408,3.408,0,0,1-.855,4.494l.067-4.3a.19.19,0,0,0-.071-.151l-.229-.185a.19.19,0,0,0-.24,0l-.225.184a.19.19,0,0,0-.07.15l.065,4.305a3.413,3.413,0,0,1-.857-4.5.037.037,0,0,0-.057-.048,3.133,3.133,0,0,0,.673,5.028,3.472,3.472,0,0,1-1.225.194.038.038,0,0,0-.011.074,3.116,3.116,0,0,0,1.591.057l.2.391a.037.037,0,0,0,.067,0l.2-.391a3.121,3.121,0,0,0,1.591-.058.038.038,0,0,0-.011-.074A3.482,3.482,0,0,1,224.9,222.511Z"
              transform="translate(-220.881 -216.535)" fill="#ff4b55"/>
        <path d="M281.632,217.2a2.666,2.666,0,0,0-1.466-1.258.038.038,0,0,0-.038.064,3.4,3.4,0,0,1,.589,4.627c-.055.074-.115.152-.172.216A2.689,2.689,0,0,0,281.632,217.2Z"
              transform="translate(-275.098 -215.224)" fill="#ff4b55"/>
        <path d="M205.126,220.635a3.4,3.4,0,0,1,.587-4.627.038.038,0,0,0-.038-.064,2.695,2.695,0,0,0-.375,4.907A1.993,1.993,0,0,1,205.126,220.635Z"
              transform="translate(-203.884 -215.225)" fill="#ff4b55"/>
    </g>
</svg>
