<svg xmlns="http://www.w3.org/2000/svg" id="Component_330_1" width="44" height="40" data-name="Component 330 – 1" viewBox="0 0 44 40">
    <path id="Rectangle_4213" fill="none" d="M0 0H44V40H0z" data-name="Rectangle 4213"/>
    <g id="Group_2994" data-name="Group 2994" transform="translate(-198 -8277)">
        <path id="wordpress" fill="#1AF1CF" d="M20 0a20 20 0 1 0 20 20A20.022 20.022 0 0 0 20 0zM2.017 20a17.837 17.837 0 0 1 1.557-7.315l8.58 23.5A17.99 17.99 0 0 1 2.017 20zM20 37.983a17.87 17.87 0 0 1-5.08-.735l5.395-15.677 5.525 15.146a2.706 2.706 0 0 0 .128.25A18.007 18.007 0 0 1 20 37.983zm2.475-26.408c1.08-.057 2.055-.168 2.055-.168a.745.745 0 0 0-.113-1.485s-2.912.225-4.79.225c-1.767 0-4.735-.225-4.735-.225a.745.745 0 0 0-.112 1.485s.918.113 1.887.168l2.8 7.677-3.935 11.8-6.549-19.479c1.082-.057 2.057-.168 2.057-.168a.745.745 0 0 0-.113-1.485s-2.912.225-4.79.225c-.338 0-.735-.008-1.162-.023a17.986 17.986 0 0 1 27.17-3.388 2.221 2.221 0 0 0-.233-.015A3.112 3.112 0 0 0 28.9 9.912c0 1.483.855 2.733 1.767 4.218a9.44 9.44 0 0 1 1.485 4.96 21.574 21.574 0 0 1-1.372 5.815L28.983 30.9zm13.308-.2a17.986 17.986 0 0 1-6.742 24.17l5.492-15.88a17.026 17.026 0 0 0 1.367-6.448 13.318 13.318 0 0 0-.12-1.845z" transform="translate(200 8277)"/>
    </g>
</svg>
