<svg version="1.2" xmlns="http://www.w3.org/2000/svg" viewBox="0 0 351 85" width="351" height="85">
	<title>New Project</title>
	<defs>
		<filter x="-50%" y="-50%" width="200%" height="200%" id="f1" ><feDropShadow dx="1.3891854213354424" dy="7.878462024097664" stdDeviation="5.416666666666667" flood-color="#000000" flood-opacity="0"/></filter>
	</defs>
	<style>
		.s0 { filter: url(#f1);fill: #ffffff; }
		.s1 { fill: none;stroke: #e66f4b;stroke-width: 3 }
	</style>

    <path id="Rounded Rectangle 8" transform="translate(0 3)" fill-rule="evenodd" class="s0" d="m-5.3 22.4c0-9.4 5.2-17.6 12.9-21.9h49.3c1.7 0.2 4.1 0.3 7 0.3c34.4 0 36.1 18.9 36.1 18.9h0.1c8.4 33.8 39 58.8 75.3 58.8c36.4 0 66.9-25 75.4-58.8q0 0 0-0.2q0.2-0.8 0.4-1.6c1.4-4.7 7.8-17.1 35.6-17.1c2.9 0 5.2-0.1 7-0.3h49.2c7.7 4.3 12.9 12.5 12.9 21.9v815c0 13.8-11.2 25-25 25h-311.2c-13.8 0-25-11.2-25-25z" />
    <path id="Rounded Rectangle 8 copy" fill-rule="evenodd" class="s1" d="m-5.3 7.4c0-2.7 1.1-5.1 2.8-6.9h59.4c1.7 0.2 4.1 0.3 7 0.3c34.4 0 36.1 18.9 36.1 18.9h0.1c8.4 33.8 39 58.8 75.3 58.8c36.4 0 66.9-25 75.4-58.8q0 0 0-0.2q0.2-0.8 0.4-1.6c1.4-4.7 7.8-17.1 35.6-17.1c2.9 0 5.2-0.1 7-0.3h59.3c1.7 1.8 2.8 4.2 2.8 6.9v630.3c0 5.5-4.5 10-10 10h-341.2c-5.5 0-10-4.5-10-10z" />
</svg>