<svg version="1.2" xmlns="http://www.w3.org/2000/svg" viewBox="0 0 512 512" width="512" height="512">
	<title>cart-svg</title>
	<style>
		.s0 { fill: #4e53a2 }
	</style>
	<g id="Layer">
		<g id="Layer">
			<path id="Layer" fill-rule="evenodd" class="s0" d="m256 448c0 26.5-21.5 48-48 48c-26.5 0-48-21.5-48-48c0-26.5 21.5-48 48-48c26.5 0 48 21.5 48 48zm-32 0c0-8.8-7.2-16-16-16c-8.8 0-16 7.2-16 16c0 8.8 7.2 16 16 16c8.8 0 16-7.2 16-16z" />
		</g>
	</g>
	<g id="Layer">
		<g id="Layer">
			<path id="Layer" fill-rule="evenodd" class="s0" d="m448 448c0 26.5-21.5 48-48 48c-26.5 0-48-21.5-48-48c0-26.5 21.5-48 48-48c26.5 0 48 21.5 48 48zm-32 0c0-8.8-7.2-16-16-16c-8.8 0-16 7.2-16 16c0 8.8 7.2 16 16 16c8.8 0 16-7.2 16-16z" />
		</g>
	</g>
	<g id="Layer">
		<g id="Layer">
			<path id="Layer" fill-rule="evenodd" class="s0" d="m511.7 98.9l-32 176c-1.3 7.3-7.5 12.7-15 13.1l-285.8 12.9l9.4 35.1h243.7c8.8 0 16 7.2 16 16c0 8.8-7.2 16-16 16h-256c-7.3 0-13.6-4.9-15.5-11.9l-82.2-308.1h-62.3c-8.8 0-16-7.2-16-16c0-8.8 7.2-16 16-16h74.6c7.2 0 13.6 4.9 15.4 11.9l13.9 52.1h376.1c4.7 0 9.2 2.1 12.3 5.7c3 3.7 4.3 8.5 3.4 13.2zm-34.9 13.1h-348.3l41.9 157.2l280.2-12.6z" />
		</g>
	</g>
	<g id="Layer">
		<g id="Layer">
			<path id="Layer" class="s0" d="m416 160v64c0 8.8-7.2 16-16 16c-8.8 0-16-7.2-16-16v-64c0-8.8 7.2-16 16-16c8.8 0 16 7.2 16 16z" />
		</g>
	</g>
	<g id="Layer">
		<g id="Layer">
			<path id="Layer" class="s0" d="m320 160v64c0 8.8-7.2 16-16 16c-8.8 0-16-7.2-16-16v-64c0-8.8 7.2-16 16-16c8.8 0 16 7.2 16 16z" />
		</g>
	</g>
	<g id="Layer">
		<g id="Layer">
			<path id="Layer" class="s0" d="m224 160v64c0 8.8-7.2 16-16 16c-8.8 0-16-7.2-16-16v-64c0-8.8 7.2-16 16-16c8.8 0 16 7.2 16 16z" />
		</g>
	</g>
	<g id="Layer">
	</g>
	<g id="Layer">
	</g>
	<g id="Layer">
	</g>
	<g id="Layer">
	</g>
	<g id="Layer">
	</g>
	<g id="Layer">
	</g>
	<g id="Layer">
	</g>
	<g id="Layer">
	</g>
	<g id="Layer">
	</g>
	<g id="Layer">
	</g>
	<g id="Layer">
	</g>
	<g id="Layer">
	</g>
	<g id="Layer">
	</g>
	<g id="Layer">
	</g>
	<g id="Layer">
	</g>
</svg>