<svg height="496pt" viewBox="0 0 496 496" width="496pt" xmlns="http://www.w3.org/2000/svg">

    <path d="m168.855469 344.664062c-9.632813-7.640624-22.160157-10.417968-34.34375-7.558593-14.3125 3.328125-25.808594 14.695312-29.296875 28.964843-3.902344 15.960938 1.992187 32.1875 14.785156 41.777344v32.152344c0 13.230469 10.769531 24 24 24s24-10.769531 24-24v-32.167969c9.96875-7.511719 16-19.328125 16-31.832031 0-12.273438-5.519531-23.695312-15.144531-31.335938zm-12.878907 51.984376-3.976562 2.3125v41.039062c0 4.414062-3.59375 8-8 8s-8-3.585938-8-8v-41.039062l-3.976562-2.3125c-9.480469-5.511719-13.894532-16.023438-11.269532-26.785157 2.039063-8.335937 9.023438-15.238281 17.382813-17.183593 1.992187-.464844 3.96875-.6875 5.910156-.6875 5.417969 0 10.546875 1.777343 14.855469 5.191406 5.785156 4.601562 9.097656 11.449218 9.097656 18.816406 0 8.542969-4.496094 16.265625-12.023438 20.648438zm92.023438-396.648438c-136.742188 0-248 111.257812-248 248 0 43.238281 11.382812 85.710938 32.824219 123.105469-.496094 4.261719-.824219 8.550781-.824219 12.894531 0 61.761719 50.238281 112 112 112 14.679688 0 28.671875-2.910156 41.527344-8.070312 20.425781 5.308593 41.425781 8.070312 62.472656 8.070312 136.742188 0 248-111.246094 248-248 0-136.742188-111.257812-248-248-248zm168 88.246094v255.753906c0 13.230469-10.769531 24-24 24s-24-10.769531-24-24v-40h-160v-80c0-16.167969-6.070312-30.910156-16-42.191406v-141.808594c0-7.792969 3.816406-14.910156 10.105469-19.425781 14.839843-2.988281 30.183593-4.574219 45.894531-4.574219 66.054688 0 125.703125 27.800781 168 72.246094zm-180.296875 231.753906h116.296875v24c0 9.039062 3.128906 17.296875 8.207031 24h-105.480469c-2.488281-17.304688-8.964843-33.664062-19.023437-48zm-75.703125-16h-32v-80c0-8.824219 7.175781-16 16-16s16 7.175781 16 16zm-16-112c-17.648438 0-32 14.351562-32 32v80h-16v-80c0-26.472656 21.527344-48 48-48s48 21.527344 48 48v80h-16v-80c0-17.648438-14.351562-32-32-32zm-128 56c0-103.65625 68.335938-191.640625 162.320312-221.296875-1.480468 4.21875-2.320312 8.679687-2.320312 13.296875v128.65625c-9.425781-5.472656-20.335938-8.65625-32-8.65625-35.289062 0-64 28.710938-64 64v80h-14.34375l-2.359375 2.457031c-11.320313 11.773438-19.671875 25.65625-24.929687 40.65625-14.605469-30.875-22.367188-64.730469-22.367188-99.113281zm32 136c0-23.742188 8.6875-46.335938 24.542969-64h142.914062c15.855469 17.664062 24.542969 40.257812 24.542969 64 0 52.9375-43.0625 96-96 96s-96-43.0625-96-96zm200 96c-13.640625 0-27.246094-1.320312-40.679688-3.710938 29.367188-20.210937 48.679688-54.023437 48.679688-92.289062h136c22.054688 0 40-17.945312 40-40v-237.070312c30.0625 39.117187 48 88.03125 48 141.070312 0 127.921875-104.070312 232-232 232zm-24-432h-16v-16h16zm80 0h-64v-16h64zm64 32h-160v-16h160zm32 32h-192v-16h192zm-64 48c-35.289062 0-64 28.710938-64 64s28.710938 64 64 64 64-28.710938 64-64-28.710938-64-64-64zm0 112c-26.472656 0-48-21.527344-48-48s21.527344-48 48-48 48 21.527344 48 48-21.527344 48-48 48zm48-144h16v16h-16zm-16 16h-160v-16h160zm-112 32h-48v-16h48zm-32 16h32v16h-32zm0 32h32v16h-32zm0 32h32v16h-32zm0 0"
          fill="#fff"/>
</svg>