<svg version="1.2" xmlns="http://www.w3.org/2000/svg" viewBox="0 0 16 16" width="16" height="16">
	<title>plus-svg</title>
	<style>
		.s0 { fill: #aaaabf }
	</style>
	<path id="Layer" class="s0" d="m8 16q-0.2 0-0.4-0.1q-0.2-0.1-0.3-0.2q-0.1-0.1-0.2-0.3q-0.1-0.2-0.1-0.4v-14q0-0.4 0.3-0.7q0.3-0.3 0.7-0.3q0.4 0 0.7 0.3q0.3 0.3 0.3 0.7v14q0 0.2-0.1 0.4q-0.1 0.2-0.2 0.3q-0.1 0.1-0.3 0.2q-0.2 0.1-0.4 0.1z" />
	<path id="Layer" class="s0" d="m15 9h-14q-0.4 0-0.7-0.3q-0.3-0.3-0.3-0.7q0-0.4 0.3-0.7q0.3-0.3 0.7-0.3h14q0.4 0 0.7 0.3q0.3 0.3 0.3 0.7q0 0.4-0.3 0.7q-0.3 0.3-0.7 0.3z" />
</svg>