
<svg version="1.2" xmlns="http://www.w3.org/2000/svg" viewBox="0 0 512 512" width="512" height="512">
    <title>011-user-2-svg</title>
    <style>
        .s0 { fill: #fff }
    </style>
    <g id="Layer">
        <g id="Layer">
            <path id="Layer" class="s0" d="m511.4 465.2v26.1c0 11.4-9.2 20.7-20.6 20.7-11.5 0-20.7-9.3-20.7-20.7v-26.1c0-59.4-98.1-109.7-214.1-109.7-116 0-214.1 50.3-214.1 109.7v26.1c0 11.4-9.2 20.7-20.7 20.7-11.4 0-20.6-9.3-20.6-20.7v-26.1c0-84.7 112.2-151.1 255.4-151.1 143.2 0 255.4 66.4 255.4 151.1z"/>
        </g>
    </g>
    <g id="Layer">
        <g id="Layer">
            <path id="Layer" fill-rule="evenodd" class="s0" d="m275.5 248.7q-9.4 1.4-18.6 1.4c-26.7 0-52.5-8.5-74.2-24.7-26.9-19.9-44.3-49-49.2-82-10.1-68.2 37.1-131.9 105.3-142 12.2-1.9 24.5-1.9 36.7 0 26.7 3.9 50.9 16.1 70 35.2 19.1 19.1 31.3 43.4 35.3 70.1 10.1 68.2-37.1 131.9-105.3 142zm64.4-136c-5.5-36.7-33.8-65-70.5-70.4q-6.1-0.9-12.3-0.9-6.1 0-12.2 0.9c-45.7 6.7-77.3 49.4-70.5 95 3.3 22.1 14.9 41.6 32.9 54.9 17.9 13.3 40 18.8 62.1 15.6 45.6-6.8 77.2-49.4 70.5-95.1z"/>
        </g>
    </g>
    <g id="Layer">
    </g>
    <g id="Layer">
    </g>
    <g id="Layer">
    </g>
    <g id="Layer">
    </g>
    <g id="Layer">
    </g>
    <g id="Layer">
    </g>
    <g id="Layer">
    </g>
    <g id="Layer">
    </g>
    <g id="Layer">
    </g>
    <g id="Layer">
    </g>
    <g id="Layer">
    </g>
    <g id="Layer">
    </g>
    <g id="Layer">
    </g>
    <g id="Layer">
    </g>
    <g id="Layer">
    </g>
</svg>