<svg version="1.2" xmlns="http://www.w3.org/2000/svg" viewBox="0 0 512 512" width="512" height="512">
	<title>copy-svg</title>
	<style>
		.s0 { fill: #ffa000 }
	</style>
	<path id="Layer" fill-rule="evenodd" class="s0" d="m311 512h-191c-44.1 0-80-35.9-80-80v-271c0-44.1 35.9-80 80-80h191c44.1 0 80 35.9 80 80v271c0 44.1-35.9 80-80 80zm-191-391c-22.1 0-40 17.9-40 40v271c0 22.1 17.9 40 40 40h191c22.1 0 40-17.9 40-40v-271c0-22.1-17.9-40-40-40zm331 281c-11 0-20-9-20-20v-302c0-22.1-17.9-40-40-40h-222c-11 0-20-9-20-20 0-11 9-20 20-20h222c44.1 0 80 35.9 80 80v302c0 11-9 20-20 20z"/>
</svg>