<svg xmlns="http://www.w3.org/2000/svg" version="1.1" xmlns:xlink="http://www.w3.org/1999/xlink" xmlns:svgjs="http://svgjs.com/svgjs" x="0" y="0" viewBox="0 0 24 24" style="enable-background:new 0 0 512 512" xml:space="preserve" class=""><g><path xmlns="http://www.w3.org/2000/svg" d="m12 18.75a.75.75 0 0 1 -.75-.75v-3a.75.75 0 0 1 1.5 0v3a.75.75 0 0 1 -.75.75z" fill="#ffffff" data-original="#443d66"/><path xmlns="http://www.w3.org/2000/svg" d="m20.75 2v11a2.748 2.748 0 0 1 -2.75 2.75h-12a2.748 2.748 0 0 1 -2.75-2.75v-11a.755.755 0 0 1 .75-.75h16a.755.755 0 0 1 .75.75z" fill="#13e4ea" data-original="#13e4ea" class=""/><circle xmlns="http://www.w3.org/2000/svg" cx="12" cy="20" fill="#aff9f7" r="2" data-original="#aff9f7" class=""/><path xmlns="http://www.w3.org/2000/svg" d="m22.75 2a.755.755 0 0 1 -.75.75h-20a.75.75 0 0 1 0-1.5h20a.755.755 0 0 1 .75.75z" fill="#ffffff" data-original="#007da1" class=""/><path xmlns="http://www.w3.org/2000/svg" d="m13 10.25a.746.746 0 0 1 -.416-.126l-2.484-1.659-1.57 1.565a.75.75 0 0 1 -1.06-1.06l2-2a.751.751 0 0 1 .946-.094l2.484 1.659 2.57-2.565a.75.75 0 0 1 1.06 1.06l-3 3a.747.747 0 0 1 -.53.22z" fill="#f3f5f9" data-original="#f3f5f9" class=""/><g xmlns="http://www.w3.org/2000/svg" fill="#007da1"><path d="m18 15.75h-12a2.752 2.752 0 0 1 -2.75-2.75v-11a.75.75 0 0 1 .75-.75h16a.75.75 0 0 1 0 1.5h-15.25v10.25a1.252 1.252 0 0 0 1.25 1.25h12a1.252 1.252 0 0 0 1.25-1.25v-9a.75.75 0 0 1 1.5 0v9a2.752 2.752 0 0 1 -2.75 2.75z" fill="#ffffff" data-original="#007da1" class=""/><path d="m12 18.75a.75.75 0 0 1 -.75-.75v-3a.75.75 0 0 1 1.5 0v3a.75.75 0 0 1 -.75.75z" fill="#ffffff" data-original="#007da1" class=""/><path d="m12 22.75a2.75 2.75 0 1 1 2.75-2.75 2.752 2.752 0 0 1 -2.75 2.75zm0-4a1.25 1.25 0 1 0 1.25 1.25 1.252 1.252 0 0 0 -1.25-1.25z" fill="#ffffff" data-original="#007da1" class=""/></g></g></svg>