<svg xmlns="http://www.w3.org/2000/svg" version="1.1" xmlns:xlink="http://www.w3.org/1999/xlink" xmlns:svgjs="http://svgjs.com/svgjs" x="0" y="0" viewBox="0 0 24 24" style="enable-background:new 0 0 512 512" xml:space="preserve" class=""><g><path xmlns="http://www.w3.org/2000/svg" d="m12.271 5.977a8.274 8.274 0 1 0 8.253 8.3 8.227 8.227 0 0 0 -8.253-8.3z" fill="#13e4ea" data-original="#13e4ea" class=""/><path xmlns="http://www.w3.org/2000/svg" d="m12.033 9.016a5.323 5.323 0 1 0 5.308 5.337 5.288 5.288 0 0 0 -5.308-5.337z" fill="#aff9f7" data-original="#aff9f7" class=""/><g xmlns="http://www.w3.org/2000/svg" fill="#13e4ea"><path d="m11.591 14.66a.75.75 0 0 1 -.489-1.318l2-1.731a.75.75 0 1 1 .98 1.136l-2 1.731a.751.751 0 0 1 -.491.182z" fill="#13e4ea" data-original="#13e4ea" class=""/><circle cx="11.592" cy="13.91" r="1.5" fill="#13e4ea" data-original="#13e4ea" class=""/><path d="m21.355 3.537-2.88-1.849a1.5 1.5 0 0 0 -2.068.453l-.462.719a1.5 1.5 0 0 0 .455 2.068l2.88 1.848a1.5 1.5 0 0 0 2.069-.451l.462-.721a1.5 1.5 0 0 0 -.456-2.067z" fill="#13e4ea" data-original="#13e4ea" class=""/></g><path xmlns="http://www.w3.org/2000/svg" d="m12 22.75a8.7 8.7 0 0 1 -5-1.569.75.75 0 0 1 .858-1.231 7.25 7.25 0 1 0 0-11.9.75.75 0 0 1 -.858-1.231 8.75 8.75 0 1 1 5 15.931z" fill="#ffffff" data-original="#007da1" class=""/><path xmlns="http://www.w3.org/2000/svg" d="m8.715 4.345a.75.75 0 0 1 -.1-1.493l2.972-.4a.75.75 0 0 1 .2 1.487l-2.973.4a.7.7 0 0 1 -.099.006z" fill="#ffffff" data-original="#007da1" class=""/><path xmlns="http://www.w3.org/2000/svg" d="m10.538 6.62a.75.75 0 0 1 -.738-.649l-.341-2.478a.75.75 0 1 1 1.486-.2l.337 2.478a.749.749 0 0 1 -.642.843.719.719 0 0 1 -.102.006z" fill="#ffffff" data-original="#007da1" class=""/><path xmlns="http://www.w3.org/2000/svg" d="m9 13.75h-6a.75.75 0 0 0 0 1.5h6a.75.75 0 0 0 0-1.5z" fill="#aff9f7" data-original="#aff9f7" class=""/><path xmlns="http://www.w3.org/2000/svg" d="m2 12.25h7.68a.75.75 0 0 0 0-1.5h-7.68a.75.75 0 0 0 0 1.5z" fill="#aff9f7" data-original="#aff9f7" class=""/><path xmlns="http://www.w3.org/2000/svg" d="m10 16.75h-8a.75.75 0 0 0 0 1.5h8a.75.75 0 0 0 0-1.5z" fill="#aff9f7" data-original="#aff9f7" class=""/><path xmlns="http://www.w3.org/2000/svg" d="m20.137 7.708a1.754 1.754 0 0 1 -.939-.273l-3.372-2.153a1.751 1.751 0 0 1 -.534-2.416l.538-.843a1.754 1.754 0 0 1 2.417-.535l3.372 2.153a1.753 1.753 0 0 1 .534 2.416l-.538.843a1.75 1.75 0 0 1 -1.478.808zm-.132-1.538a.252.252 0 0 0 .345-.076l.538-.844a.251.251 0 0 0 -.077-.346l-3.371-2.151a.257.257 0 0 0 -.189-.033.252.252 0 0 0 -.156.11l-.538.843a.251.251 0 0 0 .076.346z" fill="#ffffff" data-original="#007da1" class=""/><path xmlns="http://www.w3.org/2000/svg" d="m16.839 8.162a.75.75 0 0 1 -.631-1.153l1.075-1.686a.75.75 0 0 1 1.265.807l-1.076 1.685a.747.747 0 0 1 -.633.347z" fill="#ffffff" data-original="#007da1" class=""/></g></svg>