<svg xmlns="http://www.w3.org/2000/svg" version="1.1" xmlns:xlink="http://www.w3.org/1999/xlink" xmlns:svgjs="http://svgjs.com/svgjs" x="0" y="0" viewBox="0 0 24 24" style="enable-background:new 0 0 512 512" xml:space="preserve" class=""><g><path xmlns="http://www.w3.org/2000/svg" d="m19.722 4.348a21.611 21.611 0 0 1 -6.34-2.354 2.734 2.734 0 0 0 -2.764 0 21.611 21.611 0 0 1 -6.34 2.354 2.765 2.765 0 0 0 -2.195 2.688v1.748a14.143 14.143 0 0 0 6.692 12.093l1.773 1.1a2.735 2.735 0 0 0 2.9 0l1.772-1.1a14.143 14.143 0 0 0 6.697-12.093v-1.748a2.765 2.765 0 0 0 -2.195-2.688z" fill="#aff9f7" data-original="#aff9f7"/><g xmlns="http://www.w3.org/2000/svg" fill="#13e4ea"><path d="m13 13.75a.744.744 0 0 1 -.53-.22l-2-2a.75.75 0 0 1 1.06-1.06l1.47 1.469 4.47-4.469a.75.75 0 0 1 1.06 1.06l-5 5a.744.744 0 0 1 -.53.22z" fill="#13e4ea" data-original="#13e4ea" class=""/><path d="m12 16.25a4.75 4.75 0 1 1 3.162-8.287.75.75 0 1 1 -1 1.114 3.219 3.219 0 0 0 -2.162-.827 3.25 3.25 0 0 0 0 6.5 3.418 3.418 0 0 0 .51-.042 3.131 3.131 0 0 0 .893-.283 3.209 3.209 0 0 0 1.519-1.517.75.75 0 0 1 1.355.644 4.714 4.714 0 0 1 -2.224 2.225 4.617 4.617 0 0 1 -1.319.414 4.955 4.955 0 0 1 -.734.059z" fill="#13e4ea" data-original="#13e4ea" class=""/><path d="m19.722 4.348a21.611 21.611 0 0 1 -6.34-2.354 2.734 2.734 0 0 0 -2.764 0 21.611 21.611 0 0 1 -6.34 2.354 2.765 2.765 0 0 0 -2.195 2.688v1.748a14.143 14.143 0 0 0 6.692 12.093l1.773 1.1a2.735 2.735 0 0 0 2.9 0l1.772-1.1a14.143 14.143 0 0 0 6.697-12.093v-1.748a2.765 2.765 0 0 0 -2.195-2.688z" fill="#13e4ea" data-original="#13e4ea" class=""/><path d="m12 16.25a4.75 4.75 0 1 1 3.162-8.287.75.75 0 1 1 -1 1.114 3.219 3.219 0 0 0 -2.162-.827 3.25 3.25 0 0 0 0 6.5 3.418 3.418 0 0 0 .51-.042 3.131 3.131 0 0 0 .893-.283 3.209 3.209 0 0 0 1.519-1.517.75.75 0 0 1 1.355.644 4.714 4.714 0 0 1 -2.224 2.225 4.617 4.617 0 0 1 -1.319.414 4.955 4.955 0 0 1 -.734.059z" fill="#13e4ea" data-original="#13e4ea" class=""/></g><path xmlns="http://www.w3.org/2000/svg" d="m12 22.4a2.747 2.747 0 0 1 -1.452-.417l-1.773-1.1a14.143 14.143 0 0 1 -6.692-12.099v-1.748a2.765 2.765 0 0 1 2.195-2.688 21.611 21.611 0 0 0 6.34-2.354 2.734 2.734 0 0 1 2.764 0 21.611 21.611 0 0 0 6.34 2.354 2.765 2.765 0 0 1 2.2 2.688v1.748a14.143 14.143 0 0 1 -6.692 12.093l-1.772 1.1a2.745 2.745 0 0 1 -1.458.423zm-7.413-16.585a1.26 1.26 0 0 0 -1 1.221v1.748a12.819 12.819 0 0 0 5.981 10.816l1.772 1.1a1.244 1.244 0 0 0 1.321 0l1.771-1.1a12.819 12.819 0 0 0 5.985-10.82v-1.744a1.26 1.26 0 0 0 -1-1.221 23.073 23.073 0 0 1 -6.781-2.523 1.253 1.253 0 0 0 -1.264 0 23.073 23.073 0 0 1 -6.785 2.523z" fill="#ffffff" data-original="#007da1" class=""/><circle xmlns="http://www.w3.org/2000/svg" cx="12" cy="11.5" fill="#aff9f7" r="4.75" data-original="#aff9f7"/><path xmlns="http://www.w3.org/2000/svg" d="m13 13.75a.744.744 0 0 1 -.53-.22l-2-2a.75.75 0 0 1 1.06-1.06l1.47 1.469 4.47-4.469a.75.75 0 0 1 1.06 1.06l-5 5a.744.744 0 0 1 -.53.22z" fill="#ffffff" data-original="#ffffff" class=""/></g></svg>