<svg height="496pt" viewBox="0 0 496 496" width="496pt" xmlns="http://www.w3.org/2000/svg">
    <path d="m248 0c-136.742188 0-248 111.246094-248 248s111.257812 248 248 248c20.039062 0 39.953125-2.464844 59.265625-7.207031 14.09375 4.621093 29.109375 7.207031 44.734375 7.207031 79.398438 0 144-64.601562 144-144 0-15.625-2.585938-30.632812-7.199219-44.726562 4.734375-19.320313 7.199219-39.234376 7.199219-59.273438 0-136.753906-111.257812-248-248-248zm231.59375 360c-.730469 11.640625-2.976562 22.855469-6.617188 33.457031l-14.441406-5.984375-6.128906 14.785156 14.410156 5.964844c-4.175781 8.488282-9.183594 16.480469-15.054687 23.785156h-199.523438c-5.871093-7.304687-10.878906-15.296874-15.054687-23.785156l14.410156-5.964844-6.128906-14.785156-14.441406 5.984375c-3.640626-10.601562-5.894532-21.808593-6.617188-33.457031h15.59375v-16h-15.59375c.730469-11.640625 2.976562-22.855469 6.617188-33.457031l14.441406 5.984375 6.128906-14.785156-14.410156-5.964844c5.0625-10.296875 11.441406-19.800782 18.960937-28.320313l11 11 11.3125-11.3125-11-11c8.519531-7.519531 18.023438-13.898437 28.328125-18.960937l5.96875 14.402344 14.78125-6.128907-5.984375-14.441406c10.601563-3.640625 21.808594-5.894531 33.449219-6.617187v15.601562h16v-15.59375c11.640625.730469 22.847656 2.976562 33.449219 6.617188l-5.984375 14.441406 14.78125 6.128906 5.96875-14.402344c10.296875 5.066406 19.808594 11.441406 28.328125 18.96875l-11 11 11.3125 11.3125 11-11c7.519531 8.519532 13.898437 18.023438 18.960937 28.320313l-14.410156 5.96875 6.128906 14.78125 14.441406-5.984375c3.640626 10.601562 5.894532 21.808594 6.617188 33.457031h-15.59375v16h15.59375zm-407.59375-184h68.6875l16 16h219.3125v8c0 3.441406-.769531 6.761719-2.160156 9.839844-7.144532-1.097656-14.398438-1.839844-21.839844-1.839844-23.664062 0-45.953125 5.839844-65.671875 16h-190.328125c-13.230469 0-24-10.769531-24-24zm189.6875 64c-11.304688 9.136719-21.222656 19.902344-29.34375 32h-72.34375v-32zm218.3125 8c0 11.28125-.902344 22.496094-2.519531 33.59375-18.710938-33.210938-50.207031-58.195312-87.777344-68.410156 1.472656-4.207032 2.296875-8.632813 2.296875-13.183594v-133.695312c53.558594 42.535156 88 108.152343 88 181.695312zm-232-232c47.28125 0 91.289062 14.246094 128 38.632812v121.367188h-212.6875l-16-16h-75.3125v-62.894531c42.585938-49.601563 105.664062-81.105469 176-81.105469zm0 464c-127.929688 0-232-104.078125-232-232 0-48.167969 14.769531-92.953125 40-130.078125v82.078125c0 22.054688 17.945312 40 40 40h48v32h-32v16h111.191406c-9.632812 19.3125-15.191406 40.992188-15.191406 64 0 53.824219 29.726562 100.769531 73.585938 125.480469-11.097657 1.609375-22.3125 2.519531-33.585938 2.519531zm19.625-32h168.757812c-22.550781 19.847656-52.039062 32-84.375 32-32.335937 0-61.832031-12.152344-84.382812-32zm-163.625-240h-16v-16h16zm32 0h-16v-16h16zm257.144531 59.878906-36.359375 60.601563c-1.554687-.3125-3.144531-.480469-4.785156-.480469-13.230469 0-24 10.769531-24 24s10.769531 24 24 24 24-10.769531 24-24c0-5.785156-2.144531-11.023438-5.558594-15.175781l36.421875-60.703125zm-41.144531 92.121094c-4.40625 0-8-3.585938-8-8s3.59375-8 8-8 8 3.585938 8 8-3.59375 8-8 8zm-218.726562-216h-45.273438v-16h34.726562l30.785157-71.832031 20.519531 71.832031h21.015625l20.953125-41.886719 20.945312 41.886719h21.640626l37.414062-93.535156 37.414062 93.535156h26.585938v16h-37.414062l-26.585938-66.464844-26.585938 66.464844h-42.359374l-11.054688-22.113281-11.054688 22.113281h-42.984374l-11.480469-40.167969zm0 0"
          fill="#fff"/>
</svg>