<svg height="496pt" viewBox="0 0 496 496" width="496pt" xmlns="http://www.w3.org/2000/svg">
    <path d="m384 208h-16v-16h16zm-32-16h-16v16h16zm-32 64v16h16v-16zm-32 16h16v-16h-16zm80 48v16h16v-16zm-32 16h16v-16h-16zm-48 64h16v-16h-16zm32-16v16h16v-16zm-160 72h16v-16h-16zm336-208c0 136.753906-111.257812 248-248 248s-248-111.246094-248-248c0-20.152344 2.488281-40.183594 7.273438-59.59375-4.632813-14.070312-7.273438-28.964844-7.273438-44.40625 0-79.398438 64.601562-144 144-144 15.585938 0 30.566406 2.609375 44.671875 7.214844 19.335937-4.742188 39.273437-7.214844 59.328125-7.214844 136.742188 0 248 111.246094 248 248zm-96-72h-128v48h128zm-128 112h128v-48h-128zm0 64h128v-48h-128zm0 64h128v-48h-128zm-30.527344 16c3.3125 9.289062 12.113282 16 22.527344 16h101.367188c8.242187-4.855469 16.152343-10.199219 23.703124-16zm22.527344-304h6.871094c-6.917969-55.464844-49.128906-99.527344-103.007813-109.726562-10.222656 12.582031-15.863281 28.160156-15.863281 44.351562 0 3.847656 1.558594 7.613281 4.28125 10.34375l10.75 10.75c2.761719 2.761719 6.433594 4.28125 10.335938 4.28125 16.898437 0 30.632812 13.742188 30.632812 30.625v5.375c0 13.871094 6.527344 26.574219 17.175781 34.785156 4.183594-17.609375 19.953125-30.785156 38.824219-30.785156zm-120-112c-12.078125 0-23.734375 1.800781-34.824219 4.945312 7.070313 12.757813 10.824219 26.964844 10.824219 41.679688v19.445312c0 5.738282 3.089844 11.058594 8.054688 13.882813l33.714843 19.269531c8.773438 5.007813 14.230469 14.410156 14.230469 24.53125 0 15.574219-12.671875 28.246094-28.246094 28.246094h-67.753906c-17.648438 0-32-14.351562-32-32 0-8.824219-7.175781-16-16-16h-13.664062c-1.488282 7.785156-2.335938 15.792969-2.335938 24 0 25.3125 7.640625 49.136719 20.703125 69.238281 15.898437-18.453125 38.890625-29.238281 63.542969-29.238281h83.753906c13.230469 0 24 10.769531 24 24v16c0 13.230469-10.769531 24-24 24-4.40625 0-8 3.585938-8 8v11.945312c17.464844-4.480468 33.742188-12.671874 48-24.121093v-66.921875c-19.542969-10.34375-32-30.496094-32-52.894532v-5.375c0-8.074218-6.558594-14.632812-14.632812-14.632812-8.175782 0-15.863282-3.183594-21.65625-8.96875l-10.75-10.75c-5.777344-5.785156-8.960938-13.464844-8.960938-21.65625 0-16.535156 4.777344-32.546875 13.574219-46.351562-1.863281-.082032-3.695313-.273438-5.574219-.273438zm0 234.664062 15.265625 20.351563c.246094-.03125.488281-.0625.734375-.09375v-14.921875c0-13.230469 10.769531-24 24-24 4.40625 0 8-3.585938 8-8v-16c0-4.414062-3.59375-8-8-8h-83.753906c-21.140625 0-40.726563 9.847656-53.621094 26.472656 20.359375 24.023438 49.3125 40.574219 82.144531 44.503906zm-121.511719-146.664062h9.511719c17.648438 0 32 14.351562 32 32 0 8.824219 7.175781 16 16 16h67.753906c6.75 0 12.246094-5.496094 12.246094-12.246094 0-4.386718-2.359375-8.464844-6.167969-10.632812l-33.703125-19.265625c-9.953125-5.679688-16.128906-16.320313-16.128906-27.785157v-19.445312c0-12.914062-3.6875-25.273438-10.351562-36.273438-33.519532 14.402344-59.632813 42.726563-71.160157 77.648438zm225.511719 376c29.808594 0 58.289062-5.710938 84.496094-16h-68.496094c-22.054688 0-40-17.945312-40-40v-160.359375c-16.296875 10.933594-34.519531 18.390625-53.824219 21.925781l37.824219 50.433594h-32v88h-16v-104h16l-32-42.664062-32 42.664062h16v88h-16v-72h-32l37.792969-50.390625c-42.679688-7.929687-78.625-35.089844-99.207031-71.625-1.648438 11.230469-2.585938 22.589844-2.585938 34.015625 0 127.921875 104.070312 232 232 232zm184-90.929688v-221.070312c0-13.230469-10.769531-24-24-24h-144c-13.230469 0-24 10.769531-24 24v248h16v-240c0-8.824219 7.175781-16 16-16h128c8.824219 0 16 7.175781 16 16v231.742188c5.648438-5.933594 11-12.15625 16-18.671876zm48-141.070312c0-127.921875-104.070312-232-232-232-11.289062 0-22.527344.910156-33.632812 2.527344 39.367187 22.128906 67.34375 62.191406 72.585937 109.472656h121.046875c22.054688 0 40 17.945312 40 40v197.367188c20.304688-34.457032 32-74.558594 32-117.367188zm0 0"
          fill="#fff"/>
</svg>