<svg xmlns="http://www.w3.org/2000/svg" version="1.1" x="0" y="0" viewBox="0 0 496 496"
     style="enable-background:new 0 0 512 512" xml:space="preserve" class=""><g>

    <linearGradient id="a" gradientUnits="userSpaceOnUse" x1="248" x2="248" y1="0" y2="496" gradientTransform="rotate(-45)">
        <stop offset="0.25" stop-color="#1d1886"/>
        <stop offset="1" stop-color="#60d1bf"/>
    </linearGradient>

    <path
        xmlns="http://www.w3.org/2000/svg"
        d="m104 256h-32v-16h32zm-72-64v-112h112v112zm16-16h80v-80h-80zm448-136v208c0 136.742188-111.257812 248-248 248s-248-111.257812-248-248v-208c0-22.054688 17.945312-40 40-40h96c12.046875 0 22.734375 5.464844 30.078125 13.921875 52.632813-18.378906 111.234375-18.386719 163.84375 0 7.34375-8.457031 18.03125-13.921875 30.078125-13.921875h96c22.054688 0 40 17.945312 40 40zm-16 24h-144v144h144zm-144-24v8h144v-8c0-13.230469-10.769531-24-24-24h-96c-13.230469 0-24 10.769531-24 24zm-162.015625-11.902344c1.191406 3.78125 2.015625 7.734375 2.015625 11.902344v208c0 22.054688-17.945312 40-40 40h-40v18.894531c0 9.617188 5.710938 18.273438 14.542969 22.066407l33.257812 14.246093c15.421875-39.246093 52.328125-67.6875 96.199219-70.808593v-113.871094c-9.289062-3.3125-16-12.113282-16-22.527344 0-13.230469 10.769531-24 24-24s24 10.769531 24 24c0 10.414062-6.710938 19.214844-16 22.527344v113.878906c43.871094 3.121094 80.777344 31.5625 96.199219 70.808594l33.257812-14.246094c8.832031-3.800781 14.542969-12.457031 14.542969-22.074219v-18.894531h-40c-22.054688 0-40-17.945312-40-40v-208c0-4.167969.816406-8.105469 2.007812-11.886719-47.640624-15.984375-100.359374-15.992187-148.023437-.015625zm147.273437 417.804688-8.449218-13.519532c-3.664063-5.855468-9.648438-10-16.417969-11.351562l-18.636719-3.726562c-3.640625-.738282-7.472656-.632813-11.058594.261718l-9.941406 2.488282c-7.144531 1.785156-13.128906 6.59375-16.425781 13.175781-7.015625 14.042969-21.136719 22.769531-36.839844 22.769531h-18.777343c16.921874 14.886719 39.03125 24 63.289062 24 29.351562 0 55.632812-13.273438 73.257812-34.097656zm22.007813-50.519532c-6.730469 2.914063-13.953125 4.617188-21.378906 4.617188h-1.445313c-6.761718 0-13.53125-1.601562-19.578125-4.625l-4.671875-2.335938c-14.917968-7.453124-24.191406-22.464843-24.191406-39.152343 0-8.695313-4.152344-17.007813-11.113281-22.222657l-3.375-2.527343c-10.96875-8.226563-17.511719-21.320313-17.511719-35.023438 0-1.921875.238281-3.824219.441406-5.730469-5.640625.441407-11.121094 1.402344-16.441406 2.777344v19.832032c0 7.480468-2.191406 14.71875-6.335938 20.945312-4.886718 7.328125-4.886718 16.796875 0 24.132812 4.144532 6.21875 6.335938 13.457032 6.335938 20.9375v8.207032c0 11.9375-5.929688 23.015625-15.855469 29.640625l-4.753906 3.167969c-5.863281 3.90625-12.695313 5.976562-19.75 5.976562-10.832031 0-21.105469-5.03125-27.800781-13.375 3.265625 11.269531 8.558594 21.664062 15.441406 30.824219 4.199219-.855469 8.445312-1.449219 12.71875-1.449219h19.488281c9.601563 0 18.230469-5.335938 22.527344-13.929688 5.390625-10.765624 15.175781-18.613281 26.847656-21.535156l9.953125-2.488281c5.878906-1.460937 12.121094-1.613281 18.070313-.421875l18.640625 3.726562c11.074218 2.214844 20.855468 8.984376 26.847656 18.558594l4.847656 7.753906c6.28125-10.945312 10.480469-23.199218 12.042969-36.28125zm-138.921875-72.328124c2.390625-3.582032 3.65625-7.75 3.65625-12.0625v-14.152344c-31.136719 14.351562-53.273438 44.832031-55.671875 80.710937 2.527344 2.3125 4.824219 4.816407 6.574219 7.738281l7.90625 13.175782c5.527344 9.214844 18.785156 12.183594 27.703125 6.230468l4.753906-3.167968c5.46875-3.632813 8.734375-9.734375 8.734375-16.3125v-8.207032c0-4.3125-1.265625-8.480468-3.65625-12.0625-8.480469-12.730468-8.480469-29.167968 0-41.890624zm43.65625-179.054688c4.40625 0 8-3.59375 8-8s-3.59375-8-8-8-8 3.59375-8 8 3.59375 8 8 8zm8 150.113281c0 8.695313 4.152344 17.007813 11.113281 22.222657l3.375 2.527343c10.96875 8.226563 17.511719 21.3125 17.511719 35.023438 0 10.59375 5.878906 20.113281 15.351562 24.839843l4.671876 2.335938c3.832031 1.921875 8.136718 2.9375 12.425781 2.9375h1.445312c7.816407 0 15.371094-2.558594 21.753907-7.039062-3.425782-46.847657-40.535157-84.441407-87.199219-88.535157-.296875 1.878907-.449219 3.78125-.449219 5.6875zm-96-230.113281h-144v144h144zm-144-24v8h144v-8c0-13.230469-10.769531-24-24-24h-96c-13.230469 0-24 10.769531-24 24zm0 208c0 13.230469 10.769531 24 24 24h96c13.230469 0 24-10.769531 24-24v-24h-144zm157.960938 219.816406c-23.21875-20.535156-37.960938-50.457031-37.960938-83.816406 0-8.761719 1.113281-17.246094 3.023438-25.433594l-34.785157-14.902344c-14.726562-6.3125-24.238281-20.742187-24.238281-36.769531v-18.894531h-40c-7.945312 0-15.304688-2.390625-21.535156-6.398438 12.703125 87.160157 74.039062 158.703126 155.496094 186.214844zm303.574218-186.214844c-6.230468 4.007813-13.589844 6.398438-21.535156 6.398438h-40v18.894531c0 16.027344-9.511719 30.457031-24.238281 36.769531l-34.785157 14.902344c1.910157 8.1875 3.023438 16.671875 3.023438 25.433594 0 33.359375-14.742188 63.28125-37.960938 83.816406 81.457032-27.511718 142.792969-99.054687 155.496094-186.214844zm2.464844-33.601562v-24h-144v24c0 13.230469 10.769531 24 24 24h96c13.230469 0 24-10.769531 24-24zm-88 8h32v-16h-32zm-40-64v-112h112v112zm16-16h80v-80h-80zm-112-96h-16v16h16zm48 48h-16v16h16zm-96 0h-16v16h16zm0 0"
        fill="url(#a)" class=""/></g>
</svg>