<svg xmlns="http://www.w3.org/2000/svg" width="310.345" height="61.97" viewBox="0 0 310.345 61.97">
  <defs>
    <style>
      .cls-1 {
        fill: #32228f;
        fill-rule: evenodd;
      }
    </style>
  </defs>
  <path id="ماموریت_پرشین_میزبان" data-name="ماموریت پرشین میزبان" class="cls-1" d="M914.616,1970.46q-8.247,6.33-8.246,10.85v0.93q0,3.75,3.358,8.82,6.327,6.75,13.133,6.75h2.819a22.142,22.142,0,0,0,7.856-1.86,18.525,18.525,0,0,0,6-5.25,26.575,26.575,0,0,0,2.248-9,1.973,1.973,0,0,0-.179-1.31q0-7.65-3-10.68-0.48,0-.749,1.29,0,2.85.749,9.96l-0.39,3.53q-1.379,5.67-4.108,7.5a16.748,16.748,0,0,1-8.425,2.46h-2.819q-4.977,0-9.745-5.25-3.029-4.35-3.388-7.5,0-4.1,8.636-10.49a74.626,74.626,0,0,1,10.494-6.21v-0.36a0.383,0.383,0,0,0-.39-0.39h-0.359q-4.318.09-13.493,6.21h0Zm6.176,10.5c0,1.11.81,1.79,2.429,2.03a1.786,1.786,0,0,0,1.709-1.5c0-1.11-.32-1.79-0.959-2.03h-0.75a2.39,2.39,0,0,0-2.429,1.5h0Zm22.024,9.7a13.463,13.463,0,0,0-.2,2.2,7.284,7.284,0,0,0,1.169,4.26q2.069,3.21,6.866,2.85l-0.09-3a7.086,7.086,0,0,1-1.754-.22,3.528,3.528,0,0,1-1.589-1.05,3.833,3.833,0,0,1-.974-1.73,7.023,7.023,0,0,1-.18-1.83,7.492,7.492,0,0,1,.09-1.17q0.09-.57.21-1.26a20.017,20.017,0,0,1,.974-3.22,21.091,21.091,0,0,1,1.514-3.04,12.835,12.835,0,0,0,1.47-2.91,0.689,0.689,0,0,0-.78-0.78q-1.08,0-3.178,2.88a22.952,22.952,0,0,0-2.909,5.54A14.807,14.807,0,0,0,942.816,1990.66Zm9.819,18.96v0.18q1.23,2.25,2.879,2.25h0.18a2.675,2.675,0,0,0,1.769-2.25,2.577,2.577,0,0,0-1.139-2.4h-1.11q-2.579.63-2.579,2.22h0Zm3.868-17.18a5.882,5.882,0,0,1-5.427,4.44h-0.719a1.283,1.283,0,0,0-.72.72l0.09,1.23a1.228,1.228,0,0,0,1.079,1.26,14.293,14.293,0,0,0,3.359-.54q5.727-2.01,5.727-8.19V1991q-0.36-2.31-.9-2.31h-1.439q-1.05.21-1.05,3.75h0Zm9.629,0.92q-3.928,2.64-9.115,6.66-6.507,5.355-9.445,5.36a2.039,2.039,0,0,0-1.2-.15,13.489,13.489,0,0,1-2.939-1.02,0.634,0.634,0,0,0-.6.39v0.78a6.224,6.224,0,0,0,1.41,2.22,8.876,8.876,0,0,0,3.328,1.17q0.78-.21,2.369-0.51,1.468,0,12.293-8.87l4.948-3.42v-2.85a0.244,0.244,0,0,0-.24-0.27,0.765,0.765,0,0,0-.81.51h0Zm-3.838-17.42q0,1.23,1.919,1.8h0.48q1.17,0,1.619-1.8a2.275,2.275,0,0,0-.959-1.53h-1.26q-1.8.51-1.8,1.53h0Zm1.589,36.55a1.031,1.031,0,0,0,1.26,1.05,1.8,1.8,0,0,0,.4-0.05,2.33,2.33,0,0,0,.4-0.13,26.294,26.294,0,0,1,4.153-1.38,28.173,28.173,0,0,1,4.423-.69q1.978-.06,1.979-0.9,0-.48-1.409-0.93a4.4,4.4,0,0,0-1.185-.28,15.621,15.621,0,0,0-1.694-.08,12.609,12.609,0,0,0-7.166,1.89,1.954,1.954,0,0,0-1.17,1.5h0Zm9-23.27q-0.6,0-1.05,2.31-1.018,1.47-4.557,1.44h-0.63a0.776,0.776,0,0,0-.54.78v1.38a0.89,0.89,0,0,0,.51.84h1.259q2.07-.03,3.269-0.12a3.518,3.518,0,0,0,2.279-1.71h0.3a5.2,5.2,0,0,0,3.9,1.89h0.63a0.186,0.186,0,0,0,.21-0.21V1993q-2.01-.36-2.009-0.63-0.99,0-1.559-2.52a2.3,2.3,0,0,1-.75-0.84h-1.259v0.21Zm9.715-3.78a8.558,8.558,0,0,0-1.26,4.35q-0.69,2.82-1.469,2.91a5.567,5.567,0,0,0-1.589.36q0.09,0.72-.21.72v1.41q0.3,0,.3.6a0.215,0.215,0,0,1,0,.18h1.589a6.972,6.972,0,0,0,4.5-1.89,9.3,9.3,0,0,0,2.039-2.88q0.09-.84.359-0.84v-2.58a1.917,1.917,0,0,1-.6-1.02,4.078,4.078,0,0,0-2.879-1.71,1.12,1.12,0,0,0-.779.39h0Zm17.606,3.89q-11.606,7.8-11.605,15.8v0.21a14.245,14.245,0,0,0,.39,3.39,16.931,16.931,0,0,0,3.209,6.21q7.346,6.99,16.016,6.98a21.2,21.2,0,0,0,11.6-3.59q11.01-8.49,11-21.59v-1.8l1.41,0.18h0.18l0.03-3.15-1.2-.18q-1.56-2.67-1.83-2.67h-0.6a1.76,1.76,0,0,0-1.79,1.8q0,2.64.21,4.8a28.287,28.287,0,0,1-2.82,12.02q-5.88,10.2-16.19,10.2h-1.2q-4.14,0-9.6-3.81-4.408-4.62-4.408-8.79a0.186,0.186,0,0,1,.21-0.21q0-4.74,6.387-10.79,10.5-7.71,19.22-9.42v-0.39l-1.02-.21q-8.49,0-17.6,5.01h0Zm1.41,12.8v0.27q0,2.1,3.18,2.94h0.48q1.98,0,2.46-2.7c0-1.64-.65-2.45-1.95-2.45h-0.99a3.279,3.279,0,0,0-3.18,1.94h0Zm27.31,9.36a1.031,1.031,0,0,0,1.26,1.05,1.841,1.841,0,0,0,.41-0.05,2.32,2.32,0,0,0,.4-0.13,26.338,26.338,0,0,1,4.16-1.38,28.135,28.135,0,0,1,4.42-.69q1.98-.06,1.98-0.9,0-.48-1.41-0.93a4.425,4.425,0,0,0-1.19-.28,15.541,15.541,0,0,0-1.69-.08,12.62,12.62,0,0,0-7.17,1.89,1.954,1.954,0,0,0-1.17,1.5h0Zm9-23.27q-0.6,0-1.05,2.31-1.02,1.47-4.56,1.44h-0.63a0.776,0.776,0,0,0-.54.78v1.38a0.89,0.89,0,0,0,.51.84h1.26q2.07-.03,3.27-0.12a3.515,3.515,0,0,0,2.28-1.71h0.3a5.208,5.208,0,0,0,3.9,1.89h0.63a0.186,0.186,0,0,0,.21-0.21V1992q-2.01-.36-2.01-0.63-0.99,0-1.56-2.52a2.3,2.3,0,0,1-.75-0.84h-1.26v0.21Zm21.44-27.88q-6.87,2.88-6.87,8.09v2.82a0.306,0.306,0,0,0,.33.36q0.24,0,1.08-2.31,3.15-6.09,6.33-6.68h1.23a1.136,1.136,0,0,1,1.23.86l-1.23,1.41q-3.18,2.07-3.18,4.59l0.18,0.36a4.159,4.159,0,0,0,1.59-1.41q5.28-2.82,5.28-4.77v-1.04q0-2.31-3.69-2.64h-0.18a7.449,7.449,0,0,0-2.1.36h0Zm3.09,25.6a17.149,17.149,0,0,1-2.43,1.83,29.957,29.957,0,0,1-7.86,3.51,55.571,55.571,0,0,1-8.3.6h-0.51a0.486,0.486,0,0,0-.3.09,0.705,0.705,0,0,1-.36.36l0.06,2.22a0.39,0.39,0,0,1,.3.45h3.48v-0.15a23.524,23.524,0,0,0,3.44-.42,42.487,42.487,0,0,0,6.84-1.98,25.948,25.948,0,0,0,6.66-3.72,9.264,9.264,0,0,0,2.46-3.21,0.708,0.708,0,0,1,.3-0.66v-0.96a1.9,1.9,0,0,1-.57-0.78h-1.11a9.929,9.929,0,0,1-2.1,2.82h0Zm2.67,10.42q-3.93,2.64-9.12,6.66-6.51,5.355-9.44,5.36a2.042,2.042,0,0,0-1.2-.15,13.507,13.507,0,0,1-2.94-1.02,0.633,0.633,0,0,0-.6.39v0.78a6.21,6.21,0,0,0,1.41,2.22,8.886,8.886,0,0,0,3.33,1.17q0.78-.21,2.37-0.51,1.47,0,12.29-8.87l4.95-3.42v-2.85a0.244,0.244,0,0,0-.24-0.27,0.765,0.765,0,0,0-.81.51h0Zm7.19-4.92c-0.74,2.6-2.66,4.09-5.78,4.47h-0.72a1.283,1.283,0,0,0-.72.72l0.45,1.2a1.228,1.228,0,0,0,1.08,1.26,14.3,14.3,0,0,0,3.36-.54q5.715-2.01,5.72-8.19V1990q-0.36-2.31-.9-2.31h-1.44q-1.05.21-1.05,3.75h0Zm-0.63,12.75q-4.545,3.195-4.55,5.93v0.93q0,0.96,1.98,2.28a0.676,0.676,0,0,0,.45-0.45,9.7,9.7,0,0,1-.6-2.13v-0.15q0-2.01,3.8-4.59a1.182,1.182,0,0,1,.3.93,8.733,8.733,0,0,1-1.23,3.36,48.409,48.409,0,0,0-3.5,5.94h0.48q6.225-5.43,6.23-9.3v-0.93c-0.16-1.41-.72-2.12-1.68-2.12h-0.6Zm38.34-26.45q-4.74,0-4.74,1.62,0,1.17,2.73,1.29,0.45,0,2.73-.18,7.65-1.71,7.64-4.74v-0.36a1.475,1.475,0,0,1-.36-0.93h-1.26q-2.085,3.3-6.74,3.3h0Zm29.41,8.72q-17.385,7.5-32.44,7.5h-1.71q-16.695,0-23.24-5.64a0.988,0.988,0,0,0-.75.57v0.18a6,6,0,0,0,1.68,3.21q2.13,2.37,9.18,4.5a75.094,75.094,0,0,0,16.34,1.86q8.82,0,20.81-3.75,10.845-4.29,13.49-4.29H1143a2.723,2.723,0,0,1,1.68.54,11.531,11.531,0,0,0-.39,1.89v2.25q1.35,3.75,4.71,3.75h1.11l-0.03-3.12q-3.54-.99-3.54-3.63a28.4,28.4,0,0,0,.75-3.39v-1.68l-0.36-.57a2.2,2.2,0,0,1-.93-0.92h-4.14a7.54,7.54,0,0,1-2.43.74h0Zm9.81,26.87a1.09,1.09,0,0,0,1.35,1.08,1.065,1.065,0,0,0,.39-0.06,3.114,3.114,0,0,1,.39-0.12,29.692,29.692,0,0,1,4.1-1.41,18.97,18.97,0,0,1,4.29-.6q2.04-.15,2.04-0.87,0-.54-1.35-1.02a8.16,8.16,0,0,0-1.29-.27,12.986,12.986,0,0,0-1.65-.09,14.748,14.748,0,0,0-3.89.48,11.635,11.635,0,0,0-3.12,1.32,2.314,2.314,0,0,0-1.26,1.56h0Zm6.77-21.89c-0.74,2.6-2.63,4.1-5.69,4.5h-0.72a1.283,1.283,0,0,0-.72.72l0.36,1.17a1.228,1.228,0,0,0,1.08,1.26,14.3,14.3,0,0,0,3.36-.54q5.715-2.01,5.72-8.19V1990q-0.36-2.31-.9-2.31h-1.44q-1.05.21-1.05,3.75h0Zm12,0.66a88.782,88.782,0,0,1-14.21,8.58v0.3a0.954,0.954,0,0,1,.51.51h2.43a40.606,40.606,0,0,0,8.06-3.84q3.99-2.07,10.26-8.07a4.459,4.459,0,0,0,.72-2.22,1.506,1.506,0,0,1-.3-0.81h-1.02q-2.31,2.1-6.45,5.55h0Zm14.18-3.42q-2.61,2.07-2.61,3.93v0.66a6.014,6.014,0,0,0,3.93,4.77v0.33a19.381,19.381,0,0,0-2.97,2.46q-11.925,7.875-17.06,7.88h-1.14a12.847,12.847,0,0,1-2.49-.66h-0.15v0.99l0.99,1.14,3.12,1.32h3.6a0.159,0.159,0,0,0,.18-0.18,40.765,40.765,0,0,0,11.01-4.92q3.585-1.83,8.84-7.43h2.49v-3l-1.17.03,0.18-.93q0-5.34-4.11-6.9h-1.65a2.749,2.749,0,0,0-.99.51h0Zm1.35,3.15q2.52,0.42,2.52,2.34v1.14q-3.48-.96-3.48-2.7a1.531,1.531,0,0,1,.96-0.78h0Zm10.26-3.39a8.558,8.558,0,0,0-1.26,4.35q-0.69,2.82-1.47,2.91a5.578,5.578,0,0,0-1.59.36q0.09,0.72-.21.72v1.41q0.3,0,.3.6a0.215,0.215,0,0,1,0,.18h1.59a6.975,6.975,0,0,0,4.5-1.89,9.288,9.288,0,0,0,2.04-2.88c0.06-.56.18-0.84,0.35-0.84v-2.58a1.931,1.931,0,0,1-.59-1.02,4.08,4.08,0,0,0-2.88-1.71,1.124,1.124,0,0,0-.78.39h0Zm7.03,1.22a13.611,13.611,0,0,0-.2,2.2,7.284,7.284,0,0,0,1.17,4.26q2.07,3.21,6.87,2.85l-0.09-3a6.219,6.219,0,0,1-1.75-.23,3.347,3.347,0,0,1-1.59-1.04,3.857,3.857,0,0,1-.98-1.73,7.023,7.023,0,0,1-.18-1.83,7.492,7.492,0,0,1,.09-1.17q0.09-.57.21-1.26a20.031,20.031,0,0,1,.98-3.22,20.959,20.959,0,0,1,1.51-3.04,12.835,12.835,0,0,0,1.47-2.91,0.689,0.689,0,0,0-.78-0.78q-1.08,0-3.18,2.88a22.957,22.957,0,0,0-2.91,5.54A14.876,14.876,0,0,0,1200.83,1989.66Zm11.62-1.22a8.558,8.558,0,0,0-1.26,4.35q-0.69,2.82-1.47,2.91a5.578,5.578,0,0,0-1.59.36q0.09,0.72-.21.72v1.41q0.3,0,.3.6a0.215,0.215,0,0,1,0,.18h1.59a6.975,6.975,0,0,0,4.5-1.89,9.288,9.288,0,0,0,2.04-2.88q0.09-.84.36-0.84v-2.58a1.908,1.908,0,0,1-.6-1.02,4.08,4.08,0,0,0-2.88-1.71,1.124,1.124,0,0,0-.78.39h0Z" transform="translate(-906.375 -1959.97)"/>
</svg>
