<svg xmlns="http://www.w3.org/2000/svg" width="231.219" height="30.78" viewBox="0 0 231.219 30.78">
  <defs>
    <style>
      .cls-1 {
        fill: #dcdcea;
        fill-rule: evenodd;
      }
    </style>
  </defs>
  <path id="our_customer" data-name="our customer" class="cls-1" d="M541.547,3625.96a6.9,6.9,0,0,0,5.3-1.96,7.844,7.844,0,0,0,1.838-5.56v-15.73a7.818,7.818,0,0,0-1.838-5.55,8.113,8.113,0,0,0-10.6,0,7.818,7.818,0,0,0-1.838,5.55v15.73a7.844,7.844,0,0,0,1.838,5.56,6.9,6.9,0,0,0,5.3,1.96h0Zm0-4.27c-1.624,0-2.436-.98-2.436-2.95v-16.33q0-2.94,2.436-2.94t2.437,2.94v16.33c0,1.97-.812,2.95-2.437,2.95h0Zm20.557,4.27a6.731,6.731,0,0,0,5.214-1.94,7.946,7.946,0,0,0,1.8-5.58v-22.82h-4.53v23.16a3.285,3.285,0,0,1-.62,2.23,2.653,2.653,0,0,1-3.547,0,3.28,3.28,0,0,1-.62-2.23v-23.16h-4.7v22.82a7.946,7.946,0,0,0,1.795,5.58,6.729,6.729,0,0,0,5.214,1.94h0Zm13.761-.42h4.7v-12.83h1.624a2.81,2.81,0,0,1,2.287.82,4.628,4.628,0,0,1,.662,2.86v5.47a20.377,20.377,0,0,0,.086,2.31,6.915,6.915,0,0,0,.341,1.37h4.787a5.285,5.285,0,0,1-.427-1.56,19.914,19.914,0,0,1-.086-2.08v-5.25a10.516,10.516,0,0,0-.705-4.23,3.657,3.657,0,0,0-2.415-2.1v-0.08q3.078-1.245,3.078-5.9v-1.84q0-3.51-1.667-5.19-1.666-1.7-5.3-1.69h-6.966v29.92Zm4.7-17.1v-8.55H582.7a2.192,2.192,0,0,1,1.816.73,3.79,3.79,0,0,1,.577,2.35v2.31a3.409,3.409,0,0,1-.705,2.43,2.8,2.8,0,0,1-2.115.73h-1.71Zm32.822,17.52a6.667,6.667,0,0,0,5.15-1.92,7.711,7.711,0,0,0,1.774-5.43v-4.23h-4.445v4.57c0,1.83-.784,2.74-2.351,2.74s-2.35-.91-2.35-2.74v-16.71c0-1.85.783-2.77,2.35-2.77s2.351,0.92,2.351,2.77v3.47h4.445v-3.17a7.7,7.7,0,0,0-1.774-5.42,7.836,7.836,0,0,0-10.3,0,7.7,7.7,0,0,0-1.773,5.42v16.07a7.71,7.71,0,0,0,1.773,5.43,6.664,6.664,0,0,0,5.15,1.92h0Zm20,0a6.731,6.731,0,0,0,5.214-1.94,7.946,7.946,0,0,0,1.8-5.58v-22.82h-4.53v23.16a3.285,3.285,0,0,1-.62,2.23,2.653,2.653,0,0,1-3.547,0,3.285,3.285,0,0,1-.62-2.23v-23.16h-4.7v22.82a7.946,7.946,0,0,0,1.795,5.58,6.729,6.729,0,0,0,5.214,1.94h0Zm19.873,0a6.833,6.833,0,0,0,5.278-1.96,8.018,8.018,0,0,0,1.816-5.64,10.382,10.382,0,0,0-1.111-4.92,17.7,17.7,0,0,0-4.06-4.66,16.731,16.731,0,0,1-3.184-3.42,5.64,5.64,0,0,1-.876-3.03c0-1.91.783-2.86,2.35-2.86a2.169,2.169,0,0,1,1.753.7,3.441,3.441,0,0,1,.6,2.24v1.54h4.445v-1.24a8.093,8.093,0,0,0-1.731-5.57,6.473,6.473,0,0,0-5.107-1.95,6.733,6.733,0,0,0-5.214,1.95,7.773,7.773,0,0,0-1.8,5.49,9.439,9.439,0,0,0,1.154,4.68,18.962,18.962,0,0,0,4.06,4.64,15.484,15.484,0,0,1,3.162,3.44,6.3,6.3,0,0,1,.855,3.31,3.417,3.417,0,0,1-.62,2.28,2.292,2.292,0,0,1-1.816.71q-2.436,0-2.436-2.91v-2.05h-4.445v1.71a8.074,8.074,0,0,0,1.752,5.58,6.592,6.592,0,0,0,5.172,1.94h0Zm16.881-.42h4.7v-25.65h4.915v-4.27H665.228v4.27h4.915v25.65Zm21.924,0.42a6.9,6.9,0,0,0,5.3-1.96,7.844,7.844,0,0,0,1.838-5.56v-15.73a7.818,7.818,0,0,0-1.838-5.55,8.112,8.112,0,0,0-10.6,0,7.813,7.813,0,0,0-1.838,5.55v15.73a7.839,7.839,0,0,0,1.838,5.56,6.9,6.9,0,0,0,5.3,1.96h0Zm0-4.27c-1.624,0-2.436-.98-2.436-2.95v-16.33q0-2.94,2.436-2.94t2.436,2.94v16.33c0,1.97-.812,2.95-2.436,2.95h0Zm13.718,3.85h4.1v-22.65h0.086l3.419,22.65h3.932l3.419-22.65h0.085v22.65h4.445v-29.92h-6.71l-2.992,21.41h-0.085l-2.992-21.41h-6.71v29.92Zm26.412,0h12.821v-4.28H736.9v-9.19h6.453v-4.27H736.9v-7.91h8.12v-4.27H732.2v29.92Zm18.932,0h4.7v-12.83h1.624a2.81,2.81,0,0,1,2.287.82,4.628,4.628,0,0,1,.662,2.86v5.47a20.377,20.377,0,0,0,.086,2.31,6.922,6.922,0,0,0,.342,1.37h4.786a5.315,5.315,0,0,1-.427-1.56,19.914,19.914,0,0,1-.086-2.08v-5.25a10.516,10.516,0,0,0-.705-4.23,3.658,3.658,0,0,0-2.414-2.1v-0.08q3.076-1.245,3.077-5.9v-1.84q0-3.51-1.667-5.19-1.667-1.7-5.3-1.69h-6.966v29.92Zm4.7-17.1v-8.55h2.137a2.2,2.2,0,0,1,1.817.73,3.8,3.8,0,0,1,.577,2.35v2.31a3.409,3.409,0,0,1-.706,2.43,2.8,2.8,0,0,1-2.115.73h-1.71Z" transform="translate(-534.406 -3595.19)"/>
</svg>
