<svg xmlns="http://www.w3.org/2000/svg" width="276.096" height="41.31" viewBox="0 0 276.096 41.31">
  <defs>
    <style>
      .cls-1 {
        fill: #fff;
        fill-rule: evenodd;
      }
    </style>
  </defs>
  <path id="داستان_پرشین_میزبان" data-name="داستان   پرشین میزبان" class="cls-1" d="M956.907,2658.21a11.176,11.176,0,0,0,4.432-.85,9.752,9.752,0,0,0,3.334-2.33,10.4,10.4,0,0,0,2.1-3.45,11.934,11.934,0,0,0,.732-4.2v-11.45H960.53v11.87a2.844,2.844,0,0,1-.887,2.16,4.247,4.247,0,0,1-2.967.85H955.4a4.021,4.021,0,0,1-2.736-.77,2.883,2.883,0,0,1-.848-2.24v-8.25h-6.975v8.06a13.278,13.278,0,0,0,.693,4.43,9.129,9.129,0,0,0,2,3.33,8.55,8.55,0,0,0,3.18,2.1,11.562,11.562,0,0,0,4.258.74h1.927Zm1.5-26.25H951.4v5.28h7.014v-5.28Zm18.267,10.33a0.544,0.544,0,0,1-.617-0.62v-15.45h-7.014v16.07a10.529,10.529,0,0,0,.386,2.87,6.237,6.237,0,0,0,1.233,2.37,5.973,5.973,0,0,0,2.216,1.6,8.394,8.394,0,0,0,3.372.6h1.888a1.015,1.015,0,0,0,.405-0.08,0.632,0.632,0,0,0,.27-0.46,6.54,6.54,0,0,0,.135-1.16c0.025-.51.038-1.22,0.038-2.12,0-.84-0.013-1.51-0.038-2a5.487,5.487,0,0,0-.135-1.08,0.678,0.678,0,0,0-.27-0.44,0.766,0.766,0,0,0-.405-0.1h-1.464Zm1.079,5.82c0.026,0.49.058,0.85,0.1,1.1a0.977,0.977,0,0,0,.135.44,0.235,0.235,0,0,0,.154.08h6.128a7.956,7.956,0,0,0,2.794-.48,6.118,6.118,0,0,0,3.7-3.72,9.245,9.245,0,0,0,.521-3.24v-6.36h-7.014v5.74a0.544,0.544,0,0,1-.617.62h-5.511a0.2,0.2,0,0,0-.154.1,1.159,1.159,0,0,0-.135.46q-0.057.36-.1,1.14c-0.025.51-.039,1.22-0.039,2.12C977.717,2646.95,977.731,2647.62,977.756,2648.11Zm8.247,3.74h-7.014v5.32H986v-5.32Zm1.772-.62,0.617,7.4h1.888a9.593,9.593,0,0,0,6.744-2.64,10.11,10.11,0,0,0,2.082-2.85,11,11,0,0,0,1.044-3.53,9.53,9.53,0,0,0,1.61.12h0.62a1.033,1.033,0,0,0,.41-0.08,0.668,0.668,0,0,0,.27-0.46,7.532,7.532,0,0,0,.13-1.16c0.03-.51.04-1.22,0.04-2.12,0-.84-0.01-1.51-0.04-2a6.294,6.294,0,0,0-.13-1.08,0.723,0.723,0,0,0-.27-0.44,0.78,0.78,0,0,0-.41-0.1h-1.46a0.517,0.517,0,0,1-.62-0.54v-5.82h-7.014v12.33a2.832,2.832,0,0,1-.867,2.12,4.123,4.123,0,0,1-2.948.85h-1.7Zm12.525-22.7h-7.014v5.28h7.014v-5.28Zm2.08,13.76a0.744,0.744,0,0,0-.4.1,0.672,0.672,0,0,0-.27.46,5.781,5.781,0,0,0-.14,1.14c-0.02.51-.04,1.22-0.04,2.12,0,0.84.02,1.51,0.04,2a5.725,5.725,0,0,0,.14,1.1,0.6,0.6,0,0,0,.27.44,0.983,0.983,0,0,0,.4.08h2.12a7.558,7.558,0,0,0,1.72-.23,4.482,4.482,0,0,0,1.86-1.04,3.793,3.793,0,0,0,1.91,1.04,12.026,12.026,0,0,0,2.41.23h1.2a1.019,1.019,0,0,0,.4-0.08,0.605,0.605,0,0,0,.27-0.46,7.281,7.281,0,0,0,.14-1.16c0.02-.51.03-1.22,0.03-2.12,0-.84-0.01-1.51-0.03-2a6.079,6.079,0,0,0-.14-1.08,0.645,0.645,0,0,0-.27-0.44,0.767,0.767,0,0,0-.4-0.1h-1.47a0.547,0.547,0,0,1-.62-0.62v-5.74h-7.01v5.74a0.583,0.583,0,0,1-.19.45,0.688,0.688,0,0,1-.46.17h-1.47Zm11.02,9.52h-11.02v5.32h11.02v-5.32Zm0.2-9.52a0.78,0.78,0,0,0-.41.1,0.71,0.71,0,0,0-.27.46,5.958,5.958,0,0,0-.13,1.14c-0.03.51-.04,1.22-0.04,2.12,0,0.84.01,1.51,0.04,2a5.886,5.886,0,0,0,.13,1.1,0.63,0.63,0,0,0,.27.44,1.033,1.033,0,0,0,.41.08c0.74,0,1.38-.01,1.92-0.04a8.51,8.51,0,0,0,1.45-.19,5.965,5.965,0,0,0,1.15-.39,3.6,3.6,0,0,0,.99-0.65,4.865,4.865,0,0,0,1.85.96,7.727,7.727,0,0,0,2.19.31,7.473,7.473,0,0,0,5.74-2.22,8.492,8.492,0,0,0,2.09-6.07,8.644,8.644,0,0,0-1.89-5.85,7.055,7.055,0,0,0-5.67-2.2,7.336,7.336,0,0,0-5.64,2.21,8.561,8.561,0,0,0-2.07,6.07,0.583,0.583,0,0,1-.19.45,0.688,0.688,0,0,1-.46.17h-1.46Zm9.67-2.12a1.067,1.067,0,0,1,1.12,1.27,1.194,1.194,0,0,1-.35,1.04,1.316,1.316,0,0,1-.77.23,1.441,1.441,0,0,1-.85-0.23,1.194,1.194,0,0,1-.35-1.04,1.1,1.1,0,0,1,1.2-1.27h0Zm33.68-4.24h-6.98v11.87a2.842,2.842,0,0,1-.88,2.16,4.249,4.249,0,0,1-2.97.85h-1.27a4.04,4.04,0,0,1-2.74-.77,2.9,2.9,0,0,1-.85-2.24v-8.25h-6.97v8.06a13.331,13.331,0,0,0,.69,4.43,9.141,9.141,0,0,0,2.01,3.33,8.5,8.5,0,0,0,3.18,2.1,11.508,11.508,0,0,0,4.25.74h1.93a11.174,11.174,0,0,0,3.93-.66,9.924,9.924,0,0,0,3.1-1.81,9.4,9.4,0,0,0,2.18-2.74,10.978,10.978,0,0,0,1.16-3.39,3.706,3.706,0,0,0,.77.1c0.31,0.01.62,0.02,0.92,0.02h0.66a0.855,0.855,0,0,0,.38-0.08,0.668,0.668,0,0,0,.27-0.46,5.252,5.252,0,0,0,.16-1.16c0.02-.51.04-1.22,0.04-2.12,0-.84-0.02-1.51-0.04-2a4.421,4.421,0,0,0-.16-1.08,0.723,0.723,0,0,0-.27-0.44,0.653,0.653,0,0,0-.38-0.1h-1.5a0.682,0.682,0,0,1-.43-0.15,0.478,0.478,0,0,1-.19-0.39v-5.82Zm-9.1-3.97h-7.01v5.28h7.01v-5.28Zm11.22,10.33a0.78,0.78,0,0,0-.41.1,0.753,0.753,0,0,0-.27.46,6.914,6.914,0,0,0-.13,1.14c-0.03.51-.04,1.22-0.04,2.12,0,0.84.01,1.51,0.04,2a6.889,6.889,0,0,0,.13,1.1,0.665,0.665,0,0,0,.27.44,1.033,1.033,0,0,0,.41.08h2.12a7.478,7.478,0,0,0,1.71-.23,4.514,4.514,0,0,0,1.87-1.04,3.793,3.793,0,0,0,1.91,1.04,12.026,12.026,0,0,0,2.41.23h1.19a1.033,1.033,0,0,0,.41-0.08,0.668,0.668,0,0,0,.27-0.46,6.448,6.448,0,0,0,.13-1.16c0.03-.51.04-1.22,0.04-2.12,0-.84-0.01-1.51-0.04-2a5.416,5.416,0,0,0-.13-1.08,0.723,0.723,0,0,0-.27-0.44,0.78,0.78,0,0,0-.41-0.1h-1.46a0.547,0.547,0,0,1-.62-0.62v-5.74h-7.01v5.74a0.619,0.619,0,0,1-.19.45,0.714,0.714,0,0,1-.47.17h-1.46Zm11.02,9.52h-11.02v5.32h11.02v-5.32Zm0.19-9.52a0.744,0.744,0,0,0-.4.1,0.672,0.672,0,0,0-.27.46,5.781,5.781,0,0,0-.14,1.14c-0.02.51-.03,1.22-0.03,2.12,0,0.84.01,1.51,0.03,2a5.725,5.725,0,0,0,.14,1.1,0.6,0.6,0,0,0,.27.44,0.983,0.983,0,0,0,.4.08h2.55a6.234,6.234,0,0,0,1.35-.23,4.65,4.65,0,0,0,1.81-1.04,3.782,3.782,0,0,0,1.92,1.04,10.094,10.094,0,0,0,1.93.23h1.04a5.829,5.829,0,0,0,1.33-.23,5.3,5.3,0,0,0,1.87-1.04,3.542,3.542,0,0,0,1.89,1.04,10,10,0,0,0,1.92.23,8.81,8.81,0,0,0,2.76-.44,6.848,6.848,0,0,0,2.37-1.37,6.775,6.775,0,0,0,1.66-2.31,8.168,8.168,0,0,0,.61-3.32v-6.36h-6.78v5.74a0.583,0.583,0,0,1-.19.45,0.65,0.65,0,0,1-.43.17,0.688,0.688,0,0,1-.46-0.17,0.583,0.583,0,0,1-.19-0.45v-5.74h-6.78v5.74a0.591,0.591,0,0,1-.2.45,0.625,0.625,0,0,1-.42.17,0.688,0.688,0,0,1-.46-0.17,0.583,0.583,0,0,1-.19-0.45v-5.74h-6.79v5.74a0.583,0.583,0,0,1-.19.45,0.688,0.688,0,0,1-.46.17h-1.47Zm15.88-20.12h-5.51v5.28h5.51v-5.28Zm2.78,6.36h-11.03v5.28h11.03v-5.28Zm15.33,7.4h-7.01v12.33a2.827,2.827,0,0,1-.87,2.12,4.127,4.127,0,0,1-2.95.85h-4.04l0.65,7.4h4.24a9.667,9.667,0,0,0,3.72-.71,9.8,9.8,0,0,0,2.99-1.93,10.065,10.065,0,0,0,2.08-2.85,10.771,10.771,0,0,0,1.04-3.53,9.572,9.572,0,0,0,1.62.12h0.61a1.033,1.033,0,0,0,.41-0.08,0.668,0.668,0,0,0,.27-0.46,6.448,6.448,0,0,0,.13-1.16c0.03-.51.04-1.22,0.04-2.12,0-.84-0.01-1.51-0.04-2a5.416,5.416,0,0,0-.13-1.08,0.723,0.723,0,0,0-.27-0.44,0.78,0.78,0,0,0-.41-0.1h-1.46a0.517,0.517,0,0,1-.62-0.54v-5.82Zm2.08,6.36a0.767,0.767,0,0,0-.4.1,0.672,0.672,0,0,0-.27.46,5.958,5.958,0,0,0-.13,1.14c-0.03.51-.04,1.22-0.04,2.12,0,0.84.01,1.51,0.04,2a5.886,5.886,0,0,0,.13,1.1,0.6,0.6,0,0,0,.27.44,1.019,1.019,0,0,0,.4.08h2.97a8.034,8.034,0,0,0,2.8-.48,5.985,5.985,0,0,0,2.21-1.41,6.455,6.455,0,0,0,1.45-2.31,9.409,9.409,0,0,0,.52-3.24v-6.36h-6.98v5.74a0.583,0.583,0,0,1-.19.45,0.645,0.645,0,0,1-.42.17h-2.36Zm8.25,15.88h-5.51v5.32h5.51v-5.32Zm2.78-6.36h-11.03v5.32h11.03v-5.32Zm18.15,6.4a11.18,11.18,0,0,0,4.43-.85,9.707,9.707,0,0,0,3.33-2.33,10.452,10.452,0,0,0,2.1-3.45,11.888,11.888,0,0,0,.73-4.2v-11.45h-6.97v11.87a2.85,2.85,0,0,1-.89,2.16,4.249,4.249,0,0,1-2.97.85h-1.27a3.993,3.993,0,0,1-2.73-.77,2.866,2.866,0,0,1-.85-2.24v-8.25h-6.98v8.06a13.074,13.074,0,0,0,.7,4.43,9.122,9.122,0,0,0,2,3.33,8.5,8.5,0,0,0,3.18,2.1,11.6,11.6,0,0,0,4.26.74h1.93Zm1.5-26.25h-7.02v5.28h7.02v-5.28Zm18.27,10.33a0.543,0.543,0,0,1-.62-0.62v-15.45h-7.01v16.07a10.412,10.412,0,0,0,.38,2.87,6.375,6.375,0,0,0,1.23,2.37,6.046,6.046,0,0,0,2.22,1.6,8.4,8.4,0,0,0,3.37.6h1.89a0.983,0.983,0,0,0,.4-0.08,0.605,0.605,0,0,0,.27-0.46,6.266,6.266,0,0,0,.14-1.16c0.02-.51.04-1.22,0.04-2.12,0-.84-0.02-1.51-0.04-2a5.259,5.259,0,0,0-.14-1.08,0.645,0.645,0,0,0-.27-0.44,0.744,0.744,0,0,0-.4-0.1h-1.46Zm1.46,0a0.744,0.744,0,0,0-.4.1,0.672,0.672,0,0,0-.27.46,5.781,5.781,0,0,0-.14,1.14c-0.02.51-.04,1.22-0.04,2.12,0,0.84.02,1.51,0.04,2a5.725,5.725,0,0,0,.14,1.1,0.6,0.6,0,0,0,.27.44,0.983,0.983,0,0,0,.4.08h2.12a7.478,7.478,0,0,0,1.71-.23,4.514,4.514,0,0,0,1.87-1.04,3.793,3.793,0,0,0,1.91,1.04,12.026,12.026,0,0,0,2.41.23h1.19a1.033,1.033,0,0,0,.41-0.08,0.668,0.668,0,0,0,.27-0.46,6.448,6.448,0,0,0,.13-1.16c0.03-.51.04-1.22,0.04-2.12,0-.84-0.01-1.51-0.04-2a5.416,5.416,0,0,0-.13-1.08,0.723,0.723,0,0,0-.27-0.44,0.78,0.78,0,0,0-.41-0.1h-1.46a0.547,0.547,0,0,1-.62-0.62v-5.74h-7.01v5.74a0.583,0.583,0,0,1-.19.45,0.714,0.714,0,0,1-.47.17h-1.46Zm11.02-13.76h-11.02v5.28h11.02v-5.28Zm0.19,13.76a0.767,0.767,0,0,0-.4.1,0.672,0.672,0,0,0-.27.46,6.673,6.673,0,0,0-.14,1.14c-0.02.51-.03,1.22-0.03,2.12,0,0.84.01,1.51,0.03,2a6.665,6.665,0,0,0,.14,1.1,0.6,0.6,0,0,0,.27.44,1.019,1.019,0,0,0,.4.08h2.55a6.05,6.05,0,0,0,1.35-.23,4.65,4.65,0,0,0,1.81-1.04,3.782,3.782,0,0,0,1.92,1.04,10.094,10.094,0,0,0,1.93.23h1.04a5.829,5.829,0,0,0,1.33-.23,5.3,5.3,0,0,0,1.87-1.04,3.542,3.542,0,0,0,1.89,1.04,10.005,10.005,0,0,0,1.93.23,8.748,8.748,0,0,0,2.75-.44,6.848,6.848,0,0,0,2.37-1.37,6.644,6.644,0,0,0,1.66-2.31,8.163,8.163,0,0,0,.62-3.32v-6.36h-6.79v5.74a0.583,0.583,0,0,1-.19.45,0.645,0.645,0,0,1-.42.17,0.714,0.714,0,0,1-.47-0.17,0.583,0.583,0,0,1-.19-0.45v-5.74h-6.78v5.74a0.619,0.619,0,0,1-.19.45,0.65,0.65,0,0,1-.43.17,0.688,0.688,0,0,1-.46-0.17,0.583,0.583,0,0,1-.19-0.45v-5.74h-6.79v5.74a0.583,0.583,0,0,1-.19.45,0.688,0.688,0,0,1-.46.17h-1.47Zm26.56,7.44h7.01v-23.51h-7.01v23.51Zm17.45-8.83a1.579,1.579,0,0,1,.43.89,0.5,0.5,0,0,1-.62.5h-8.9l0.62,7.44h10.17a9.469,9.469,0,0,0,3.22-.5,6.287,6.287,0,0,0,2.25-1.37,5.558,5.558,0,0,0,1.33-2.02,6.763,6.763,0,0,0,.44-2.47,8.319,8.319,0,0,0-.44-2.58,9.391,9.391,0,0,0-1.91-3.12l-6.78-8.29-5.28,5.09Z" transform="translate(-944.844 -2622.19)"/>
</svg>
