<svg version="1.2" xmlns="http://www.w3.org/2000/svg" viewBox="0 0 196 226" width="196" height="226">
	<title>Vector Smart Object1-ai</title>
	<defs>
		<radialGradient id="g1" cx="98" cy="208.6" r="40.8" gradientUnits="userSpaceOnUse">
			<stop offset="0" stop-color="#b6a4d2"/>
			<stop offset=".4" stop-color="#dbc4e1"/>
			<stop offset="1" stop-color="#ffffff"/>
		</radialGradient>
		<linearGradient id="g2" x1="60.7" y1="191.2" x2="64.6" y2="159.9" gradientUnits="userSpaceOnUse">
			<stop offset="0" stop-color="#cbc6e3"/>
			<stop offset="1" stop-color="#ebe1f0"/>
		</linearGradient>
		<linearGradient id="g3" x1="93.2" y1="197.6" x2="98.7" y2="154" gradientUnits="userSpaceOnUse">
			<stop offset="0" stop-color="#cbc6e3"/>
			<stop offset="1" stop-color="#ebe1f0"/>
		</linearGradient>
		<linearGradient id="g4" x1="64.7" y1="169.6" x2="64.7" y2="160" gradientUnits="userSpaceOnUse">
			<stop offset="0" stop-color="#b6a4d2"/>
			<stop offset="1" stop-color="#8d8fc9"/>
		</linearGradient>
		<linearGradient id="g5" x1="96.5" y1="170.8" x2="96.5" y2="155.6" gradientUnits="userSpaceOnUse">
			<stop offset="0" stop-color="#b6a4d2"/>
			<stop offset="1" stop-color="#8d8fc9"/>
		</linearGradient>
		<linearGradient id="g6" x1="64.6" y1="194.7" x2="64.6" y2="160.4" gradientUnits="userSpaceOnUse">
			<stop offset="0" stop-color="#8d68b4"/>
			<stop offset="1" stop-color="#ccf1fd"/>
		</linearGradient>
		<linearGradient id="g7" x1="96.5" y1="198.1" x2="96.5" y2="156.8" gradientUnits="userSpaceOnUse">
			<stop offset="0" stop-color="#8d68b4"/>
			<stop offset="1" stop-color="#ccf1fd"/>
		</linearGradient>
		<linearGradient id="g8" x1="39.5" y1="160.3" x2="47" y2="100.9" gradientUnits="userSpaceOnUse">
			<stop offset="0" stop-color="#cbc6e3"/>
			<stop offset="1" stop-color="#ebe1f0"/>
		</linearGradient>
		<linearGradient id="g9" x1="39.9" y1="160.2" x2="39.9" y2="153.1" gradientUnits="userSpaceOnUse">
			<stop offset="0" stop-color="#b6a4d2"/>
			<stop offset="1" stop-color="#8d8fc9"/>
		</linearGradient>
		<linearGradient id="g10" x1="39.8" y1="161.3" x2="39.8" y2="110.8" gradientUnits="userSpaceOnUse">
			<stop offset="0" stop-color="#8d68b4"/>
			<stop offset="1" stop-color="#ccf1fd"/>
		</linearGradient>
		<linearGradient id="g11" x1="37.3" y1="185.9" x2="41.3" y2="154.2" gradientUnits="userSpaceOnUse">
			<stop offset="0" stop-color="#cbc6e3"/>
			<stop offset="1" stop-color="#ebe1f0"/>
		</linearGradient>
		<linearGradient id="g12" x1="47.8" y1="187.7" x2="47.8" y2="158.4" gradientUnits="userSpaceOnUse">
			<stop offset="0" stop-color="#b6a4d2"/>
			<stop offset="1" stop-color="#8d8fc9"/>
		</linearGradient>
		<linearGradient id="g13" x1="47.8" y1="178.4" x2="47.8" y2="167.3" gradientUnits="userSpaceOnUse">
			<stop offset="0" stop-color="#88aad9"/>
			<stop offset="1" stop-color="#5f5aaf"/>
		</linearGradient>
		<linearGradient id="g14" x1="47.7" y1="176.1" x2="49.9" y2="158.2" gradientUnits="userSpaceOnUse">
			<stop offset="0" stop-color="#cbc6e3"/>
			<stop offset="1" stop-color="#ebe1f0"/>
		</linearGradient>
		<linearGradient id="g15" x1="70.6" y1="53.5" x2="70.6" y2="18.8" gradientUnits="userSpaceOnUse">
			<stop offset="0" stop-color="#b6b2da"/>
			<stop offset="1" stop-color="#e3d6ea"/>
		</linearGradient>
		<linearGradient id="g16" x1="49.9" y1="40.4" x2="49.9" y2="18.8" gradientUnits="userSpaceOnUse">
			<stop offset="0" stop-color="#b6a4d2"/>
			<stop offset="1" stop-color="#8d8fc9"/>
		</linearGradient>
		<linearGradient id="g17" x1="118.7" y1="53.5" x2="118.7" y2="18.8" gradientUnits="userSpaceOnUse">
			<stop offset="0" stop-color="#b6b2da"/>
			<stop offset="1" stop-color="#e3d6ea"/>
		</linearGradient>
		<linearGradient id="g18" x1="126.2" y1="37.6" x2="126.2" y2="18.9" gradientUnits="userSpaceOnUse">
			<stop offset="0" stop-color="#b6a4d2"/>
			<stop offset="1" stop-color="#8d8fc9"/>
		</linearGradient>
		<linearGradient id="g19" x1="128.4" y1="55.1" x2="128.4" y2="21.1" gradientUnits="userSpaceOnUse">
			<stop offset="0" stop-color="#76d2b8"/>
			<stop offset="1" stop-color="#5fd4ee"/>
		</linearGradient>
		<linearGradient id="g20" x1="60.9" y1="55.1" x2="60.9" y2="21.1" gradientUnits="userSpaceOnUse">
			<stop offset="0" stop-color="#76d2b8"/>
			<stop offset="1" stop-color="#5fd4ee"/>
		</linearGradient>
		<linearGradient id="g21" x1="41.6" y1="91.7" x2="52" y2="8.7" gradientUnits="userSpaceOnUse">
			<stop offset="0" stop-color="#cbc6e3"/>
			<stop offset="1" stop-color="#ebe1f0"/>
		</linearGradient>
		<linearGradient id="g22" x1="52.5" y1="75.1" x2="52.5" y2="18.8" gradientUnits="userSpaceOnUse">
			<stop offset="0" stop-color="#1a65b6"/>
			<stop offset="1" stop-color="#162573"/>
		</linearGradient>
		<linearGradient id="g23" x1="44.8" y1="97.1" x2="44.8" y2="49.5" gradientUnits="userSpaceOnUse">
			<stop offset="0" stop-color="#8d68b4"/>
			<stop offset="1" stop-color="#ccf1fd"/>
		</linearGradient>
		<linearGradient id="g24" x1="59.8" y1="86.4" x2="126.5" y2="86.4" gradientUnits="userSpaceOnUse">
			<stop offset="0" stop-color="#6e79be"/>
			<stop offset="1" stop-color="#8d8fc9"/>
		</linearGradient>
		<linearGradient id="g25" x1="57.6" y1="98.1" x2="57.6" y2="89" gradientUnits="userSpaceOnUse">
			<stop offset="0" stop-color="#88aad9"/>
			<stop offset="1" stop-color="#5f5aaf"/>
		</linearGradient>
		<linearGradient id="g26" x1="64.3" y1="93.3" x2="65.5" y2="84.3" gradientUnits="userSpaceOnUse">
			<stop offset="0" stop-color="#4348a6"/>
			<stop offset="1" stop-color="#55459d"/>
		</linearGradient>
		<linearGradient id="g27" x1="60.8" y1="166.6" x2="70.3" y2="90.4" gradientUnits="userSpaceOnUse">
			<stop offset="0" stop-color="#cbc6e3"/>
			<stop offset="1" stop-color="#ebe1f0"/>
		</linearGradient>
		<linearGradient id="g28" x1="110.9" y1="98.8" x2="119.9" y2="98.8" gradientUnits="userSpaceOnUse">
			<stop offset="0" stop-color="#6e79be"/>
			<stop offset="1" stop-color="#8d8fc9"/>
		</linearGradient>
		<linearGradient id="g29" x1="107.9" y1="115.3" x2="113.8" y2="67.8" gradientUnits="userSpaceOnUse">
			<stop offset="0" stop-color="#cbc6e3"/>
			<stop offset="1" stop-color="#ebe1f0"/>
		</linearGradient>
		<linearGradient id="g30" x1="45.4" y1="89.7" x2="45.4" y2="76.6" gradientUnits="userSpaceOnUse">
			<stop offset="0" stop-color="#88aad9"/>
			<stop offset="1" stop-color="#5f5aaf"/>
		</linearGradient>
		<linearGradient id="g31" x1="143.5" y1="88.1" x2="143.5" y2="73.5" gradientUnits="userSpaceOnUse">
			<stop offset="0" stop-color="#b6a4d2"/>
			<stop offset="1" stop-color="#8d8fc9"/>
		</linearGradient>
		<linearGradient id="g32" x1="102.8" y1="46" x2="102.8" y2="33.7" gradientUnits="userSpaceOnUse">
			<stop offset="0" stop-color="#76d2b8"/>
			<stop offset="1" stop-color="#5fd4ee"/>
		</linearGradient>
		<linearGradient id="g33" x1="85.8" y1="46" x2="85.8" y2="33.7" gradientUnits="userSpaceOnUse">
			<stop offset="0" stop-color="#76d2b8"/>
			<stop offset="1" stop-color="#5fd4ee"/>
		</linearGradient>
		<linearGradient id="g34" x1="22.5" y1="76.1" x2="27.3" y2="38.1" gradientUnits="userSpaceOnUse">
			<stop offset="0" stop-color="#b6a4d2"/>
			<stop offset="1" stop-color="#8d8fc9"/>
		</linearGradient>
		<linearGradient id="g35" x1="49.1" y1="78.2" x2="51.2" y2="69.4" gradientUnits="userSpaceOnUse">
			<stop offset="0" stop-color="#e9359b"/>
			<stop offset="1" stop-color="#fd3787"/>
		</linearGradient>
		<linearGradient id="g36" x1="65.3" y1="17.2" x2="126.1" y2="17.2" gradientUnits="userSpaceOnUse">
			<stop offset="0" stop-color="#0c0c0c"/>
			<stop offset="1" stop-color="#689bd2"/>
		</linearGradient>
		<linearGradient id="g37" x1="74.3" y1="67.1" x2="117.4" y2="67.1" gradientUnits="userSpaceOnUse">
			<stop offset="0" stop-color="#0c0c0c"/>
			<stop offset="1" stop-color="#689bd2"/>
		</linearGradient>
		<linearGradient id="g38" x1="136.1" y1="51.9" x2="136.1" y2="50.5" gradientUnits="userSpaceOnUse">
			<stop offset="0" stop-color="#8d68b4"/>
			<stop offset="1" stop-color="#ccf1fd"/>
		</linearGradient>
		<linearGradient id="g39" x1="64.9" y1="170.6" x2="64.9" y2="109.3" gradientUnits="userSpaceOnUse">
			<stop offset="0" stop-color="#8d68b4"/>
			<stop offset="1" stop-color="#ccf1fd"/>
		</linearGradient>
		<linearGradient id="g40" x1="66.7" y1="169.4" x2="66.7" y2="122.2" gradientUnits="userSpaceOnUse">
			<stop offset="0" stop-color="#b6a4d2"/>
			<stop offset="1" stop-color="#8d8fc9"/>
		</linearGradient>
		<radialGradient id="g41" cx="95.3" cy="163.3" r="35.5" gradientUnits="userSpaceOnUse">
			<stop offset="0" stop-color="#76d2b8"/>
			<stop offset="1" stop-color="#5fd4ee"/>
		</radialGradient>
		<linearGradient id="g42" x1="72.7" y1="107.9" x2="72.7" y2="93.7" gradientUnits="userSpaceOnUse">
			<stop offset="0" stop-color="#88aad9"/>
			<stop offset="1" stop-color="#5f5aaf"/>
		</linearGradient>
		<linearGradient id="g43" x1="75.5" y1="167.9" x2="75.5" y2="160.7" gradientUnits="userSpaceOnUse">
			<stop offset="0" stop-color="#d6e7f5"/>
			<stop offset="1" stop-color="#0c0c0c"/>
		</linearGradient>
		<linearGradient id="g44" x1="109.8" y1="117.2" x2="109.8" y2="73.4" gradientUnits="userSpaceOnUse">
			<stop offset="0" stop-color="#8d68b4"/>
			<stop offset="1" stop-color="#ccf1fd"/>
		</linearGradient>
		<linearGradient id="g45" x1="142.8" y1="83.4" x2="147" y2="50.3" gradientUnits="userSpaceOnUse">
			<stop offset="0" stop-color="#cbc6e3"/>
			<stop offset="1" stop-color="#ebe1f0"/>
		</linearGradient>
		<linearGradient id="g46" x1="144.3" y1="74" x2="144.3" y2="50.8" gradientUnits="userSpaceOnUse">
			<stop offset="0" stop-color="#b6a4d2"/>
			<stop offset="1" stop-color="#8d8fc9"/>
		</linearGradient>
		<linearGradient id="g47" x1="147.5" y1="69.8" x2="147.5" y2="56.1" gradientUnits="userSpaceOnUse">
			<stop offset="0" stop-color="#88aad9"/>
			<stop offset="1" stop-color="#5f5aaf"/>
		</linearGradient>
		<linearGradient id="g48" x1="141.2" y1="71.9" x2="143.6" y2="52.4" gradientUnits="userSpaceOnUse">
			<stop offset="0" stop-color="#cbc6e3"/>
			<stop offset="1" stop-color="#ebe1f0"/>
		</linearGradient>
		<linearGradient id="g49" x1="150.5" y1="76.3" x2="150.5" y2="63.2" gradientUnits="userSpaceOnUse">
			<stop offset="0" stop-color="#b6a4d2"/>
			<stop offset="1" stop-color="#8d8fc9"/>
		</linearGradient>
		<linearGradient id="g50" x1="49.9" y1="75.1" x2="49.9" y2="71.8" gradientUnits="userSpaceOnUse">
			<stop offset="0" stop-color="#aa53aa"/>
			<stop offset="1" stop-color="#fc6fb4"/>
		</linearGradient>
		<linearGradient id="g51" x1="53.4" y1="63.5" x2="54.8" y2="43.2" gradientUnits="userSpaceOnUse">
			<stop offset="0" stop-color="#0c0c0c"/>
			<stop offset="1" stop-color="#5ed4ed"/>
		</linearGradient>
		<linearGradient id="g52" x1="74.6" y1="122.4" x2="114.4" y2="122.4" gradientUnits="userSpaceOnUse">
			<stop offset="0" stop-color="#0c0c0c"/>
			<stop offset="1" stop-color="#d6e7f5"/>
		</linearGradient>
		<linearGradient id="g53" x1="132.8" y1="22.4" x2="141.1" y2="22.4" gradientUnits="userSpaceOnUse">
			<stop offset="0" stop-color="#0c0c0c"/>
			<stop offset="1" stop-color="#d6e7f5"/>
		</linearGradient>
		<linearGradient id="g54" x1="47.2" y1="20.4" x2="56.2" y2="20.4" gradientUnits="userSpaceOnUse">
			<stop offset="0" stop-color="#d6e7f5"/>
			<stop offset="1" stop-color="#0c0c0c"/>
		</linearGradient>
		<linearGradient id="g55" x1="33.1" y1="52.7" x2="33.3" y2="42.1" gradientUnits="userSpaceOnUse">
			<stop offset="0" stop-color="#cbc6e3"/>
			<stop offset="1" stop-color="#ebe1f0"/>
		</linearGradient>
	</defs>
	<style>
		.s0 { fill: #e5f6ff } 
		.s1 { fill: #ffffff } 
		.s2 { opacity: .5;fill: #ffffff } 
		.s3 { opacity: .5;mix-blend-mode: multiply;fill: url(#g1) } 
		.s4 { fill: url(#g2) } 
		.s5 { fill: url(#g3) } 
		.s6 { fill: url(#g4) } 
		.s7 { fill: url(#g5) } 
		.s8 { opacity: .3;mix-blend-mode: multiply;fill: url(#g6) } 
		.s9 { opacity: .3;mix-blend-mode: multiply;fill: url(#g7) } 
		.s10 { fill: url(#g8) } 
		.s11 { fill: url(#g9) } 
		.s12 { opacity: .3;mix-blend-mode: multiply;fill: url(#g10) } 
		.s13 { fill: url(#g11) } 
		.s14 { fill: url(#g12) } 
		.s15 { opacity: .5;mix-blend-mode: multiply;fill: url(#g13) } 
		.s16 { fill: url(#g14) } 
		.s17 { fill: url(#g15) } 
		.s18 { fill: url(#g16) } 
		.s19 { fill: url(#g17) } 
		.s20 { fill: url(#g18) } 
		.s21 { fill: url(#g19) } 
		.s22 { fill: url(#g20) } 
		.s23 { fill: url(#g21) } 
		.s24 { fill: #dfe3fb } 
		.s25 { fill: url(#g22) } 
		.s26 { opacity: .3;mix-blend-mode: multiply;fill: url(#g23) } 
		.s27 { fill: url(#g24) } 
		.s28 { opacity: .5;mix-blend-mode: multiply;fill: url(#g25) } 
		.s29 { fill: url(#g26) } 
		.s30 { fill: url(#g27) } 
		.s31 { fill: url(#g28) } 
		.s32 { fill: url(#g29) } 
		.s33 { opacity: .5;mix-blend-mode: multiply;fill: url(#g30) } 
		.s34 { fill: url(#g31) } 
		.s35 { fill: url(#g32) } 
		.s36 { fill: url(#g33) } 
		.s37 { fill: #2f95cd } 
		.s38 { fill: url(#g34) } 
		.s39 { fill: url(#g35) } 
		.s40 { opacity: .5;mix-blend-mode: screen;fill: url(#g36) } 
		.s41 { opacity: .5;mix-blend-mode: screen;fill: url(#g37) } 
		.s42 { opacity: .3;mix-blend-mode: multiply;fill: url(#g38) } 
		.s43 { opacity: .3;mix-blend-mode: multiply;fill: url(#g39) } 
		.s44 { fill: url(#g40) } 
		.s45 { fill: url(#g41) } 
		.s46 { opacity: .5;mix-blend-mode: multiply;fill: url(#g42) } 
		.s47 { opacity: .7;mix-blend-mode: screen;fill: url(#g43) } 
		.s48 { opacity: .3;mix-blend-mode: multiply;fill: url(#g44) } 
		.s49 { fill: url(#g45) } 
		.s50 { fill: url(#g46) } 
		.s51 { opacity: .5;mix-blend-mode: multiply;fill: url(#g47) } 
		.s52 { fill: url(#g48) } 
		.s53 { fill: url(#g49) } 
		.s54 { fill: url(#g50) } 
		.s55 { opacity: .2;mix-blend-mode: screen;fill: url(#g51) } 
		.s56 { opacity: .7;mix-blend-mode: screen;fill: url(#g52) } 
		.s57 { opacity: .7;mix-blend-mode: screen;fill: url(#g53) } 
		.s58 { opacity: .7;mix-blend-mode: screen;fill: url(#g54) } 
		.s59 { fill: url(#g55) } 
	</style>
	<g id="chatbot">
		<g id="&lt;Group&gt;">
			<g id="&lt;Group&gt;">
				<path id="&lt;Path&gt;" class="s0" d="m181.3 155.8c-2.7 5.2-5.7 9.5-9.2 12.7q-1.5 1.4-3.1 2.4q-1.6 1-3.2 1.7c-15.7 6.5-31.7-8.3-49.7-6.5c-15 1.4-25.8 9.8-35.4 16.8c-3.4 2.5-6.7 4.8-9.9 6.6q-1.4 0.7-2.7 1.3q-1.5 0.7-3.1 1.3q0 0 0 0h-0.1c-13.9 4.7-37.3 4.6-47.7-5.7c-10.9-10.7-24.2-45.6 5.8-90.4c33.3-49.9 124.3-56.8 148.6-40.3c25.1 17 24.1 71.4 9.7 100.1z"/>
				<g id="&lt;Group&gt;">
					<path id="&lt;Path&gt;" class="s0" d="m171.6 87.6c0 0.1-0.2 0.2-0.4 0.1c-0.1-0.1-0.2-0.2-0.2-0.4q-0.1-0.1-0.1-0.3c0-0.3 0.2-0.5 0.5-0.5c0.2 0 0.5 0.1 0.6 0.3q0.1 0.2 0.1 0.4c0 0.1-0.1 0.2-0.3 0.2z"/>
					<path id="&lt;Path&gt;" class="s0" d="m178.8 70.6q0.2 0.1 0.4 0.2c-0.2-0.4-0.4-0.9-0.1-1.2c0.1-0.3 0.5-0.3 0.8-0.2c0.3 0.1 0.5 0.2 0.8 0.4c-0.4 0.6-1.1 1-1.7 1z"/>
					<path id="&lt;Path&gt;" class="s0" d="m174.1 67.1c-0.2-0.1-0.3-0.4-0.1-0.6c0.1-0.1 0.4-0.1 0.6 0c0.2 0.1 0.3 0.3 0.4 0.5c-0.2 0.3-0.9 0.3-1-0.1z"/>
					<path id="&lt;Path&gt;" class="s0" d="m175.9 69.3c-0.3 0-0.4 0.4-0.2 0.6c0.1 0.3 0.4 0.4 0.5 0.7c0.2 0.2 0.2 0.5 0.2 0.8c-0.1 0.1-0.2 0.3-0.3 0.3q-0.2 0.1-0.4 0c-0.5-0.2-1-0.4-1.3-0.8c-0.4-0.4-0.5-1.1-0.3-1.5c0.2-0.4 0.6-0.6 0.9-0.6c0.4 0 0.8 0.2 1 0.5z"/>
					<path id="&lt;Path&gt;" class="s0" d="m176.3 63.9q-0.4-0.3-0.7-0.5q-0.1-0.1-0.2-0.2c0-0.2 0.2-0.4 0.5-0.4c0.2 0.1 0.3 0.3 0.4 0.5q-0.1 0.1-0.3 0.3z"/>
					<path id="&lt;Path&gt;" class="s0" d="m178.2 63.7c-0.6 0-1.1-0.5-1.3-1c0.4-0.2 0.8-0.4 1.2-0.2c0.4 0.1 0.5 0.8 0.1 0.9z"/>
					<path id="&lt;Path&gt;" class="s0" d="m171.9 80c-0.2 0.1-0.3-0.1-0.3-0.3c0-0.2 0.1-0.4 0.2-0.6q0.1-0.1 0.3-0.1c0.3-0.1 0.6 0.1 0.6 0.4c0 0.2-0.2 0.5-0.4 0.5c-0.3 0.1-0.6-0.1-0.7-0.4z"/>
					<path id="&lt;Path&gt;" class="s0" d="m175.1 59.8c-0.1 0.2-0.5 0.2-0.6 0c-0.2-0.1-0.1-0.4 0.1-0.6c0.2-0.1 0.5 0 0.6 0.1q0 0.2-0.1 0.4z"/>
				</g>
				<g id="&lt;Group&gt;">
					<path id="&lt;Path&gt;" class="s1" d="m117.7 157.4c-0.3-0.2-0.1-0.7 0.2-0.8c0.8 0.6 0.9 1.8 0.5 2.7c-0.5 0.9-1.4 1.5-2.4 1.8c-1.8 0.5-3.8 0.2-5.2-0.9c-1.5-1.2-2.1-3.2-1.5-5c0.2-0.7 0.7-1.4 1.5-1.5c0.4-0.1 0.7 0 1.1 0c2.4 0.5 4.6 1.6 6.5 3.1z"/>
					<path id="&lt;Path&gt;" class="s1" d="m110.7 157.9c0.8 0.5 0.5 2-0.5 2.3c-0.9 0.2-1.9-0.6-2.1-1.6c-0.2-1 0.3-2 1-2.6c1 0.2 1.7 1.1 2 2z"/>
					<path id="&lt;Path&gt;" class="s1" d="m103 154.1q0.1-0.1 0.2-0.2c-0.3 0-0.6 0-0.8-0.2c-0.1-0.2 0-0.5 0.1-0.6c0.2-0.2 0.4-0.3 0.5-0.4c0.3 0.4 0.3 0.9 0.2 1.3z"/>
					<path id="&lt;Path&gt;" class="s1" d="m104.9 154.5q0.2 0.1 0.3 0.3c-0.3 0.1-0.7 0-1-0.2c-0.2-0.1-0.4-0.2-0.3-0.4c0-0.1 0.1-0.2 0.2-0.4c0.1-0.2 0-0.6 0.3-0.7c0.1 0 0.3 0.1 0.4 0.2c0 0.1 0 0.3 0 0.5q0 0.5 0 1z"/>
					<path id="&lt;Path&gt;" class="s2" d="m83.3 146.4c0.1 0.4-0.1 0.8-0.5 1c-0.2-0.2-0.4-0.5-0.3-0.8c0.1-0.3 0.5-0.4 0.6-0.2z"/>
					<path id="&lt;Path&gt;" class="s1" d="m78.4 155.6c0.1 0.1 0 0.3-0.2 0.3c-0.1 0-0.2 0-0.3-0.1q-0.1 0-0.2-0.1c-0.1-0.2 0-0.4 0.2-0.5c0.2-0.1 0.4 0 0.4 0.2c0.1 0.2 0 0.4-0.2 0.5z"/>
					<path id="&lt;Path&gt;" class="s1" d="m99.5 156c-0.1 0.1-0.3 0.1-0.4 0c0-0.2 0-0.3 0.2-0.4q0.1-0.2 0.4-0.1c0.2 0.2-0.1 0.6-0.4 0.6z"/>
					<path id="&lt;Path&gt;" class="s1" d="m105.8 155.6c-0.2 0.2-0.5 0.3-0.8 0.2c-0.2-0.2-0.3-0.5-0.1-0.7c0.1-0.1 0.2-0.2 0.3-0.2q0.4-0.1 0.8-0.3c0.1 0.4 0 0.8-0.2 1z"/>
					<path id="&lt;Path&gt;" class="s2" d="m82.3 154.7c0.2 0 0.3 0.2 0.3 0.3c0 0.2-0.2 0.3-0.4 0.2c-0.1-0.1-0.2-0.2-0.2-0.4q0.2 0 0.3-0.1z"/>
					<path id="&lt;Path&gt;" class="s1" d="m101.4 155.5c-0.1 0.2 0.1 0.4 0.3 0.4c0.2-0.1 0.4-0.2 0.6-0.2c0.1 0 0.4 0 0.5 0.1c0.1 0.1 0.2 0.2 0.1 0.3q0 0.1-0.1 0.2c-0.2 0.3-0.5 0.5-0.9 0.6c-0.3 0.1-0.7 0.1-1-0.2c-0.1-0.2-0.2-0.5-0.1-0.8c0.1-0.2 0.4-0.4 0.6-0.4z"/>
					<path id="&lt;Path&gt;" class="s1" d="m104.2 151.5q-0.4-0.2-0.8-0.3q-0.1-0.1-0.2-0.2c0-0.1 0.1-0.2 0.2-0.2c0.2-0.1 0.5-0.1 0.7 0c0.2 0.1 0.2 0.4 0.1 0.6z"/>
					<path id="&lt;Path&gt;" class="s1" d="m93.5 148.7c0 0.4-0.6 0.7-1 0.5c0.1-0.3 0.2-0.7 0.4-1c0.3-0.2 0.8-0.2 1 0.1q0 0.3-0.1 0.6z"/>
					<path id="&lt;Path&gt;" class="s1" d="m127.8 162.7c0.1 0 0.2 0.2 0.1 0.3q0 0.1-0.2 0.2q-0.1 0.1-0.2 0.1c-0.2 0-0.4-0.1-0.4-0.2c-0.1-0.2 0-0.4 0.1-0.5q0.1-0.1 0.2-0.1c0.1 0 0.2 0 0.2 0.1z"/>
					<path id="&lt;Path&gt;" class="s1" d="m98.1 153.8q-0.2 0.1-0.5 0.3q-0.1 0-0.2 0c-0.1 0-0.2-0.2-0.1-0.3c0.1-0.1 0.3-0.2 0.5-0.2q0 0.1 0 0.3z"/>
					<path id="&lt;Path&gt;" class="s1" d="m92.5 152.9c0 0.4-0.5 0.6-0.8 0.5c-0.4-0.1-0.6-0.5-0.5-0.8q0.1-0.2 0.3-0.3c0.2-0.2 0.5-0.1 0.7 0.1c0.1 0.1 0.3 0.3 0.4 0.6z"/>
					<path id="&lt;Path&gt;" class="s1" d="m91.3 150.8c-0.2 0.2-0.5 0.2-0.6 0q0-0.2 0.1-0.3q0.3 0.1 0.5 0.2z"/>
					<path id="&lt;Path&gt;" class="s1" d="m105.2 143.6c-0.1-0.1-0.2-0.3-0.1-0.3c0.4 0 0.7 0.5 0.7 0.9c-0.1 0.4-0.3 0.7-0.6 1c-0.6 0.5-1.4 0.7-2.1 0.5c-0.7-0.1-1.3-0.8-1.3-1.5c-0.1-0.3 0-0.6 0.2-0.8q0.2-0.2 0.5-0.2c0.9-0.2 1.9-0.2 2.8 0z"/>
					<path id="&lt;Path&gt;" class="s1" d="m105.8 163.3q0-0.1 0-0.2c-0.2 0.1-0.5 0.3-0.8 0.2c-0.2-0.1-0.3-0.3-0.2-0.5c0-0.2 0.1-0.4 0.1-0.6c0.5 0.2 0.8 0.5 0.9 1z"/>
					<path id="&lt;Path&gt;" class="s1" d="m103.1 165.1c-0.2 0-0.5-0.1-0.5-0.3c-0.1-0.2 0-0.4-0.1-0.5q0-0.1-0.1-0.1q-0.7-0.4-1.5-0.7q0.5-0.1 1-0.4c0.1 0 0.2-0.1 0.3 0c0.1 0 0.2 0.1 0.3 0.2c0.5 0.5 2.2 1.9 0.6 1.8z"/>
					<path id="&lt;Path&gt;" class="s1" d="m108.9 162.9c-0.1 0.3-0.3 0.5-0.5 0.5c-0.3 0.1-0.6-0.2-0.6-0.4c0.1-0.1 0.1-0.3 0.2-0.4q0.3-0.3 0.5-0.7c0.3 0.3 0.4 0.6 0.4 1z"/>
					<path id="&lt;Path&gt;" class="s1" d="m125.2 167.7c0.1 0 0.3 0.1 0.3 0.3c-0.1 0.2-0.3 0.2-0.4 0.2c-0.2-0.1-0.3-0.3-0.2-0.4q0.1 0 0.3-0.1z"/>
					<path id="&lt;Path&gt;" class="s1" d="m105.1 160.5q-0.4 0.1-0.8 0.2q-0.1 0.1-0.2 0c-0.1 0-0.1-0.2 0-0.3c0.1-0.2 0.3-0.3 0.5-0.4c0.2 0 0.5 0.2 0.5 0.4z"/>
					<path id="&lt;Path&gt;" class="s1" d="m107.6 157.3c-0.1 0.4-0.5 0.6-0.8 0.5c-0.4-0.1-0.6-0.5-0.5-0.9q0.1-0.2 0.2-0.3c0.2-0.1 0.5 0 0.7 0.1c0.2 0.2 0.3 0.4 0.5 0.6z"/>
					<path id="&lt;Path&gt;" class="s1" d="m98.3 149.1c-0.2 0-0.4 0.3-0.4 0.5c-0.1 0.3-0.2 0.5-0.4 0.6q-0.1 0.1-0.2 0c-0.2-0.1 0-0.3 0-0.5c0-0.1 0-0.3 0-0.4c0-0.3 0.2-0.7 0.5-0.8c0.2 0 0.4 0.2 0.4 0.3c0.1 0.2 0 0.4-0.1 0.5z"/>
					<path id="&lt;Path&gt;" class="s1" d="m92.5 151.2c-0.2 0-0.4 0.3-0.4 0.5c-0.1 0.2-0.2 0.5-0.4 0.6q-0.1 0-0.2 0c-0.2-0.1 0-0.3 0-0.5c0-0.2 0-0.3 0-0.4c0-0.4 0.2-0.7 0.5-0.8c0.2 0 0.3 0.1 0.4 0.3c0 0.2 0 0.4-0.2 0.5z"/>
					<path id="&lt;Path&gt;" class="s1" d="m88.4 149q0-0.1 0-0.1c0.1 0 0.1 0.1 0.1 0.2q-0.1 0.1-0.2 0.2c-0.2 0-0.3 0-0.4-0.1c-0.2-0.1-0.2-0.3-0.2-0.4q0-0.1 0.1-0.1q0.1 0 0.1 0q0.3 0 0.6 0.2z"/>
					<path id="&lt;Path&gt;" class="s1" d="m115.4 160.5q0-0.1 0.1-0.2c-0.3 0.1-0.5 0.3-0.8 0.2c-0.2-0.1-0.3-0.3-0.3-0.5c0-0.2 0.1-0.4 0.2-0.6c0.5 0.2 0.8 0.6 0.9 1z"/>
					<path id="&lt;Path&gt;" class="s1" d="m113.8 164.2c0 0.1-0.2 0.2-0.4 0.1c-0.1 0-0.1-0.2-0.1-0.3q0.1-0.3 0.3-0.4c0.2 0.1 0.3 0.5 0.1 0.7z"/>
					<path id="&lt;Path&gt;" class="s1" d="m108.5 158.6c0 0.1-0.2 0.2-0.3 0.2c-0.1-0.1-0.2-0.3-0.1-0.4q0-0.3 0.2-0.4c0.3 0.1 0.4 0.5 0.1 0.7z"/>
					<path id="&lt;Path&gt;" class="s1" d="m115 162.7c0 0.1 0.3 0.1 0.4 0c0.2-0.1 0.2-0.3 0.4-0.4c0.1-0.2 0.3-0.3 0.5-0.3c0.1 0 0.2 0.1 0.3 0.2q0 0.1 0 0.2c0 0.4-0.1 0.7-0.3 1c-0.3 0.3-0.7 0.5-1 0.4c-0.3 0-0.5-0.3-0.5-0.5c-0.1-0.3 0-0.5 0.2-0.7z"/>
					<path id="&lt;Path&gt;" class="s1" d="m96.6 150.9c0 0.2 0.3 0.2 0.4 0.1c0.2-0.2 0.2-0.3 0.4-0.5c0.1-0.1 0.3-0.2 0.5-0.2c0.1 0 0.2 0 0.3 0.1q0 0.1 0 0.3c0 0.3-0.1 0.7-0.3 1c-0.3 0.3-0.7 0.5-1 0.4c-0.3-0.1-0.5-0.3-0.5-0.5c-0.1-0.3 0-0.6 0.2-0.7z"/>
					<path id="&lt;Path&gt;" class="s1" d="m97.5 148.7c0.1 0.2 0.4 0.2 0.5 0c0.2-0.1 0.2-0.3 0.3-0.4c0.2-0.2 0.4-0.2 0.6-0.2c0.1 0 0.2 0 0.2 0.1q0.1 0.1 0.1 0.2c-0.1 0.4-0.1 0.8-0.4 1.1c-0.2 0.3-0.6 0.5-0.9 0.4c-0.3-0.1-0.5-0.3-0.6-0.6c0-0.2 0.1-0.5 0.3-0.7z"/>
					<path id="&lt;Path&gt;" class="s1" d="m100.6 150.9c0 0.2 0.3 0.1 0.5 0c0.1-0.1 0.2-0.3 0.3-0.4c0.1-0.2 0.3-0.3 0.5-0.3c0.1 0 0.2 0.1 0.3 0.2q0 0.1 0 0.2c0 0.4-0.1 0.8-0.3 1.1c-0.2 0.3-0.6 0.4-1 0.3c-0.2 0-0.4-0.2-0.5-0.5c-0.1-0.2 0-0.5 0.2-0.7z"/>
					<path id="&lt;Path&gt;" class="s1" d="m81.3 168.6c0 0.2 0.3 0.2 0.4 0.1c0.2-0.1 0.2-0.3 0.4-0.5c0.1-0.1 0.3-0.2 0.5-0.2c0.1 0 0.2 0.1 0.3 0.2q0 0.1 0 0.2c0 0.3-0.1 0.7-0.4 1c-0.2 0.3-0.6 0.5-0.9 0.4c-0.3-0.1-0.5-0.3-0.5-0.5c-0.1-0.3 0-0.6 0.2-0.7z"/>
					<path id="&lt;Path&gt;" class="s1" d="m111.3 163.2q-0.1 0.3-0.2 0.5q0 0.1-0.1 0.2c-0.1 0.1-0.3-0.1-0.3-0.2c0-0.2 0.1-0.3 0.2-0.4q0.1 0.1 0.3 0.2z"/>
					<path id="&lt;Path&gt;" class="s1" d="m91.5 162c-0.1 0.4-0.5 0.6-0.9 0.5c-0.4-0.1-0.6-0.6-0.4-0.9q0-0.2 0.2-0.3c0.2-0.1 0.5 0 0.7 0.1c0.2 0.2 0.3 0.4 0.4 0.6z"/>
					<path id="&lt;Path&gt;" class="s1" d="m111.2 155.9c0.3 0.1 0.3 0.6 0 0.8q-0.3 0-0.5-0.1q0.1-0.4 0.3-0.6z"/>
					<path id="&lt;Path&gt;" class="s2" d="m89.4 159.3c0.2 0 0.3 0.3 0.3 0.5c0 0.2-0.1 0.4-0.2 0.5c-0.2 0.2-0.3 0.4-0.5 0.5c-0.3 0-0.5-0.1-0.5-0.4c0-0.2 0.2-0.3 0.3-0.5c0.1-0.3 0-0.6 0.2-0.7c0.1-0.1 0.2-0.1 0.4 0q0.1 0.1 0.3 0.3z"/>
					<path id="&lt;Path&gt;" class="s1" d="m100.8 153.5c0.4 0.9-0.8 1.9-1.7 1.5c-1-0.4-1.3-1.6-0.8-2.5c0.4-0.9 1.4-1.4 2.4-1.5c0.6 0.8 0.7 1.9 0.3 2.8z"/>
					<path id="&lt;Path&gt;" class="s1" d="m112.2 153.8c-0.1 0.2-0.2 0.2-0.4 0.2c-0.1-0.1-0.2-0.2-0.2-0.3q-0.1-0.1 0-0.3c0-0.1 0.2-0.3 0.4-0.2c0.2 0 0.3 0.2 0.2 0.4c0 0.2-0.2 0.3-0.4 0.3z"/>
					<path id="&lt;Path&gt;" class="s1" d="m106.8 153.9c-0.3 0.1-0.3 0.4-0.3 0.6c0 0.3 0 0.6-0.2 0.7q0 0.1-0.2 0.1c-0.1-0.1-0.1-0.3-0.1-0.5c0-0.1-0.1-0.3-0.1-0.4c-0.2-0.3-0.1-0.7 0.2-0.9c0.2 0 0.4 0 0.5 0.2c0.1 0.1 0.1 0.3 0 0.5z"/>
					<path id="&lt;Path&gt;" class="s1" d="m99.4 156.9c0.2 0.1 0.2 0.3 0.1 0.4c-0.1 0.1-0.3 0.1-0.4-0.1c-0.1-0.1-0.1-0.3 0-0.4q0.2 0.1 0.3 0.1z"/>
					<path id="&lt;Path&gt;" class="s1" d="m104.9 156.7c0.1 0 0 0.2 0 0.2q-0.2 0.1-0.4 0.1q-0.1 0-0.2 0c-0.2-0.1-0.2-0.3-0.2-0.5c0.1-0.2 0.2-0.3 0.4-0.3q0.1 0 0.3 0c0 0.1 0.1 0.2 0 0.3z"/>
					<path id="&lt;Path&gt;" class="s1" d="m103.6 164.4c-0.3 0.9-1.9 0.9-2.4 0c-0.4-0.8 0.2-2 1.1-2.4c0.9-0.4 2-0.1 2.8 0.5c-0.1 0.9-0.7 1.9-1.6 2.3z"/>
					<path id="&lt;Path&gt;" class="s1" d="m110.9 162c0.1 0.4-0.1 0.8-0.5 1c-0.2-0.2-0.3-0.5-0.3-0.8c0.1-0.3 0.5-0.4 0.6-0.2z"/>
					<path id="&lt;Path&gt;" class="s1" d="m109.9 151.6c0.2 0 0.2 0.3 0.1 0.4c-0.2 0.1-0.4 0-0.4-0.1c-0.1-0.2-0.1-0.4 0-0.5q0.2 0.1 0.3 0.2z"/>
					<path id="&lt;Path&gt;" class="s1" d="m106.8 156.2c-0.1-0.1-0.1-0.3 0.1-0.3c0.3 0.3 0.4 0.8 0.2 1.2c-0.3 0.4-0.7 0.6-1.1 0.7c-0.8 0.2-1.6 0.1-2.3-0.4c-0.6-0.6-0.8-1.5-0.5-2.2c0.1-0.3 0.3-0.6 0.6-0.7q0.3 0 0.5 0.1c1 0.2 2 0.7 2.8 1.4z"/>
					<path id="&lt;Path&gt;" class="s1" d="m94.9 168.4c0.8 0.5 0.4 2-0.5 2.3c-1 0.2-2-0.6-2.1-1.6c-0.2-0.9 0.3-1.9 1-2.6c0.9 0.3 1.7 1.1 1.9 2z"/>
					<path id="&lt;Path&gt;" class="s1" d="m89.2 151q0-0.1 0-0.3c-0.2 0.2-0.5 0.4-0.8 0.3c-0.2-0.1-0.3-0.3-0.3-0.5c0.1-0.2 0.1-0.4 0.2-0.6c0.5 0.1 0.8 0.5 0.9 1z"/>
					<path id="&lt;Path&gt;" class="s1" d="m86.5 152.8c-0.2 0-0.5-0.1-0.6-0.4c0-0.1 0.1-0.3 0-0.4q0-0.1-0.1-0.1q-0.7-0.4-1.5-0.7q0.5-0.2 0.9-0.4c0.2 0 0.3-0.1 0.4-0.1c0.1 0.1 0.2 0.2 0.3 0.3c0.5 0.5 2.2 1.9 0.6 1.8z"/>
					<path id="&lt;Path&gt;" class="s1" d="m106.5 153.1c-0.2 0-0.1 0.3-0.2 0.5c0 0.3-0.5 0.5-0.7 0.2c-0.3-0.2-0.3-0.6-0.1-0.9q0.2 0.1 0.4 0.3z"/>
					<path id="&lt;Path&gt;" class="s1" d="m91.9 155.8q0.2 0.1 0.3 0.2c-0.3 0.2-0.7 0.1-1-0.1c-0.2-0.1-0.4-0.2-0.4-0.4c0-0.2 0.1-0.3 0.2-0.4c0.1-0.3 0.1-0.6 0.3-0.7c0.2-0.1 0.3 0 0.4 0.2c0.1 0.1 0.1 0.3 0.1 0.4q0 0.5 0 1z"/>
					<path id="&lt;Path&gt;" class="s1" d="m90.2 160.8c0 0.4-0.2 0.9-0.5 1.1c-0.2-0.3-0.4-0.5-0.3-0.8c0-0.3 0.5-0.5 0.6-0.2z"/>
					<path id="&lt;Path&gt;" class="s2" d="m86.1 156.1c0.1 0.1 0 0.3-0.2 0.3c-0.1 0-0.2 0-0.4-0.1q-0.1-0.1-0.1-0.2c-0.1-0.1 0-0.3 0.2-0.4c0.1-0.1 0.3 0 0.4 0.2c0.1 0.2 0 0.4-0.2 0.5z"/>
					<path id="&lt;Path&gt;" class="s1" d="m87.5 154.6c0 0.2-0.2 0.3-0.4 0.2c-0.1-0.1-0.1-0.2-0.1-0.4q0.1-0.2 0.3-0.3c0.3 0.1 0.3 0.5 0.1 0.7z"/>
					<path id="&lt;Path&gt;" class="s1" d="m92.3 150.6c-0.1 0.2-0.3 0.5-0.5 0.5c-0.3 0.1-0.6-0.2-0.6-0.4c0-0.2 0.1-0.3 0.2-0.4q0.2-0.3 0.5-0.7c0.3 0.2 0.4 0.6 0.4 0.9z"/>
					<path id="&lt;Path&gt;" class="s2" d="m86.5 160.1c0.1 0.2 0 0.4-0.2 0.6c-0.1 0.1-0.4 0.1-0.5 0c-0.2-0.1-0.3-0.2-0.2-0.3q0.1-0.1 0.2-0.1q0.3-0.1 0.7-0.3q0 0.1 0 0.2z"/>
					<path id="&lt;Path&gt;" class="s2" d="m83.5 162.7c-0.2 0.1-0.3 0.3-0.4 0.6c-0.1 0.2-0.2 0.5-0.4 0.6q-0.1 0-0.2-0.1c-0.1-0.1 0-0.3 0-0.4c0.1-0.2 0-0.3 0-0.5c0-0.3 0.2-0.6 0.5-0.7c0.2 0 0.4 0.1 0.4 0.3c0.1 0.1 0 0.3-0.1 0.5z"/>
					<path id="&lt;Path&gt;" class="s2" d="m99.9 147.1c-0.2 0-0.3 0.3-0.4 0.6c-0.1 0.2-0.2 0.5-0.4 0.6q-0.1 0-0.2-0.1c-0.1-0.1 0-0.3 0-0.5c0.1-0.1 0-0.2 0-0.4c0-0.3 0.2-0.6 0.5-0.8c0.2 0.1 0.4 0.2 0.4 0.4c0.1 0.1 0 0.3-0.1 0.4z"/>
					<path id="&lt;Path&gt;" class="s2" d="m82 160.8c0.1 0.2 0 0.4-0.1 0.4c-0.2 0.1-0.4 0-0.4-0.2c0-0.1 0.1-0.3 0.2-0.4q0.1 0.1 0.2 0.2z"/>
					<path id="&lt;Path&gt;" class="s1" d="m88.7 153.1c0 0.2 0.3 0.2 0.5 0.1c0.1-0.2 0.2-0.3 0.3-0.5c0.1-0.1 0.3-0.2 0.5-0.2c0.1 0 0.2 0 0.3 0.1q0 0.1 0 0.3c0 0.3-0.1 0.7-0.3 1c-0.2 0.3-0.6 0.5-1 0.4c-0.2-0.1-0.4-0.3-0.5-0.5c-0.1-0.3 0-0.6 0.2-0.7z"/>
					<path id="&lt;Path&gt;" class="s1" d="m88.5 148.2q-0.4 0.1-0.8 0.2q-0.1 0-0.2 0c-0.1-0.1-0.1-0.2 0-0.3c0.1-0.2 0.3-0.4 0.5-0.4c0.2 0 0.5 0.2 0.5 0.4z"/>
					<path id="&lt;Path&gt;" class="s1" d="m93.9 159.8c0 0.5-0.6 0.8-1.1 0.6c0.1-0.4 0.2-0.7 0.5-1c0.3-0.2 0.8-0.3 1 0.1q-0.1 0.3-0.1 0.6z"/>
					<path id="&lt;Path&gt;" class="s2" d="m85 153.7q-0.1 0.3-0.2 0.5q0 0.1-0.1 0.2c-0.1 0-0.3-0.1-0.3-0.3c0-0.1 0.1-0.3 0.2-0.4q0.2 0.1 0.3 0.2z"/>
					<path id="&lt;Path&gt;" class="s1" d="m110.9 158.2c0 0.3-0.5 0.6-0.8 0.5c-0.4-0.1-0.6-0.6-0.5-0.9q0.1-0.2 0.3-0.3c0.2-0.1 0.5-0.1 0.6 0.1c0.2 0.1 0.4 0.4 0.5 0.6z"/>
					<path id="&lt;Path&gt;" class="s1" d="m98.2 165.3c-0.2 0.2-0.5 0.1-0.7 0q0.1-0.2 0.2-0.4q0.2 0.1 0.5 0.3z"/>
					<path id="&lt;Path&gt;" class="s1" d="m122.7 163.7c0.1 0.1 0 0.2-0.2 0.3c-0.1 0-0.2 0-0.4-0.1q-0.1-0.1-0.1-0.2c-0.1-0.1 0-0.4 0.2-0.4c0.1-0.1 0.3 0 0.4 0.2c0.1 0.1 0 0.4-0.2 0.4z"/>
					<path id="&lt;Path&gt;" class="s1" d="m96.5 161.5c-0.2 0.2-0.5 0.2-0.7 0q0.1-0.2 0.2-0.3q0.2 0.1 0.4 0.2z"/>
					<path id="&lt;Path&gt;" class="s1" d="m102.6 149.1c0-0.2-0.3-0.2-0.5-0.2c-0.2 0.1-0.3 0.3-0.4 0.4c-0.2 0.1-0.4 0.1-0.6 0c-0.1 0-0.2-0.1-0.2-0.2q0-0.1 0-0.2c0.2-0.3 0.3-0.7 0.6-0.9c0.3-0.2 0.8-0.3 1.1-0.1c0.2 0.2 0.3 0.4 0.3 0.7c0 0.2-0.2 0.5-0.4 0.6z"/>
					<path id="&lt;Path&gt;" class="s1" d="m106.5 158.6c-0.2-0.1-0.3-0.4-0.2-0.6c0.1-0.2 0.3-0.3 0.4-0.4c0.2-0.2 0.4-0.3 0.6-0.3c0.3 0 0.5 0.3 0.4 0.5c0 0.2-0.3 0.2-0.5 0.4c-0.1 0.2-0.1 0.5-0.3 0.6c-0.1 0.1-0.3 0-0.4-0.1q-0.1-0.1-0.2-0.3z"/>
					<path id="&lt;Path&gt;" class="s1" d="m97 153c0.1 0 0.1 0.2 0 0.2c-0.3-0.1-0.5-0.5-0.4-0.8c0-0.4 0.3-0.7 0.6-0.9c0.5-0.3 1.3-0.4 1.9-0.2c0.6 0.3 1 0.9 1 1.6c-0.1 0.3-0.2 0.5-0.4 0.7q-0.2 0-0.4 0.1c-0.9 0-1.7-0.1-2.5-0.5z"/>
					<path id="&lt;Path&gt;" class="s1" d="m99.5 150c-0.1-0.2-0.1-0.5 0.1-0.7c0.1-0.1 0.3-0.1 0.4-0.2q0-0.1 0-0.2q-0.1-0.8-0.1-1.6q0.3 0.3 0.7 0.6c0.1 0.1 0.2 0.2 0.3 0.3c0 0.1 0 0.2-0.1 0.4c-0.2 0.6-0.5 2.8-1.3 1.4z"/>
					<path id="&lt;Path&gt;" class="s1" d="m96.8 153c0.1 0.2 0.1 0.4-0.1 0.4c-0.1 0.1-0.3-0.1-0.3-0.2c-0.1-0.2 0.1-0.3 0.2-0.4q0.1 0.1 0.2 0.2z"/>
					<path id="&lt;Path&gt;" class="s1" d="m98.1 148.7q-0.3-0.3-0.6-0.6q-0.1-0.1-0.1-0.2c0-0.1 0.1-0.1 0.2-0.2c0.3 0 0.5 0.1 0.7 0.3c0.1 0.2 0 0.5-0.2 0.6z"/>
					<path id="&lt;Path&gt;" class="s1" d="m96.5 151.3q0.1-0.1 0.2-0.1c-0.3-0.1-0.6-0.3-0.6-0.6c0-0.2 0.1-0.3 0.3-0.4c0.2-0.1 0.4-0.1 0.6-0.2c0.1 0.5-0.1 1-0.4 1.3z"/>
					<path id="&lt;Path&gt;" class="s1" d="m94.8 152.3q0 0.3-0.1 0.5c-0.3-0.2-0.3-0.6-0.3-1c0-0.2 0-0.4 0.2-0.5c0.1-0.1 0.2 0 0.4 0c0.2-0.1 0.6-0.3 0.8-0.1c0.1 0.1 0.1 0.3 0 0.4c-0.1 0.1-0.2 0.2-0.4 0.3q-0.4 0.3-0.9 0.5z"/>
					<path id="&lt;Path&gt;" class="s1" d="m99.5 150.1c-0.2 0.1-0.5 0-0.7-0.2c-0.2-0.2-0.1-0.5 0.1-0.6c0.1-0.1 0.3-0.1 0.4-0.1q0.4 0.1 0.9 0.1c-0.1 0.4-0.3 0.7-0.6 0.8z"/>
					<path id="&lt;Path&gt;" class="s1" d="m95.5 148.3c-0.1 0.1 0 0.4 0.2 0.4c0.2 0.1 0.4 0 0.6 0.1c0.2 0 0.3 0.1 0.4 0.3c0.1 0.1 0.1 0.2 0 0.3q0 0.1-0.1 0.2c-0.4 0.1-0.7 0.2-1.1 0.2c-0.4-0.1-0.7-0.3-0.8-0.7c-0.1-0.2 0-0.5 0.2-0.7c0.2-0.1 0.4-0.2 0.7-0.1z"/>
					<path id="&lt;Path&gt;" class="s1" d="m101.5 158.8c-0.4 0.1-0.8-0.1-0.9-0.5c-0.1-0.3 0.2-0.8 0.5-0.8q0.2 0 0.4 0c0.2 0.2 0.3 0.4 0.3 0.7c-0.1 0.2-0.2 0.4-0.3 0.6z"/>
					<path id="&lt;Path&gt;" class="s1" d="m104.9 154.6q0.1 0 0.2-0.1c-0.3-0.1-0.6-0.2-0.6-0.5c0-0.2 0.1-0.4 0.3-0.5c0.2-0.1 0.4-0.1 0.6-0.1c0.1 0.4-0.1 0.9-0.4 1.2z"/>
					<path id="&lt;Path&gt;" class="s1" d="m93.9 152.4c-0.2 0-0.4 0.3-0.5 0.5c-0.1 0.3-0.2 0.5-0.4 0.6q-0.1 0-0.2 0c-0.1-0.2 0-0.4 0.1-0.5c0-0.2 0-0.3 0-0.4c0-0.4 0.2-0.7 0.6-0.8c0.1 0 0.3 0.2 0.3 0.4c0.1 0.1 0 0.3-0.2 0.4z"/>
					<path id="&lt;Path&gt;" class="s1" d="m108.8 164.7c0.1 0 0.2 0.2 0.1 0.3c-0.1 0.2-0.3 0.2-0.4 0c-0.1-0.1-0.1-0.3 0-0.4q0.1 0 0.2 0.1z"/>
					<path id="&lt;Path&gt;" class="s1" d="m100.4 152.4q-0.2 0-0.5 0.1q-0.1 0-0.2-0.1c-0.1 0-0.1-0.3 0.1-0.3c0.1-0.1 0.3-0.1 0.4 0q0 0.1 0 0.3z"/>
				</g>
			</g>
			<ellipse id="&lt;Path&gt;" class="s3" cx="98" cy="208.6" rx="40.8" ry="9.1"/>
			<g id="&lt;Group&gt;">
				<path id="&lt;Path&gt;" class="s4" d="m90 173.4c-1.2 6.9-6.5 23-11.2 21.3c-1.1-0.4-2.1-1.7-3.2-3.6c-3.2-5.8-6.4-17.2-8-24.9c-0.8-4.2-1.2-7.3-0.9-7.8c2.1-3.1 22.2 10.4 23.4 12c0.2 0.2 0.1 1.4-0.1 3z"/>
				<path id="&lt;Path&gt;" class="s5" d="m121.7 164q-0.1 1-0.3 2c-1.4 10.6-4.3 26-7.4 31.7c-0.8 1.3-1.6 2.1-2.3 2.1q-0.3 0-0.6-0.1c-0.7-0.2-1.5-0.8-2.3-1.6c-4.7-5.4-10.1-21.7-10.3-26.5q0-0.9 0.2-1.2c2.7-3.7 22.4-16.3 23.5-14.8c0.3 0.4 0.1 3.7-0.5 8.4z"/>
				<path id="&lt;Path&gt;" class="s6" d="m66.7 158.4c-2.2 2.9 15.9 16 23.5 12.6q-20.5-16.4-23.5-12.6z"/>
				<path id="&lt;Path&gt;" class="s7" d="m98.5 171.6c-0.6 1.5 20.3-1.9 23.7-16q-18.1 2.1-23.7 16z"/>
				<path id="&lt;Path&gt;" class="s8" d="m74.6 170.6c-1 1.3 0.3 17.5 4.2 24.1c-1.1-0.4-2.1-1.7-3.2-3.6c-0.6-2.8-1.6-7.1-2.5-11.3c-1.1-5.4-4-11-5.5-13.6c-0.8-4.2-1.2-7.3-0.9-7.8c2.1-3.1 22.2 10.4 23.4 12c0.2 0.2 0.1 1.4-0.1 3q-14.4-4-15.4-2.8z"/>
				<path id="&lt;Path&gt;" class="s1" d="m109.9 176.5c-0.8 0.3-1 7.1 0.4 7.4c1.4 0.4 1.6-8-0.4-7.4z"/>
				<path id="&lt;Path&gt;" class="s9" d="m121.7 164q-11.4 3.4-14.1 8.8c-2.6 5.4-1.6 18.3 1.2 25.3c-4.7-5.4-10.1-21.7-10.3-26.5q0-0.9 0.2-1.2c2.7-3.7 22.4-16.3 23.5-14.8c0.3 0.4 0.1 3.7-0.5 8.4z"/>
				<path id="&lt;Path&gt;" class="s10" d="m72.4 110.8c-0.1 6-0.9 14.7-3.6 21.8c-4.6 11.6-11.4 26.3-11.6 26.8c-4.1 2.5-9.1 2.4-12.3 1.9q-1.9-0.3-3.1-0.7q1.4-13.3 8.7-28.5c3.7-7.6 8.4-14.6 12.4-19.8q0.1-0.1 0.1-0.1q0.1-0.1 0.1-0.2q0.1-0.1 0.1-0.1q0.1-0.1 0.1-0.1q0.1-0.1 0.1-0.2q0 0 0 0q0 0 0 0c4.2-5.2 7.5-8.4 8.2-8c0.4 0.2 0.8 3.1 0.8 7.2z"/>
				<path id="&lt;Path&gt;" class="s11" d="m41.8 160.1q5.4-8.8 10.9-7.7q5.5 1.2 4.5 7q-7 5.1-15.4 0.7z"/>
				<path id="&lt;Path&gt;" class="s12" d="m72.4 110.8c-0.1 6-0.9 14.7-3.6 21.8c-4.6 11.6-11.4 26.3-11.6 26.8l-12.3 1.9q-1.9-0.3-3.1-0.7q1.4-13.3 8.7-28.5c3.7-7.6 8.4-14.6 12.4-19.8c-2.3 3-12 16.3-14.6 27.6c-2.9 12.9 9 7.9 13.9 0q4.9-7.9 10-29.1z"/>
				<path id="&lt;Path&gt;" class="s1" d="m59 131.4c-1-0.4 4.1-11.8 5.6-11.9c1.6-0.1-4.8 12.2-5.6 11.9z"/>
				<path id="&lt;Path&gt;" class="s1" d="m58.5 132.6c-0.8-0.4-1.5 1.7-0.8 2c0.7 0.3 1.6-1.6 0.8-2z"/>
				<path id="&lt;Path&gt;" class="s13" d="m58 168.4c-0.2 7.6-2.6 17.7-6 18.9q-3.5 1.3-8.1 0c-3.3-11.4-2.6-25.2-1.3-27.6c1.3-2.4 5.5-5.1 8.3-4.6c4.7 0.7 7.3 5.7 7.1 13.3z"/>
				<path id="&lt;Path&gt;" class="s14" d="m50.5 187.7q-4.2-24.3 5.3-29.3q2.9 4.8 1.8 14.2c-1 9.4-2.6 14.2-7.1 15.1z"/>
				<path id="&lt;Path&gt;" class="s15" d="m50.7 167.3l6.2 11.1q-1.3 0.6-3 0q-1.6-0.6-4.1-4.2q-0.2-2.5 0.9-6.9z"/>
				<path id="&lt;Path&gt;" class="s16" d="m50.7 167.3q1.4-6.7 5.4-8.4q3.8 3.8 2.9 18.3q-2.1 2.7-5.1 0q-2.5-5-3.2-9.9z"/>
				<path id="&lt;Path&gt;" class="s1" d="m53 164.9c-1.3 0 0.8 6.2 1.5 6c0.7-0.1-0.3-6-1.5-6z"/>
				<path id="&lt;Path&gt;" class="s17" d="m52.1 53.5q-5-16.7-2.3-25.1q2.7-8.5 5.1-9.6q7.6 0.9 13.9 6.3z"/>
				<path id="&lt;Path&gt;" class="s18" d="m51.9 23q1.2-2.9 3-4.2q6.3 5.8 6 19.7l-1.8 1.9z"/>
				<path id="&lt;Path&gt;" class="s19" d="m120.5 25.1q6.3-5.4 13.9-6.3q2.4 1.1 5.1 9.6q2.7 8.4-2.3 25.1z"/>
				<path id="&lt;Path&gt;" class="s20" d="m137.6 23.2l-7 14.4l-2.4-1.5q0-10.7 6.2-17.3q0.9-0.1 3.2 4.4z"/>
				<path id="&lt;Path&gt;" class="s21" d="m130.4 36.9q-1.6-9.1 4.4-15.8q6.8 3.2 9.6 15q2.8 11.9-4.5 19z"/>
				<path id="&lt;Path&gt;" class="s22" d="m49.4 55.1q-7.3-7.1-4.5-19q2.8-11.8 9.6-15q6 6.7 4.4 15.8z"/>
				<path id="&lt;Path&gt;" class="s23" d="m138.8 87.4c-14 19.6-79.6 18.1-88.1 2.3c-5.6-10.3-5-25.9 0.4-40.2c7-18.7 22.2-35.4 42.5-35.4c23.8 0 42 23.7 47.5 45.4c2.8 10.9 2.3 21.3-2.3 27.9z"/>
				<path id="&lt;Path&gt;" class="s24" d="m93 18.8c31.3-1.8 51.7 41.1 37.5 53.2c-14.2 12-71.8 10.6-74.9-2.7c-5.2-21.9 8.9-48.7 37.4-50.5z"/>
				<path id="&lt;Path&gt;" class="s25" d="m92.7 17.2c31.3-1.8 51.7 41.1 37.5 53.1c-14.2 12.1-71.8 10.7-74.9-2.7c-5.2-21.8 8.9-48.7 37.4-50.4z"/>
				<path id="&lt;Path&gt;" class="s26" d="m138.8 87.4c-14 19.6-79.6 18.1-88.1 2.3c-5.6-10.3-5-25.9 0.4-40.2q0 0 0 0c-0.3 0.9-5.8 20.9-0.1 29.7c5.7 9 28.4 7.8 52.8 6.8c24.3-1.1 32.4-4.6 36.5-11.5c3.2-5.4 0-17.3-1.6-22.2l2.4 7.2c2.8 10.9 2.3 21.3-2.3 27.9z"/>
				<path id="&lt;Path&gt;" class="s27" d="m93.6 101.8c-13.6 0-23.4-1.5-28.9-3.7c-3.6-1.5-5.4-3.2-5.1-5c0.1-1 2.8-2 7-2.8c12.4-2.2 38-2.9 51.8-0.8q1.8 0.3 3.3 0.6q0.3 0.1 0.6 0.2q0.1 0 0.2 0c2.3 0.6 4 1.3 4.8 2.2q0.3 0.3 0.4 0.6c1.3 4.5-21.7 8.7-34.1 8.7z"/>
				<path id="&lt;Path&gt;" class="s28" d="m127.5 92q-0.1 0.2-0.2 0.5q-1.4 1.8-6.8 4.3q-20.8-8.5-37.7-4.8q-16.8 3.8-18.1 6.1c-3.6-1.5-5.4-3.2-5.1-5c0.1-1 2.8-2 7-2.8c12.4-2.2 38-2.9 51.8-0.8q2.2 0.4 3.9 0.8q0.1 0 0.2 0c3.2 0.7 5.2 1.3 5 1.7z"/>
				<path id="&lt;Path&gt;" class="s29" d="m121.7 90.1c-3.2 3.1-18.7 5.8-27.5 5.7c-15.8 0-25.4-2.5-27.6-5.5c13.5-2.4 42.5-3 55.1-0.2z"/>
				<path id="&lt;Path&gt;" class="s30" d="m120.7 151.9c-1.9 11.2-11.9 18.7-26.4 18.7c-12.5 0-23.2-4.7-26-15c-2.8-10.3-1.7-29.3 2-41.2q0.9-2.7 2.1-5.1q1-2.2 2.3-4.2q0 0 0 0c4.6-6.9 11.3-11.4 18.9-11.4c7.9 0 14 3.2 18.1 8c1.9 2.2 3.4 4.8 4.5 7.6c1.2 3.1 2.2 6.4 3.1 9.9q0 0 0 0.1c2.6 10.8 3.1 22.5 1.4 32.6z"/>
				<path id="&lt;Path&gt;" class="s31" d="m110.9 100.8q1.2 13.4 9 21.5q-2.1-12.5-9-21.5z"/>
				<path id="&lt;Path&gt;" class="s32" d="m155.2 84.5q-12.3 24.4-34 32.7c-5.9-3.9-11.1-16.5-9.1-18.9q0.2-0.2 0.4-0.3q26.5-12.7 34.4-25.8c3.5 0.3 5.6 2.3 6.7 4.7q1.8 3.5 1.6 7.6z"/>
				<path id="&lt;Path&gt;" class="s33" d="m47.4 79.7l7.8-3.4q15.6-1.3 14.9 0.8c-0.8 2.1-5.8 4.2-11.2 6.8q-5.5 2.6-8.2 5.8q-2.1-3.7-3.3-10z"/>
				<path id="&lt;Path&gt;" class="s34" d="m155.2 84.5q-4.7 5.8-7.5 4.4c-2.8-1.5-3-16.1-0.8-16.7q7.8-2.1 8.3 12.3z"/>
				<path id="&lt;Path&gt;" class="s35" d="m111.7 33.1c7.3-0.9 11.1 8.3 10.1 11.2c-0.8 2.2-14.6 5.4-16.7 1.8c-1-1.8-0.7-12.2 6.6-13z"/>
				<path id="&lt;Path&gt;" class="s36" d="m83.6 46.1c-2.1 3.6-15.9 0.4-16.7-1.8c-1-2.9 2.8-12.1 10.1-11.2c7.3 0.8 7.6 11.2 6.6 13z"/>
				<path id="&lt;Path&gt;" class="s37" d="m79.7 52.8q3.9 4.1 15.1 4.1q11.2 0 16.9-4.7q-4.9 6.7-16.9 6.7q-12 0-15.1-6.1z"/>
				<path id="&lt;Path&gt;" class="s38" d="m44.3 40.4q4 2.6 1.4 8.6q-18.9 10.3-17.8 21.5q0.9 9.4 27 4.8l0.9 3.2q-22.2 4.3-29.8-0.9q-2.6-6.2 3.8-17.3q6.5-11.2 14.5-19.9z"/>
				<path id="&lt;Path&gt;" class="s39" d="m70.8 74.5c0.5 4.7-7.7 6.6-12.4 6.1c-4.2-0.5-9.2-3.4-6.8-6.1c5.5-6.3 18.7-4.7 19.2 0z"/>
				<path id="&lt;Path&gt;" class="s40" d="m95.7 18.8c18.2-0.5 33.2 20.5 31.7 22.1c-9.2 9.8-25-3.8-40.7-3.3c-13.1 0.5-22.7 0.7-22-3.7c0.6-3.7 12.8-14.6 31-15.1z"/>
				<path id="&lt;Path&gt;" class="s41" d="m95.7 70.3c16 3.5 21.8-0.1 22.4 0.6c0.9 1.1-3.2 5.2-22.7 6.1c-16.1 0.8-22.6-2.3-21.8-5.5c0.9-3.2 11.5-3.5 22.1-1.2z"/>
				<path id="&lt;Path&gt;" class="s42" d="m138.6 51.9l-0.5-1.4c0.1 0.3 0.3 0.8 0.5 1.4z"/>
				<path id="&lt;Path&gt;" class="s43" d="m120.7 151.9c-1.9 11.2-11.9 18.7-26.4 18.7c-12.5 0-23.2-4.7-26-15c-2.8-10.3-1.7-29.3 2-41.2q0.9-2.7 2.1-5.1q-7.6 25.2-1.6 41.2c6.1 16.1 34.4 15.7 44 5.1c9.1-10.2 4.9-34 4.5-36.3c2.6 10.8 3.1 22.5 1.4 32.6z"/>
				<path id="&lt;Path&gt;" class="s44" d="m68.9 145.2c2.1-15.1 14.2-25.3 27.6-24c14.5 1.3 22.3 15.2 22.1 27c-0.2 11.9-8.9 21.2-24.4 21.2c-15.6 0-27.4-10.1-25.3-24.2z"/>
				<path id="&lt;Path&gt;" class="s45" d="m69 146.5c2.1-15.1 14.2-25.4 27.7-24.1c14.5 1.4 22.3 15.2 22.1 27.1c-0.2 11.8-8.9 21.1-24.5 21.1c-15.5 0-27.3-10-25.3-24.1z"/>
				<path id="&lt;Path&gt;" class="s46" d="m111.7 101.7c-3.1 4.8-20 7.6-29.8 6.7c-8.5-0.7-7.2-3-7.2-3.3q0 0 0 0c4.6-6.9 11.3-11.4 18.9-11.4c7.9 0 14 3.2 18.1 8z"/>
				<path id="&lt;Path&gt;" class="s1" d="m108.3 116.9c-0.5 1.5-1.8 1.8-2.6 0.8c-0.9-1-0.8-7.4 0-7.6c1.2-0.4 3 5.3 2.6 6.8z"/>
				<path id="&lt;Path&gt;" class="s1" d="m108.3 121.4c-0.2 0.7-1.3 0.8-1.6 0.3c-0.3-0.6-0.2-2.2 0.4-2.3c0.7-0.2 1.4 1.4 1.2 2z"/>
				<path id="&lt;Path&gt;" class="s47" d="m97.6 161.8q8.5 2.4 14.5-1.5q-5.3 7.7-18.2 7.6q-12.9 0-16.4-6.1c3.1-3.6 11.6-2.3 20.1 0z"/>
				<path id="&lt;Path&gt;" class="s1" d="m104.7 16.9c-1.4 0.3 10.2 6.4 10.7 5.7c0.4-0.7-6.9-6.6-10.7-5.7z"/>
				<path id="&lt;Path&gt;" class="s1" d="m131.7 20.5c0.2 0.3-1.1 2.2-3.5 2.5c-2.4 0.3-2.4-0.9-1.3-1.5c1.3-0.7 4.5-1.4 4.8-1z"/>
				<path id="&lt;Path&gt;" class="s48" d="m155.2 84.5q-12.3 24.4-34 32.7c-5.9-3.9-11.1-16.5-9.1-18.9q0.2-0.2 0.4-0.3q3.9 14.2 15.2 10.3q13.5-4.7 19-28.1v-6.8l6.9 3.5q1.8 3.5 1.6 7.6z"/>
				<path id="&lt;Path&gt;" class="s49" d="m152.1 55.1c3.8-5.1 9.4-6 12.3-2.4c2.9 3.6-0.1 18.9-2.2 22.3c-2 3.4-7.5 11.5-11.8 10.3q-4.4-1.3-4.3-9q0.2-6.5 6-21.2z"/>
				<path id="&lt;Path&gt;" class="s50" d="m152.1 55.1q4.5-4.9 7.7-4.6q-6.1 7.8-7.3 13.8q-1.1 5.9-6.2 9.7q1.4-14 5.8-18.9z"/>
				<path id="&lt;Path&gt;" class="s51" d="m151.3 56.1l3.9 1.5q-1.7 2.9-2.4 5.6q-0.7 2.8-3.3 6.6z"/>
				<path id="&lt;Path&gt;" class="s52" d="m146.3 72.6q-1.3-2.9-1.5-8.6c-0.2-5.6 1.2-10 1.8-10.8c0.6-0.8 2.8-0.7 3.8 0.6q1.1 1.2 1.8 7.4q-1.4 10-5.9 11.4z"/>
				<path id="&lt;Path&gt;" class="s53" d="m152.8 63.2q3 8.4 9.4 11.8l-0.8 1.3q-6.2-3.5-8.9-12z"/>
				<path id="&lt;Path&gt;" class="s1" d="m148 57.4c-0.7-0.1-0.4 5.5 0.3 5.3c0.8-0.3 0.6-5.2-0.3-5.3z"/>
				<path id="&lt;Path&gt;" class="s54" d="m51.9 75c-0.2 0.7 16.5 0.9 16.9-2c0.4-3-15.8-4-16.9 2z"/>
				<path id="&lt;Path&gt;" class="s55" d="m56 63.3q-0.7-4.6 0.1-10.7c0.8-6.1 2.4-10 3.4-9.4c1 0.5 0.8 6.5 1.4 12.3q0.5 4.6 1.3 8.9q-4.2 4-6.2-1.1z"/>
				<path id="&lt;Path&gt;" class="s56" d="m96.3 124.3c17.7 1.2 21.6 19.1 19.1 19.9c-2.5 0.7-4.5-3.1-16.4-4.3c-11.8-1.1-22.3 1.1-24.9-3c-0.6-1 4.5-13.8 22.2-12.6z"/>
				<path id="&lt;Path&gt;" class="s57" d="m141.1 28.2q-2.4-0.3-3.8 0.6c-1.4 0.8-2.2 6.3-4 6c-1.8-0.2-1.6-9.6 1.4-10.4q3-0.7 5.3 2z"/>
				<path id="&lt;Path&gt;" class="s58" d="m53.2 22.3c3.5 2.6 4.5 11.2 3.2 11.8c-1.4 0.5-2.9-4.8-5.5-5.3q-2.6-0.4-3.7 0.9q1.5-3.5 6-7.4z"/>
				<path id="&lt;Path&gt;" class="s59" d="m43.6 42.3q-9.2 10.4-8.6 11.1c0.5 0.7 9.2-10 8.6-11.1z"/>
			</g>
		</g>
	</g>
</svg>