<?xml version="1.0" encoding="utf-8"?>
<!-- Generator: Adobe Illustrator 24.1.0, SVG Export Plug-In . SVG Version: 6.00 Build 0)  -->
<svg version="1.1" id="Layer_1" xmlns="http://www.w3.org/2000/svg" xmlns:xlink="http://www.w3.org/1999/xlink" x="0px" y="0px"
	 viewBox="0 0 122 99.6" style="enable-background:new 0 0 122 99.6;" xml:space="preserve">
<style type="text/css">
	.st0{fill:#0000E5;}
	.st1{fill:#FF0200;}
</style>
<g>
	<path class="st0" d="M47.9,56c0.1-0.1,0.2-0.2,0.2-0.4c1.1-2.1,2-4.3,2.3-6.7c0.1-1,0.5-2,0.8-3c0.1-0.2,0.2-0.4,0.3-0.6
		c0.1,1.1,0.1,2.1,0.3,3c0.2,1.1,0,2.2-0.5,3.2c-0.3,0.7-0.6,1.4-0.9,2.1c-0.2,0.5-0.3,1.1-0.1,1.7c0.2,0.8,0.1,1.7-0.2,2.5
		c-0.3,0.7-0.5,1.5-0.2,2.3c0.2,0.6,0.1,1.1-0.2,1.6c-0.3,0.6-0.2,1.1,0.3,1.5c0.3,0.3,0.6,0.5,0.8,0.8c0.2,0.3,0.4,0.6,0.6,0.9
		c-0.5,0.2-1,0-1.2,0.6c0.2-0.1,0.4-0.2,0.5-0.2c0.2,0,0.4,0.1,0.5,0.2c0.1,0.1,0.1,0.4,0.1,0.5c0,0.1-0.3,0.1-0.4,0.1
		c-0.8,0-1.5,0-2.3,0c-0.2,0-0.4-0.2-0.6-0.2c0.1-0.2,0.2-0.4,0.3-0.6c0.1-0.1,0.2-0.1,0.3-0.2c-0.4-0.2-0.5,0-0.7,0.2
		c-0.3,0.5-0.7,0.6-1.3,0.3c-0.2-0.1-0.3-0.3-0.4-0.4c0.2-0.1,0.3-0.3,0.5-0.3c0.5,0,0.9-0.3,1.1-0.7c0.2-0.7,0.4-1.4,0-2.2
		c-0.2-0.4-0.4-0.8-0.6-1.2c-0.4-0.8-0.4-1.7-0.3-2.6c0.1-1.1,0.2-2.2,0.1-3.3c0-1-0.5-1.9-1-2.8c-0.4-0.6-0.6-1.2-0.6-1.8
		c0-1.3-0.6-2.5-1.3-3.5c-0.7-0.9-1.5-1.7-2.2-2.5c-0.2-0.2-0.5-0.3-0.7-0.3c-0.9-0.1-1.9,0.1-2.4,0.9c-0.7,1.1-1.5,2.2-1.7,3.6
		c-0.2,1.2,0.2,2.2,0.6,3.2c0,0.1,0.1,0.2,0.2,0.3c1,0.5,1.6,1.4,1.9,2.4c0.4,1,1,1.8,1.9,2.5c0.7,0.5,1.1,1,0.8,1.8
		c-0.1,0.2,0,0.4,0.1,0.6c0.6,1,0.4,2.1,0,3.1c-0.2,0.4-0.3,0.8-0.1,1.2c0.1,0.1,0,0.3,0,0.4c0,0.2,0,0.5,0.2,0.6
		c0.3,0.3,0.4,0.5,0.1,0.9c0.2,0,0.3,0,0.3,0c0.3,0,0.5,0.2,0.5,0.4c0,0.3-0.2,0.4-0.5,0.4c-0.5,0-1.1-0.1-1.6-0.1
		c-0.2,0-0.5,0.2-0.7,0.2c-0.2,0-0.5-0.1-0.6-0.2c-0.1-0.1,0.1-0.4,0.2-0.6c0.1-0.1,0.2-0.2,0.3-0.4c-0.4-0.1-0.7,0.1-0.8,0.4
		c-0.1,0.3-0.3,0.3-0.5,0.2c-0.2-0.1-0.3-0.3-0.3-0.5c0-0.3,0.1-0.7,0.2-1c0.2-0.7,0.2-1.3,0-1.9c-0.2-0.5-0.2-0.9,0.1-1.4
		c0.3-0.5,0.3-1-0.1-1.6c-0.1-0.2-0.2-0.5-0.2-0.8c0-0.5,0.1-1.1,0.2-1.6c0,0-0.1-0.1-0.1-0.1c-0.2,0.2-0.4,0.4-0.5,0.6
		c-0.1,0.9-0.4,1.6-0.9,2.3c-0.2,0.3-0.2,0.7,0,1.1c0.1,0.4,0,0.9-0.1,1.3c-0.3,0.9-0.4,1.7,0.1,2.5c0.1,0.2,0,0.4-0.1,0.7
		c0.4-0.2,0.7,0,0.9,0.4c0.1,0.2,0,0.4-0.2,0.4c-0.6,0-1.2-0.1-1.8-0.1c-0.1,0-0.2,0-0.3,0c-0.3,0-0.6,0.1-1,0.1
		c0,0-0.1-0.3-0.1-0.3c0.1-0.2,0.3-0.3,0.5-0.5c-0.4-0.2-0.7-0.1-1.3,0.3c-0.2,0.1-0.4,0.2-0.7,0.3c-0.3,0-0.4-0.1-0.3-0.4
		c0.3-0.7,0.5-1.4,0.7-2.2c0.1-0.4,0-0.7,0-1.1c0-0.3-0.1-0.7,0-1c0.1-0.3,0.1-0.6-0.1-0.9c-0.2-0.3-0.4-0.6-0.6-0.9
		c-0.4-0.7-0.6-1.4-0.6-2.2c0-0.5-0.2-0.9-0.6-1.2c-1.1-0.6-1.3-1.6-1.2-2.7c0.1-1.5,0.3-3,0.9-4.4c0.4-0.9,0.5-1.9,0.7-2.8
		c0.1-0.7,0.4-1.3,0.9-1.8c0.5-0.5,1.1-1.1,1.6-1.6c0.5-0.4,0.9-0.9,1.4-1.3c0.7-0.7,1.4-1.5,1.7-2.5c0.8,0.5,0.9,1,0.3,1.6
		c-0.9,1-1.8,2-2.7,3c-0.8,0.9-1.6,1.8-2.3,2.7c-0.3,0.4-0.5,0.9-0.7,1.3c0,0,0.1,0.1,0.1,0.1c2.1-2.4,4.1-4.7,6.2-7.2
		c0.2,0.1,0.3,0.2,0.4,0.3c0.6,0.5,1.3,0.6,2.1,0.3c0.3-0.2,0.6-0.3,1-0.4c0.6-0.2,0.8-0.6,0.8-1.2c0-0.3,0.1-0.5,0.1-0.8
		c0-0.3,0.1-0.5,0.4-0.6c0.1,0,0.3-0.3,0.3-0.5c0.1-0.3,0.1-0.6,0.3-0.9c0.4-0.5,0.3-1,0.1-1.6c-0.3-0.7-0.6-1.3-0.9-2
		c-0.2-0.5-0.2-1,0.1-1.5c0.6-0.9,1-1.9,1.5-2.8c0.1-0.2,0.4-0.3,0.6-0.5c0.2-0.1,0.3-0.2,0.5-0.4c0.6-0.6,1.5-0.5,2.1,0.1
		c0.1,0.1,0.4,0.2,0.6,0.3c0.5,0.1,1,0.5,1,1c0,0.5,0.3,0.8,0.6,1.1c0.1,0.1,0.2,0.2,0.3,0.3c-0.2,0-0.3,0-0.5,0
		c-0.7,0-1.4,0-1.9,0.6c-0.2,0.3-0.5,0.3-0.8,0.1c-0.4-0.3-0.8-0.7-1.1-1.1c-0.3-0.5-0.7-0.5-1.2-0.3c0.1,0.1,0.2,0.2,0.3,0.2
		c0.4,0,0.6,0.2,0.8,0.5c0.2,0.2,0.3,0.5,0.5,0.7c0.6,0.6,1.2,0.7,1.8,0.1c0.4-0.3,0.8-0.4,1.3-0.4c0.5,0,1.1,0,1.6,0
		c0.3,0,0.5-0.1,0.6-0.3c1.2-1.8,1.9-3.8,2.5-5.8c0-0.1,0-0.3,0-0.4c0,0-0.1,0-0.1-0.1c-0.3,0.2-0.5,0.4-0.8,0.7
		c0.3-0.7,0.6-1.4,1.2-1.9c0.3-0.2,0.6-0.1,0.8,0.2c0.1,0.2,0.2,0.5,0.2,0.7c-0.1,1.3-0.2,2.5-0.3,3.7c0,0.1,0,0.2,0,0.3
		c0.1-0.1,0.2-0.2,0.3-0.4c0.5-0.9,0.7-1.9,0.9-2.9c0.1-1.1,0.3-2.3,0.5-3.4c0.1-0.6,0.4-1.3,0.7-1.8c1.1-1.8,2.7-3.2,4.8-3.6
		c1.7-0.3,3,0.7,3.9,1.9c0.1,0.1,0,0.2,0,0.3c-0.1,0.2-0.3,0.5-0.4,0.7c-0.7-0.2-1.3-0.4-1.9-0.6c-1-0.2-1.9,0.1-2.6,0.8
		c-1,1-1.5,2.2-1.6,3.6c-0.1,0.8,0,1.6,0,2.4c0,0.3,0.1,0.4,0.4,0.4c0.6,0.1,1.2,0.1,1.7,0.2c2.5,0.6,4.1,2.6,3.9,5.2
		c-0.3,3.8-1.9,6.9-5.2,9c-1.5,0.9-3.1,1.4-4.9,1.1c-1.2-0.2-2.1-0.8-3.1-1.5c-0.2-0.1-0.3-0.2-0.6-0.1c-0.3,0-0.6-0.2-0.8-0.4
		c-0.2-0.1-0.3-0.2-0.5-0.4c-0.1,0.1-0.1,0.2-0.1,0.2c0.6,1.4,0.2,2.9,0.2,4.3c0,0.3-0.1,0.7-0.3,1c-0.9,1.7-1.5,3.5-1.6,5.5
		c-0.1,1.6-0.8,3-1.5,4.5c-0.2,0.5-0.4,0.9-0.6,1.4C47.8,56,47.9,56,47.9,56z M60.8,27.4C60.8,27.4,60.8,27.4,60.8,27.4
		c0,0.2,0,0.3,0,0.4c-0.4,3.3-1.7,6-4.9,7.4c-0.9,0.4-1,0.6-0.4,1.4c0.2,0.3,0.6,0.6,0.9,0.8c0.7,0.4,1.4,0.4,2.1,0.4
		c1.2-0.1,2.2-0.6,3.1-1.4c1.9-1.5,2.9-3.5,2.8-6C64.5,28.4,62.9,27.1,60.8,27.4z M60.6,26.7c0,0.1,0.1,0.1,0.1,0.2
		c0.2,0,0.5,0,0.7,0c2.1,0.1,3.6,1.5,3.5,3.7c-0.1,2.7-1.1,5-3.3,6.6c-1.9,1.4-4,1.6-6.2,0.6c-0.3-0.1-0.5-0.1-0.7,0.1
		c-0.2,0.3-0.5,0.6-0.7,0.9c-0.4,0.5-0.4,0.5,0.1,0.9c1.7,1.4,3.6,1.4,5.5,0.7c3.7-1.4,5.8-4.2,6.4-8.2c0.2-1.3,0-2.6-0.8-3.8
		c-1.1-1.5-2.7-2-4.4-2C60.9,26.4,60.7,26.6,60.6,26.7z M49.3,36.6c0,0-0.1,0-0.1,0c0-0.1-0.1-0.3-0.1-0.4c0-0.1,0-0.3,0-0.4
		c-0.2,0-0.3,0-0.5,0.1c-1.6,0.9-1.7,2.1-0.5,3.4c0.2,0.2,0.3,0.3,0.5,0.4c1,0.6,2,0.3,2.5-0.7c0.7-1.5,1.4-3,2.1-4.4
		c0.9-2.1,2-4.2,2.5-6.6c0.2-1.2,0.5-2.3,0.4-3.5c0-0.2-0.2-0.4-0.3-0.5c-0.2,0.1-0.3,0.2-0.5,0.3c0.1,0,0.1,0,0.2,0
		c0,0.3,0.1,0.6,0.1,0.9c-0.3,1-0.6,2.1-1,3.1c-0.9,2.7-2.5,5-4.1,7.3C50.1,35.8,49.7,36.2,49.3,36.6z M46.2,50.1c0.1,0,0.1,0,0.2,0
		c0-0.4,0-0.8,0-1.2c0.1-1.2-0.2-2.2-0.6-3.3c-0.2-0.6-0.4-1.2-0.5-1.8c-0.4-1.7-0.4-3.5-0.4-5.2c0-0.2,0-0.4-0.1-0.6
		c-0.1,0-0.1,0-0.2,0c-0.1,0.4-0.2,0.7-0.2,1.1c0,1.3,0.1,2.7,0.2,4c0.1,0.9,0.2,1.9,0.6,2.7c0.5,1,0.7,2,0.8,3
		C46.1,49.2,46.2,49.6,46.2,50.1z M39.5,56.5c0-0.1,0-0.1,0.1-0.2c-0.2-0.1-0.4-0.2-0.6-0.2c-0.4-0.1-0.7-0.2-1.1-0.3
		c-2.3-0.8-4.5-1.9-4.9-4.7c0-0.1-0.1-0.2-0.2-0.2c-0.1,0-0.2,0.1-0.2,0.2c0,0.2,0,0.5,0,0.7c0.1,0.8,0.5,1.5,1.1,2.1
		c1.3,1.2,2.8,2,4.4,2.4C38.6,56.4,39.1,56.4,39.5,56.5z M49.8,41c-0.1,0-0.1,0-0.2,0c-0.1,0.3-0.3,0.6-0.3,0.9c0,2.2-0.2,4.4-1,6.6
		c0,0.1,0,0.2,0,0.4C49.2,48,50.3,42.2,49.8,41z M46.5,37.2c0.1,0,0.2,0,0.2,0c0-0.2,0-0.5-0.1-0.7c-0.3-1.3,0.1-2.3,1.3-3
		c0.1-0.1,0.3-0.2,0.4-0.3c0.5-0.3,0.7-0.3,1,0.1c0.2,0.3,0.4,0.5,0.6,0.8c0.1,0,0.1,0,0.2-0.1c0-0.1,0-0.3-0.1-0.4
		c-0.2-0.2-0.4-0.4-0.5-0.6c-0.5-0.5-0.7-0.6-1.3-0.2c-0.8,0.4-1.4,1-1.9,1.8c-0.1,0.1-0.2,0.3-0.1,0.4
		C46.3,35.7,46.4,36.5,46.5,37.2z M44.5,32.6c0.1,0.3,0.1,0.5,0.2,0.7c0.2,0.4,0.6,0.5,0.9,0.2c0.4-0.4,0.6-1.5,0.3-1.9
		c-0.1-0.2-0.4-0.4-0.6-0.4c-0.2,0-0.4,0.2-0.5,0.4C44.5,32,44.5,32.3,44.5,32.6z"/>
	<path class="st0" d="M45.5,64.3c-0.3-0.7-1-1-1.5-0.6c-0.1,0.1-0.1,0.1-0.2,0.2c-0.2,0.1-0.4,0.3-0.5,0.2c-0.2-0.1-0.2-0.3-0.3-0.5
		c-0.2-0.5,0-0.9,0.1-1.4c0.1-0.7,0.3-1.5,0.1-2.2c-0.2-0.7-0.3-1.4-0.2-2.1c0-0.2-0.2-0.5-0.4-0.8c-0.1-0.1-0.2-0.2-0.3-0.3
		c-1-0.7-1.8-1.6-2.2-2.8c-0.3-0.9-0.9-1.6-1.7-2.1c-0.2-0.2-0.5-0.4-0.5-0.7c-0.7-2.5-0.2-4.4,1.7-6.2c0.8-0.7,1.8-0.5,2.4,0.4
		c0.4,0.5,0.8,1,1.2,1.5c0.9,0.9,1.4,1.9,1.6,3.1c0.2,0.9,0.3,1.7,0.8,2.5c1.1,1.7,1.3,3.5,1,5.4c-0.2,1.6,0,3,0.8,4.4
		c0.3,0.5,0.5,1.1,0.2,1.7c-0.1,0.1-0.2,0.3-0.3,0.3c-0.3,0.1-0.6,0.3-1,0.4c-0.6,0.1-1.1,0-1.7,0c-0.3,0-0.6-0.1-0.5-0.5
		c0.1-0.3,0.4-0.4,0.7-0.3C45,64,45.2,64.1,45.5,64.3z"/>
	<path class="st0" d="M57.2,78.2c0.2-0.9,0.5-1.7,0.7-2.6c0.2-0.8,0.4-1.5,0.6-2.3c0-0.1,0.2-0.3,0.3-0.3c1,0,1.9,0,3,0
		c0.4,3.7,0.9,7.3,1.3,11c-1,0-1.9,0-2.8,0c-0.1,0-0.2-0.2-0.2-0.3c-0.1-1.5-0.3-3-0.4-4.4c0-0.3-0.1-0.5-0.2-0.8
		c-0.5,1.8-1.1,3.7-1.6,5.6c-0.6,0-1.1,0-1.7,0C56,84,56,83.8,56,83.6c-0.4-1.5-0.7-3.1-1-4.6c0-0.2-0.1-0.4-0.1-0.6
		c0,0-0.1,0-0.1,0c-0.2,1.8-0.5,3.7-0.7,5.6c-1,0-2,0-3,0c0.6-3.7,1.2-7.3,1.8-11c1,0,2,0,3,0c0.1,0,0.3,0.2,0.3,0.4
		c0.3,1.4,0.6,2.9,0.9,4.3c0,0.1,0.1,0.3,0.1,0.4C57.2,78.2,57.2,78.2,57.2,78.2z"/>
	<path class="st0" d="M77,84c-1,0-2,0-3,0c-0.2-1.8-0.3-3.7-0.5-5.5c0,0-0.1,0-0.1,0c-0.1,0.2-0.1,0.4-0.2,0.5
		c-0.4,1.5-0.9,3.1-1.3,4.6c-0.1,0.3-0.2,0.4-0.5,0.4c-0.5,0-1,0-1.5,0c-0.4-1.9-0.9-3.8-1.3-5.6c0,0-0.1,0-0.1,0
		c-0.1,1-0.3,2-0.4,3c-0.1,0.8-0.2,1.5-0.3,2.3c0,0.1-0.2,0.3-0.3,0.3c-0.9,0-1.8,0-2.8,0c0.2-1.4,0.4-2.7,0.7-4.1
		c0.4-2.2,0.7-4.3,1.1-6.5c0.1-0.4,0.2-0.5,0.6-0.5c0.8,0,1.6,0,2.4,0c0.3,0,0.4,0.1,0.5,0.4c0.3,1.5,0.6,3,1,4.4
		c0,0.1,0.1,0.2,0.2,0.3c0.2-0.6,0.3-1.2,0.5-1.7c0.3-1,0.6-2,0.8-3.1c0.1-0.3,0.2-0.4,0.5-0.4c0.9,0,1.9,0,2.8,0
		C76.1,76.7,76.6,80.3,77,84z"/>
	<path class="st0" d="M37.1,73c0.4,3.7,0.9,7.3,1.3,11c-1,0-2,0-3,0c-0.2-1.9-0.3-3.7-0.5-5.5c0,0-0.1,0-0.1,0
		c-0.1,0.2-0.1,0.3-0.2,0.5c-0.4,1.5-0.9,3.1-1.3,4.6c-0.1,0.4-0.2,0.5-0.6,0.4c-0.4,0-0.7,0-1.1,0c-0.3,0-0.4-0.1-0.5-0.4
		c-0.4-1.6-0.7-3.3-1.1-4.9c0-0.1-0.1-0.2-0.2-0.3c-0.1,0.8-0.2,1.5-0.3,2.3c-0.1,1-0.2,2-0.4,3c0,0.1-0.1,0.3-0.2,0.3
		c-0.9,0-1.9,0-2.8,0c0.2-1.2,0.4-2.4,0.6-3.5c0.4-2.3,0.8-4.7,1.2-7c0.1-0.4,0.2-0.5,0.6-0.5c0.8,0,1.6,0,2.3,0
		c0.3,0,0.5,0.1,0.5,0.4c0.3,1.5,0.6,2.9,0.9,4.4c0,0.1,0.1,0.3,0.2,0.4c0.3-1.2,0.7-2.4,1-3.7c0.1-0.5,0.1-1.2,0.5-1.4
		c0.3-0.3,1-0.1,1.5-0.1C35.9,73,36.5,73,37.1,73z"/>
	<path class="st0" d="M39.6,84c0.3-0.9,0.6-1.8,0.8-2.7c0.8-2.6,1.6-5.2,2.4-7.8c0.1-0.3,0.2-0.4,0.6-0.4c1,0,2,0,2.9,0
		c0.2,0,0.4,0,0.4,0.3c1,3.5,1.9,7,2.9,10.5c0,0.1,0,0.1,0,0.2c-1.1,0-2.1,0-3.2,0c-0.1,0-0.2-0.1-0.3-0.2c-0.1-0.2-0.1-0.5-0.2-0.8
		c0-0.4-0.2-0.5-0.6-0.5c-0.6,0-1.2,0-1.7,0c-0.3,0-0.4,0.1-0.5,0.4c-0.1,0.4-0.1,0.9-0.4,1c-0.3,0.2-0.8,0.1-1.2,0.1
		c-0.7,0-1.3,0-2,0C39.8,84,39.8,84,39.6,84z M44,79.9c0.5,0,1,0,1.5,0c-0.2-1.2-0.4-2.3-0.6-3.4c0,0-0.1,0-0.1,0
		C44.6,77.6,44.3,78.7,44,79.9z"/>
	<path class="st0" d="M79,73c1,0,2,0,3,0c0,0.2,0,0.4,0,0.5c0,2.1,0,4.2,0,6.3c0,0.8,0.5,1.1,1.2,1c0.4-0.1,0.6-0.3,0.7-0.7
		c0.1-0.2,0.1-0.5,0.1-0.7c0-1.9,0-3.9,0-5.8c0-0.2,0-0.4,0-0.6c1,0,2,0,3,0c0,0.2,0,0.3,0,0.5c0,2.1,0,4.2,0,6.3
		c0,1.2-0.3,2.3-1.2,3.2c-1.2,1.2-2.6,1.3-4.1,1c-1.6-0.3-2.6-1.6-2.7-3.3C78.9,78.2,79,75.7,79,73z"/>
	<path class="st0" d="M45.2,70.3c3.2-0.2,6.4-0.4,9.5-0.6c3.8-0.2,7.5-0.5,11.3-0.7c2.8-0.2,5.5-0.3,8.3-0.5
		c2.8-0.2,5.5-0.3,8.3-0.5c0.2,0,0.3,0,0.5,0c3.8,1.2,7.6,2.5,11.4,3.7c0.1,0,0.1,0.1,0.2,0.1c-1-0.1-2-0.2-3-0.3
		c-2.5-0.3-5-0.6-7.4-0.8c-3.1-0.2-6.1-0.2-9.2-0.2c-7.1-0.1-14.2-0.1-21.3-0.2c-2.9,0-5.7,0-8.6,0C45.2,70.3,45.2,70.3,45.2,70.3z"
		/>
	<path class="st0" d="M90.8,76.7c-0.6,0-1.1,0-1.7,0c0-0.2,0-0.3,0-0.4c0-0.9,0-1.9,0-2.8c0-0.2,0-0.4,0.3-0.4c2.1,0,4.1,0,6.2,0
		c0,1.2,0,2.4,0,3.6c-0.6,0-1.1,0-1.7,0c0,2.5,0,4.9,0,7.4c-1,0-2,0-3,0C90.8,81.6,90.8,79.1,90.8,76.7z"/>
	<path class="st0" d="M40.5,41c-0.3-0.2-0.6-0.3-0.9-0.6c-0.3-0.4-0.6-0.8-0.9-1.2c-0.5-0.7-1-1.4-1.5-2c-0.5-0.6-0.6-1-0.1-1.6
		c1.2-1.6,2.7-2.7,4.7-2.9c1-0.1,1-0.1,1.3,0.9c0.3,0.7,0.6,1.5,0.8,2.2c0,0.1,0.1,0.2,0.1,0.4c-0.1,0.5-0.3,1.1-0.5,1.6
		c0,0.1-0.1,0.1-0.1,0.2c-0.5,0.1-0.6,0.5-0.6,0.8c0.1,1-0.4,1.6-1.4,1.9C41.3,40.7,41,40.8,40.5,41z"/>
	<path class="st0" d="M44.8,32.7c0.1,0.1,0.2,0.4,0.4,0.4c0.4,0,0.5-0.4,0.5-0.7c0-0.2-0.2-0.5-0.3-0.5
		C44.9,31.9,44.9,32.3,44.8,32.7z"/>
	<path class="st0" d="M44.8,32.7c0.1-0.4,0.1-0.8,0.5-0.8c0.1,0,0.3,0.3,0.3,0.5c0,0.3-0.1,0.7-0.5,0.7C45,33.1,44.9,32.8,44.8,32.7
		z"/>
</g>
<path class="st1" d="M94.2,71c-0.2-0.1-0.3-0.1-0.5-0.2c-3.4-1.3-6.9-2.5-10.3-3.8c-0.2-0.1-0.5-0.1-0.7-0.1c-3,0.2-6,0.4-9,0.6
	c-2.5,0.2-5,0.3-7.4,0.5c-3.4,0.2-6.8,0.5-10.1,0.7c-2.4,0.2-4.9,0.3-7.3,0.5c-3.4,0.2-6.8,0.5-10.2,0.7c-2.4,0.2-4.8,0.3-7.2,0.5
	c-0.2,0-0.4,0-0.5,0c2-0.3,4-0.5,6-0.8c3.3-0.4,6.6-0.8,9.8-1.2c3.3-0.4,6.5-0.8,9.8-1.2c3.5-0.4,7-0.9,10.6-1.3
	c3.5-0.4,7-0.9,10.5-1.3c1.6-0.2,3.2-0.4,4.8-0.6c0.4-0.1,0.7,0,1.1,0.2c3.5,2.2,6.9,4.4,10.4,6.6C94,70.7,94.2,70.8,94.2,71
	C94.3,70.9,94.3,71,94.2,71z"/>
</svg>
